Yantramanav-RegularItalic.ufo
<glyph name="exclam" format="1">
  <advance width="667"/>
  <unicode hex="0021"/>
  <outline>
    <contour>
      <point x="403" y="430" type="line"/>
      <point x="226" y="430" type="line"/>
      <point x="226" y="1310" type="line"/>
      <point x="403" y="1310" type="line"/>
    </contour>
    <contour>
      <point x="404" y="0" type="line"/>
      <point x="226" y="0" type="line"/>
      <point x="226" y="184" type="line"/>
      <point x="404" y="184" type="line"/>
    </contour>
  </outline>
</glyph>
<glyph name="dollar" format="1">
  <advance width="1038"/>
  <unicode hex="0024"/>
  <outline>
    <contour>
      <point x="763" y="318" type="qcurve" smooth="yes"/>
      <point x="763" y="398"/>
      <point x="648" y="513"/>
      <point x="517" y="558" type="qcurve" smooth="yes"/>
      <point x="335" y="613"/>
      <point x="149" y="796"/>
      <point x="149" y="949" type="qcurve" smooth="yes"/>
      <point x="149" y="1098"/>
      <point x="320" y="1285"/>
      <point x="469" y="1304" type="qcurve"/>
      <point x="469" y="1503" type="line"/>
      <point x="611" y="1503" type="line"/>
      <point x="611" y="1303" type="line"/>
      <point x="762" y="1282"/>
      <point x="929" y="1066"/>
      <point x="929" y="886" type="qcurve"/>
      <point x="752" y="886" type="line"/>
      <point x="752" y="1008"/>
      <point x="639" y="1159"/>
      <point x="538" y="1159" type="qcurve" smooth="yes"/>
      <point x="432" y="1159"/>
      <point x="327" y="1048"/>
      <point x="327" y="952" type="qcurve" smooth="yes"/>
      <point x="327" y="865"/>
      <point x="436" y="757"/>
      <point x="578" y="708" type="qcurve" smooth="yes"/>
      <point x="762" y="649"/>
      <point x="941" y="472"/>
      <point x="941" y="319" type="qcurve" smooth="yes"/>
      <point x="941" y="165"/>
      <point x="755" y="-18"/>
      <point x="593" y="-35" type="qcurve"/>
      <point x="593" y="-208" type="line"/>
      <point x="452" y="-208" type="line"/>
      <point x="452" y="-36" type="line"/>
      <point x="297" y="-20"/>
      <point x="99" y="174"/>
      <point x="103" y="361" type="qcurve"/>
      <point x="104" y="365" type="line"/>
      <point x="275" y="365" type="line"/>
      <point x="275" y="227"/>
      <point x="415" y="109"/>
      <point x="517" y="109" type="qcurve" smooth="yes"/>
      <point x="633" y="109"/>
      <point x="763" y="220"/>
    </contour>
  </outline>
</glyph>
<glyph name="quotesingle" format="1">
  <advance width="569"/>
  <unicode hex="0027"/>
  <outline>
    <contour>
      <point x="375" y="1203" type="line"/>
      <point x="284" y="949" type="line"/>
      <point x="198" y="949" type="line"/>
      <point x="198" y="1188" type="line"/>
      <point x="198" y="1404" type="line"/>
      <point x="375" y="1404" type="line"/>
    </contour>
  </outline>
</glyph>
<glyph name="asterisk" format="1">
  <advance width="796"/>
  <unicode hex="002A"/>
  <outline>
    <contour>
      <point x="292" y="945" type="line"/>
      <point x="25" y="1025" type="line"/>
      <point x="69" y="1163" type="line"/>
      <point x="336" y="1063" type="line"/>
      <point x="327" y="1371" type="line"/>
      <point x="472" y="1371" type="line"/>
      <point x="463" y="1058" type="line"/>
      <point x="726" y="1157" type="line"/>
      <point x="770" y="1017" type="line"/>
      <point x="498" y="936" type="line"/>
      <point x="671" y="693" type="line"/>
      <point x="554" y="607" type="line"/>
      <point x="391" y="865" type="line"/>
      <point x="232" y="614" type="line"/>
      <point x="113" y="698" type="line"/>
    </contour>
  </outline>
</glyph>
<glyph name="period" format="1">
  <advance width="493"/>
  <unicode hex="002E"/>
  <outline>
    <contour>
      <point x="322" y="0" type="line"/>
      <point x="145" y="0" type="line"/>
      <point x="145" y="182" type="line"/>
      <point x="322" y="182" type="line"/>
    </contour>
  </outline>
</glyph>
<glyph name="slash" format="1">
  <advance width="765"/>
  <unicode hex="002F"/>
  <outline>
    <contour>
      <point x="166" y="-125" type="line"/>
      <point x="14" y="-125" type="line"/>
      <point x="562" y="1298" type="line"/>
      <point x="712" y="1298" type="line"/>
    </contour>
  </outline>
</glyph>
<glyph name="one" format="1">
  <advance width="1038"/>
  <unicode hex="0031"/>
  <outline>
    <contour>
      <point x="613" y="0" type="line"/>
      <point x="436" y="0" type="line"/>
      <point x="436" y="1138" type="line"/>
      <point x="167" y="1134" type="line"/>
      <point x="167" y="1262" type="line"/>
      <point x="613" y="1310" type="line"/>
    </contour>
  </outline>
</glyph>
<glyph name="two" format="1">
  <advance width="1038"/>
  <unicode hex="0032"/>
  <outline>
    <contour>
      <point x="956" y="0" type="line"/>
      <point x="106" y="0" type="line"/>
      <point x="106" y="122" type="line"/>
      <point x="536" y="599" type="line" smooth="yes"/>
      <point x="651" y="727"/>
      <point x="733" y="878"/>
      <point x="733" y="958" type="qcurve" smooth="yes"/>
      <point x="733" y="1056"/>
      <point x="618" y="1190"/>
      <point x="524" y="1190" type="qcurve" smooth="yes"/>
      <point x="388" y="1190"/>
      <point x="259" y="1050"/>
      <point x="259" y="924" type="qcurve"/>
      <point x="89" y="924" type="line"/>
      <point x="87" y="930" type="line"/>
      <point x="83" y="1099"/>
      <point x="317" y="1329"/>
      <point x="524" y="1329" type="qcurve" smooth="yes"/>
      <point x="700" y="1329"/>
      <point x="910" y="1123"/>
      <point x="910" y="964" type="qcurve" smooth="yes"/>
      <point x="910" y="857"/>
      <point x="783" y="642"/>
      <point x="669" y="518" type="qcurve" smooth="yes"/>
      <point x="324" y="143" type="line"/>
      <point x="326" y="139" type="line"/>
      <point x="956" y="139" type="line"/>
    </contour>
  </outline>
</glyph>
<glyph name="question" format="1">
  <advance width="1142"/>
  <unicode hex="003F"/>
  <outline>
    <contour>
      <point x="470" y="369" type="line"/>
      <point x="471" y="499"/>
      <point x="515" y="600"/>
      <point x="606" y="683" type="qcurve"/>
      <point x="695" y="788"/>
      <point x="771" y="902"/>
      <point x="771" y="982" type="qcurve"/>
      <point x="771" y="1077"/>
      <point x="669" y="1180"/>
      <point x="575" y="1180" type="qcurve"/>
      <point x="493" y="1180"/>
      <point x="378" y="1091"/>
      <point x="378" y="1004" type="qcurve"/>
      <point x="209" y="1004" type="line"/>
      <point x="206" y="1010" type="line"/>
      <point x="203" y="1155"/>
      <point x="413" y="1329"/>
      <point x="575" y="1329" type="qcurve"/>
      <point x="752" y="1329"/>
      <point x="948" y="1148"/>
      <point x="948" y="986" type="qcurve"/>
      <point x="948" y="870"/>
      <point x="821" y="678"/>
      <point x="717" y="577" type="qcurve"/>
      <point x="668" y="528"/>
      <point x="648" y="451"/>
      <point x="648" y="369" type="qcurve"/>
    </contour>
    <contour>
      <point x="654" y="0" type="line"/>
      <point x="469" y="0" type="line"/>
      <point x="469" y="187" type="line"/>
      <point x="654" y="187" type="line"/>
    </contour>
  </outline>
</glyph>
<glyph name="A" format="1">
  <advance width="1175"/>
  <unicode hex="0041"/>
  <outline>
    <contour>
      <point x="818" y="342" type="line"/>
      <point x="287" y="342" type="line"/>
      <point x="108" y="0" type="line"/>
      <point x="-73" y="0" type="line"/>
      <point x="639" y="1310" type="line"/>
      <point x="788" y="1310" type="line"/>
      <point x="1047" y="0" type="line"/>
      <point x="880" y="0" type="line"/>
    </contour>
    <contour>
      <point x="362" y="484" type="line"/>
      <point x="793" y="484" type="line"/>
      <point x="684" y="1095" type="line"/>
    </contour>
  </outline>
</glyph>
<glyph name="B" format="1">
  <advance width="1122"/>
  <unicode hex="0042"/>
  <outline>
    <contour>
      <point x="53" y="0" type="line"/>
      <point x="281" y="1310" type="line"/>
      <point x="665" y="1310" type="line" smooth="yes"/>
      <point x="866" y="1310"/>
      <point x="1066" y="1130"/>
      <point x="1053" y="968" type="qcurve" smooth="yes"/>
      <point x="1045" y="874" name="inserted"/>
      <point x="927" y="733"/>
      <point x="816" y="685" type="qcurve"/>
      <point x="905" y="651"/>
      <point x="992" y="485"/>
      <point x="984" y="385" type="qcurve" smooth="yes"/>
      <point x="970" y="208"/>
      <point x="713" y="0"/>
      <point x="509" y="0" type="qcurve" smooth="yes"/>
    </contour>
    <contour>
      <point x="329" y="613" type="line"/>
      <point x="247" y="141" type="line"/>
      <point x="514" y="140" type="line" smooth="yes"/>
      <point x="636" y="140"/>
      <point x="802" y="272"/>
      <point x="815" y="383" type="qcurve" smooth="yes"/>
      <point x="828" y="490"/>
      <point x="729" y="608"/>
      <point x="623" y="612" type="qcurve" smooth="yes"/>
    </contour>
    <contour>
      <point x="353" y="752" type="line"/>
      <point x="597" y="751" type="line" smooth="yes"/>
      <point x="711" y="751"/>
      <point x="869" y="868"/>
      <point x="882" y="970" type="qcurve" smooth="yes"/>
      <point x="894" y="1066"/>
      <point x="796" y="1163"/>
      <point x="682" y="1167" type="qcurve" smooth="yes"/>
      <point x="425" y="1168" type="line"/>
    </contour>
  </outline>
</glyph>
<glyph name="C" format="1">
  <advance width="1173"/>
  <unicode hex="0043"/>
  <outline>
    <contour>
      <point x="1052" y="416" type="line"/>
      <point x="1014" y="212"/>
      <point x="722" y="-25"/>
      <point x="518" y="-20" type="qcurve" smooth="yes"/>
      <point x="396" y="-17"/>
      <point x="214" y="97"/>
      <point x="164" y="205" type="qcurve" smooth="yes" name="inserted"/>
      <point x="139" y="258" name="inserted"/>
      <point x="111" y="377"/>
      <point x="108" y="443" type="qcurve" smooth="yes"/>
      <point x="106" y="479" name="inserted"/>
      <point x="109" y="551"/>
      <point x="114" y="587" type="qcurve" smooth="yes"/>
      <point x="130" y="695" type="line" smooth="yes"/>
      <point x="172" y="990"/>
      <point x="502" y="1331"/>
      <point x="739" y="1326" type="qcurve" smooth="yes"/>
      <point x="923" y="1323"/>
      <point x="1139" y="1091"/>
      <point x="1146" y="886" type="qcurve"/>
      <point x="977" y="886" type="line"/>
      <point x="972" y="1024" name="inserted"/>
      <point x="864" y="1172"/>
      <point x="761" y="1183" type="qcurve" smooth="yes"/>
      <point x="732" y="1185" type="line" smooth="yes"/>
      <point x="562" y="1190"/>
      <point x="334" y="928"/>
      <point x="301" y="701" type="qcurve" smooth="yes"/>
      <point x="281" y="565" type="line"/>
      <point x="275" y="486" type="line" smooth="yes"/>
      <point x="270" y="320"/>
      <point x="399" y="125"/>
      <point x="526" y="121" type="qcurve" smooth="yes"/>
      <point x="662" y="117"/>
      <point x="842" y="257"/>
      <point x="888" y="413" type="qcurve"/>
    </contour>
  </outline>
</glyph>
<glyph name="D" format="1">
  <advance width="1182"/>
  <unicode hex="0044"/>
  <outline>
    <contour>
      <point x="53" y="0" type="line"/>
      <point x="281" y="1310" type="line"/>
      <point x="621" y="1310" type="line" smooth="yes"/>
      <point x="781" y="1310"/>
      <point x="1013" y="1149"/>
      <point x="1063" y="1008" type="qcurve" smooth="yes" name="inserted"/>
      <point x="1088" y="938" name="inserted"/>
      <point x="1103" y="780"/>
      <point x="1093" y="693" type="qcurve" smooth="yes"/>
      <point x="1084" y="627" type="line" smooth="yes"/>
      <point x="1044" y="341"/>
      <point x="679" y="0"/>
      <point x="402" y="0" type="qcurve" smooth="yes"/>
    </contour>
    <contour>
      <point x="425" y="1168" type="line"/>
      <point x="247" y="141" type="line"/>
      <point x="413" y="140" type="line" smooth="yes"/>
      <point x="604" y="140"/>
      <point x="869" y="378"/>
      <point x="909" y="585" type="qcurve" smooth="yes"/>
      <point x="925" y="668" name="inserted"/>
      <point x="936" y="809"/>
      <point x="931" y="867" type="qcurve" smooth="yes"/>
      <point x="917" y="1006"/>
      <point x="759" y="1164"/>
      <point x="626" y="1167" type="qcurve" smooth="yes"/>
    </contour>
  </outline>
</glyph>
<glyph name="E" format="1">
  <advance width="1025"/>
  <unicode hex="0045"/>
  <outline>
    <contour>
      <point x="878" y="606" type="line"/>
      <point x="328" y="606" type="line"/>
      <point x="247" y="141" type="line"/>
      <point x="887" y="141" type="line"/>
      <point x="862" y="0" type="line"/>
      <point x="53" y="0" type="line"/>
      <point x="281" y="1310" type="line"/>
      <point x="1081" y="1310" type="line"/>
      <point x="1056" y="1168" type="line"/>
      <point x="425" y="1168" type="line"/>
      <point x="352" y="747" type="line"/>
      <point x="903" y="747" type="line"/>
    </contour>
  </outline>
</glyph>
<glyph name="F" format="1">
  <advance width="997"/>
  <unicode hex="0046"/>
  <outline>
    <contour>
      <point x="856" y="579" type="line"/>
      <point x="323" y="579" type="line"/>
      <point x="222" y="0" type="line"/>
      <point x="53" y="0" type="line"/>
      <point x="281" y="1310" type="line"/>
      <point x="1069" y="1310" type="line"/>
      <point x="1044" y="1168" type="line"/>
      <point x="425" y="1168" type="line"/>
      <point x="347" y="720" type="line"/>
      <point x="881" y="720" type="line"/>
    </contour>
  </outline>
</glyph>
<glyph name="G" format="1">
  <advance width="1227"/>
  <unicode hex="0047"/>
  <outline>
    <contour>
      <point x="1032" y="171" type="line"/>
      <point x="967" y="78"/>
      <point x="716" y="-22"/>
      <point x="554" y="-20" type="qcurve" smooth="yes"/>
      <point x="426" y="-17"/>
      <point x="233" y="98"/>
      <point x="178" y="205" type="qcurve" smooth="yes" name="inserted"/>
      <point x="151" y="259" name="inserted"/>
      <point x="119" y="381"/>
      <point x="115" y="450" type="qcurve" smooth="yes"/>
      <point x="109" y="557"/>
      <point x="175" y="922"/>
      <point x="257" y="1055" type="qcurve" smooth="yes" name="inserted"/>
      <point x="338" y="1189"/>
      <point x="584" y="1329"/>
      <point x="743" y="1326" type="qcurve" smooth="yes"/>
      <point x="925" y="1323"/>
      <point x="1142" y="1113"/>
      <point x="1157" y="923" type="qcurve"/>
      <point x="990" y="923" type="line"/>
      <point x="980" y="1047"/>
      <point x="851" y="1181"/>
      <point x="736" y="1184" type="qcurve" smooth="yes"/>
      <point x="567" y="1190"/>
      <point x="339" y="935"/>
      <point x="303" y="689" type="qcurve" smooth="yes"/>
      <point x="286" y="563" type="line"/>
      <point x="284" y="495" type="line"/>
      <point x="284" y="317"/>
      <point x="429" y="124"/>
      <point x="561" y="122" type="qcurve" smooth="yes"/>
      <point x="656" y="120" name="inserted"/>
      <point x="806" y="167"/>
      <point x="862" y="216" type="qcurve"/>
      <point x="916" y="510" type="line"/>
      <point x="621" y="510" type="line"/>
      <point x="646" y="650" type="line"/>
      <point x="1107" y="650" type="line"/>
    </contour>
  </outline>
</glyph>
<glyph name="H" format="1">
  <advance width="1283"/>
  <unicode hex="0048"/>
  <outline>
    <contour>
      <point x="1031" y="0" type="line"/>
      <point x="862" y="0" type="line"/>
      <point x="968" y="606" type="line"/>
      <point x="328" y="606" type="line"/>
      <point x="222" y="0" type="line"/>
      <point x="53" y="0" type="line"/>
      <point x="281" y="1310" type="line"/>
      <point x="450" y="1310" type="line"/>
      <point x="352" y="747" type="line"/>
      <point x="991" y="747" type="line"/>
      <point x="1089" y="1310" type="line"/>
      <point x="1259" y="1310" type="line"/>
    </contour>
  </outline>
</glyph>
<glyph name="I" format="1">
  <advance width="495.0"/>
  <unicode hex="0049"/>
  <outline>
    <contour>
      <point x="234" y="0" type="line"/>
      <point x="66" y="0" type="line"/>
      <point x="293" y="1310" type="line"/>
      <point x="462" y="1310" type="line"/>
    </contour>
  </outline>
</glyph>
<glyph name="J" format="1">
  <advance width="995"/>
  <unicode hex="004A"/>
  <outline>
    <contour>
      <point x="819" y="1308" type="line"/>
      <point x="988" y="1308" type="line"/>
      <point x="831" y="380" type="line" smooth="yes"/>
      <point x="805" y="195"/>
      <point x="556" y="-26"/>
      <point x="371" y="-22" type="qcurve" smooth="yes"/>
      <point x="198" y="-18"/>
      <point x="9" y="183"/>
      <point x="20" y="360" type="qcurve"/>
      <point x="188" y="360" type="line"/>
      <point x="178" y="252"/>
      <point x="279" y="123"/>
      <point x="380" y="121" type="qcurve" smooth="yes"/>
      <point x="491" y="117"/>
      <point x="644" y="263"/>
      <point x="661" y="379" type="qcurve" smooth="yes"/>
    </contour>
  </outline>
</glyph>
<glyph name="K" format="1">
  <advance width="1130"/>
  <unicode hex="004B"/>
  <outline>
    <contour>
      <point x="490" y="608" type="line"/>
      <point x="298" y="436" type="line"/>
      <point x="222" y="0" type="line"/>
      <point x="53" y="0" type="line"/>
      <point x="281" y="1310" type="line"/>
      <point x="450" y="1310" type="line"/>
      <point x="338" y="672" type="line"/>
      <point x="1006" y="1310" type="line"/>
      <point x="1224" y="1310" type="line"/>
      <point x="615" y="724" type="line"/>
      <point x="1022" y="0" type="line"/>
      <point x="834" y="0" type="line"/>
    </contour>
  </outline>
</glyph>
<glyph name="L" format="1">
  <advance width="971"/>
  <unicode hex="004C"/>
  <outline>
    <contour>
      <point x="248" y="141" type="line"/>
      <point x="851" y="141" type="line"/>
      <point x="825" y="0" type="line"/>
      <point x="53" y="0" type="line"/>
      <point x="281" y="1310" type="line"/>
      <point x="451" y="1310" type="line"/>
    </contour>
  </outline>
</glyph>
<glyph name="M" format="1">
  <advance width="1570"/>
  <unicode hex="004D"/>
  <outline>
    <contour>
      <point x="494" y="1310" type="line"/>
      <point x="724" y="243" type="line"/>
      <point x="1325" y="1310" type="line"/>
      <point x="1547" y="1310" type="line"/>
      <point x="1319" y="0" type="line"/>
      <point x="1151" y="0" type="line"/>
      <point x="1241" y="518" type="line"/>
      <point x="1348" y="1046" type="line"/>
      <point x="754" y="0" type="line"/>
      <point x="625" y="0" type="line"/>
      <point x="391" y="1067" type="line"/>
      <point x="310" y="501" type="line"/>
      <point x="222" y="0" type="line"/>
      <point x="53" y="0" type="line"/>
      <point x="281" y="1310" type="line"/>
    </contour>
  </outline>
</glyph>
<glyph name="N" format="1">
  <advance width="1283"/>
  <unicode hex="004E"/>
  <outline>
    <contour>
      <point x="1031" y="0" type="line"/>
      <point x="868" y="0" type="line"/>
      <point x="400" y="1017" type="line"/>
      <point x="223" y="0" type="line"/>
      <point x="53" y="0" type="line"/>
      <point x="281" y="1310" type="line"/>
      <point x="445" y="1310" type="line"/>
      <point x="914" y="289" type="line"/>
      <point x="1091" y="1310" type="line"/>
      <point x="1259" y="1310" type="line"/>
    </contour>
  </outline>
</glyph>
<glyph name="O" format="1">
  <advance width="1238"/>
  <unicode hex="004F"/>
  <outline>
    <contour>
      <point x="534" y="-20" type="qcurve" smooth="yes"/>
      <point x="409" y="-17"/>
      <point x="224" y="98"/>
      <point x="171" y="210" type="qcurve" smooth="yes" name="inserted"/>
      <point x="144" y="266" name="inserted"/>
      <point x="115" y="392"/>
      <point x="113" y="461" type="qcurve" smooth="yes"/>
      <point x="107" y="570"/>
      <point x="167" y="891"/>
      <point x="239" y="1019" type="qcurve" smooth="yes" name="inserted"/>
      <point x="276" y="1084" name="inserted"/>
      <point x="365" y="1187"/>
      <point x="417" y="1226" type="qcurve" smooth="yes"/>
      <point x="487" y="1278" name="inserted"/>
      <point x="648" y="1328"/>
      <point x="739" y="1326" type="qcurve" smooth="yes"/>
      <point x="931" y="1323"/>
      <point x="1152" y="1064"/>
      <point x="1160" y="844" type="qcurve" smooth="yes"/>
      <point x="1164" y="749"/>
      <point x="1118" y="458"/>
      <point x="1059" y="333" type="qcurve" smooth="yes" name="inserted"/>
      <point x="1029" y="270" name="inserted"/>
      <point x="954" y="165"/>
      <point x="909" y="123" type="qcurve" smooth="yes"/>
      <point x="830" y="49" name="inserted"/>
      <point x="642" y="-22"/>
    </contour>
    <contour>
      <point x="994" y="803" type="qcurve" smooth="yes"/>
      <point x="999" y="980"/>
      <point x="864" y="1175"/>
      <point x="731" y="1179" type="qcurve" smooth="yes"/>
      <point x="610" y="1182"/>
      <point x="420" y="1046"/>
      <point x="360" y="909" type="qcurve" smooth="yes" name="inserted"/>
      <point x="329" y="841" name="inserted"/>
      <point x="291" y="668"/>
      <point x="283" y="564" type="qcurve" smooth="yes"/>
      <point x="280" y="506" type="line" smooth="yes"/>
      <point x="275" y="329"/>
      <point x="411" y="129"/>
      <point x="542" y="126" type="qcurve" smooth="yes"/>
      <point x="712" y="121"/>
      <point x="936" y="376"/>
      <point x="973" y="606" type="qcurve" smooth="yes"/>
      <point x="982" y="663" name="inserted"/>
      <point x="992" y="761"/>
    </contour>
  </outline>
</glyph>
<glyph name="P" format="1">
  <advance width="1137"/>
  <unicode hex="0050"/>
  <outline>
    <contour>
      <point x="311" y="513" type="line"/>
      <point x="222" y="0" type="line"/>
      <point x="53" y="0" type="line"/>
      <point x="281" y="1310" type="line"/>
      <point x="718" y="1310" type="line" smooth="yes"/>
      <point x="921" y="1310"/>
      <point x="1140" y="1094"/>
      <point x="1125" y="916" type="qcurve" smooth="yes"/>
      <point x="1109" y="728"/>
      <point x="842" y="512"/>
      <point x="623" y="512" type="qcurve" smooth="yes"/>
    </contour>
    <contour>
      <point x="336" y="654" type="line"/>
      <point x="627" y="653" type="line" smooth="yes"/>
      <point x="765" y="653"/>
      <point x="941" y="792"/>
      <point x="957" y="915" type="qcurve" smooth="yes"/>
      <point x="971" y="1026"/>
      <point x="851" y="1164"/>
      <point x="735" y="1167" type="qcurve" smooth="yes"/>
      <point x="425" y="1168" type="line"/>
    </contour>
  </outline>
</glyph>
<glyph name="Q" format="1">
  <advance width="1238"/>
  <unicode hex="0051"/>
  <outline>
    <contour>
      <point x="816" y="44" type="qcurve"/>
      <point x="1012" y="-144" type="line"/>
      <point x="887" y="-246" type="line"/>
      <point x="658" y="-27" type="line"/>
      <point x="625" y="-34" name="inserted"/>
      <point x="558" y="-42"/>
      <point x="525" y="-42" type="qcurve" smooth="yes"/>
      <point x="401" y="-41"/>
      <point x="214" y="77"/>
      <point x="162" y="188" type="qcurve" smooth="yes" name="inserted"/>
      <point x="137" y="244" name="inserted"/>
      <point x="108" y="370"/>
      <point x="105" y="440" type="qcurve" smooth="yes"/>
      <point x="100" y="553"/>
      <point x="158" y="867"/>
      <point x="230" y="994" type="qcurve" smooth="yes" name="inserted"/>
      <point x="265" y="1057" name="inserted"/>
      <point x="351" y="1159"/>
      <point x="401" y="1198" type="qcurve" smooth="yes"/>
      <point x="473" y="1253" name="inserted"/>
      <point x="638" y="1306"/>
      <point x="731" y="1304" type="qcurve" smooth="yes"/>
      <point x="858" y="1301"/>
      <point x="1045" y="1184"/>
      <point x="1096" y="1073" type="qcurve" smooth="yes" name="inserted"/>
      <point x="1122" y="1017" name="inserted"/>
      <point x="1150" y="892"/>
      <point x="1153" y="821" type="qcurve" smooth="yes"/>
      <point x="1154" y="784" name="inserted"/>
      <point x="1151" y="708"/>
      <point x="1147" y="671" type="qcurve" smooth="yes"/>
      <point x="1136" y="595" type="line" smooth="yes"/>
      <point x="1108" y="401" name="inserted"/>
      <point x="948" y="125"/>
    </contour>
    <contour>
      <point x="986" y="780" type="qcurve" smooth="yes"/>
      <point x="992" y="960"/>
      <point x="855" y="1153"/>
      <point x="724" y="1156" type="qcurve" smooth="yes"/>
      <point x="603" y="1160"/>
      <point x="413" y="1023"/>
      <point x="352" y="887" type="qcurve" smooth="yes" name="inserted"/>
      <point x="322" y="818" name="inserted"/>
      <point x="284" y="646"/>
      <point x="275" y="542" type="qcurve" smooth="yes"/>
      <point x="273" y="483" type="line" smooth="yes"/>
      <point x="269" y="380"/>
      <point x="325" y="200"/>
      <point x="386" y="153" type="qcurve" smooth="yes" name="inserted"/>
      <point x="416" y="129" name="inserted"/>
      <point x="491" y="105"/>
      <point x="535" y="103" type="qcurve" smooth="yes"/>
      <point x="700" y="97"/>
      <point x="926" y="349"/>
      <point x="964" y="578" type="qcurve" smooth="yes"/>
      <point x="973" y="636" name="inserted"/>
      <point x="984" y="736"/>
    </contour>
  </outline>
</glyph>
<glyph name="R" format="1">
  <advance width="1110"/>
  <unicode hex="0052"/>
  <outline>
    <contour>
      <point x="617" y="530" type="line"/>
      <point x="314" y="530" type="line"/>
      <point x="222" y="0" type="line"/>
      <point x="52" y="0" type="line"/>
      <point x="280" y="1310" type="line"/>
      <point x="674" y="1310" type="line" smooth="yes"/>
      <point x="880" y="1309"/>
      <point x="1096" y="1102"/>
      <point x="1079" y="923" type="qcurve" smooth="yes"/>
      <point x="1069" y="800"/>
      <point x="910" y="613"/>
      <point x="778" y="565" type="qcurve"/>
      <point x="981" y="12" type="line"/>
      <point x="980" y="0" type="line"/>
      <point x="800" y="0" type="line"/>
    </contour>
    <contour>
      <point x="338" y="671" type="line"/>
      <point x="587" y="671" type="line" smooth="yes"/>
      <point x="716" y="671"/>
      <point x="895" y="808"/>
      <point x="910" y="923" type="qcurve" smooth="yes"/>
      <point x="923" y="1036"/>
      <point x="806" y="1164"/>
      <point x="687" y="1167" type="qcurve" smooth="yes"/>
      <point x="425" y="1168" type="line"/>
    </contour>
  </outline>
</glyph>
<glyph name="S" format="1">
  <advance width="1070"/>
  <unicode hex="0053"/>
  <outline>
    <contour>
      <point x="789" y="335" type="qcurve" smooth="yes"/>
      <point x="799" y="407" name="inserted"/>
      <point x="725" y="513"/>
      <point x="640" y="546" type="qcurve" smooth="yes"/>
      <point x="484" y="603" type="line"/>
      <point x="432" y="625" type="line" smooth="yes"/>
      <point x="301" y="685" name="inserted"/>
      <point x="178" y="853"/>
      <point x="186" y="962" type="qcurve" smooth="yes"/>
      <point x="195" y="1071"/>
      <point x="327" y="1238"/>
      <point x="435" y="1284" type="qcurve" smooth="yes" name="inserted"/>
      <point x="489" y="1306" name="inserted"/>
      <point x="605" y="1328"/>
      <point x="666" y="1326" type="qcurve" smooth="yes"/>
      <point x="785" y="1324"/>
      <point x="971" y="1223"/>
      <point x="1020" y="1132" type="qcurve" smooth="yes" name="inserted"/>
      <point x="1044" y="1087" name="inserted"/>
      <point x="1066" y="985"/>
      <point x="1063" y="929" type="qcurve"/>
      <point x="893" y="929" type="line"/>
      <point x="902" y="1050"/>
      <point x="776" y="1182"/>
      <point x="659" y="1184" type="qcurve" smooth="yes"/>
      <point x="536" y="1186"/>
      <point x="370" y="1067"/>
      <point x="357" y="965" type="qcurve" smooth="yes"/>
      <point x="348" y="898" name="inserted"/>
      <point x="431" y="796"/>
      <point x="522" y="761" type="qcurve" smooth="yes"/>
      <point x="656" y="713" type="line"/>
      <point x="724" y="685" type="line" smooth="yes"/>
      <point x="851" y="626" name="inserted"/>
      <point x="968" y="452"/>
      <point x="959" y="337" type="qcurve" smooth="yes"/>
      <point x="949" y="227"/>
      <point x="819" y="65"/>
      <point x="708" y="21" type="qcurve" smooth="yes" name="inserted"/>
      <point x="652" y="-1" name="inserted"/>
      <point x="533" y="-21"/>
      <point x="469" y="-20" type="qcurve" smooth="yes"/>
      <point x="346" y="-19"/>
      <point x="141" y="84"/>
      <point x="88" y="174" type="qcurve" smooth="yes" name="inserted"/>
      <point x="62" y="219" name="inserted"/>
      <point x="38" y="322"/>
      <point x="41" y="379" type="qcurve"/>
      <point x="211" y="378" type="line"/>
      <point x="203" y="261"/>
      <point x="346" y="123"/>
      <point x="476" y="121" type="qcurve" smooth="yes" name="inserted"/>
      <point x="607" y="119"/>
      <point x="776" y="236"/>
    </contour>
  </outline>
</glyph>
<glyph name="T" format="1">
  <advance width="1076"/>
  <unicode hex="0054"/>
  <outline>
    <contour>
      <point x="1135" y="1168" type="line"/>
      <point x="727" y="1168" type="line"/>
      <point x="525" y="0" type="line"/>
      <point x="356" y="0" type="line"/>
      <point x="559" y="1168" type="line"/>
      <point x="151" y="1168" type="line"/>
      <point x="176" y="1310" type="line"/>
      <point x="1160" y="1310" type="line"/>
    </contour>
  </outline>
</glyph>
<glyph name="U" format="1">
  <advance width="1168"/>
  <unicode hex="0055"/>
  <outline>
    <contour>
      <point x="1181" y="1308" type="line"/>
      <point x="1030" y="422" type="line" smooth="yes"/>
      <point x="999" y="217"/>
      <point x="707" y="-25"/>
      <point x="501" y="-21" type="qcurve" smooth="yes"/>
      <point x="373" y="-18"/>
      <point x="183" y="92"/>
      <point x="138" y="193" type="qcurve" smooth="yes" name="inserted"/>
      <point x="115" y="243" name="inserted"/>
      <point x="100" y="357"/>
      <point x="108" y="421" type="qcurve" smooth="yes"/>
      <point x="259" y="1308" type="line"/>
      <point x="426" y="1308" type="line"/>
      <point x="275" y="420" type="line"/>
      <point x="260" y="282"/>
      <point x="384" y="125"/>
      <point x="510" y="121" type="qcurve" smooth="yes"/>
      <point x="647" y="116"/>
      <point x="835" y="275"/>
      <point x="860" y="419" type="qcurve" smooth="yes"/>
      <point x="1011" y="1308" type="line"/>
    </contour>
  </outline>
</glyph>
<glyph name="W" format="1">
  <advance width="1595"/>
  <unicode hex="0057"/>
  <outline>
    <contour>
      <point x="401" y="404" type="line"/>
      <point x="398" y="246" type="line"/>
      <point x="459" y="401" type="line"/>
      <point x="851" y="1310" type="line"/>
      <point x="994" y="1310" type="line"/>
      <point x="1097" y="389" type="line"/>
      <point x="1106" y="239" type="line"/>
      <point x="1163" y="420" type="line"/>
      <point x="1498" y="1310" type="line"/>
      <point x="1671" y="1310" type="line"/>
      <point x="1158" y="0" type="line"/>
      <point x="1004" y="0" type="line"/>
      <point x="891" y="962" type="line"/>
      <point x="887" y="1052" type="line"/>
      <point x="850" y="948" type="line"/>
      <point x="432" y="0" type="line"/>
      <point x="278" y="0" type="line"/>
      <point x="176" y="1310" type="line"/>
      <point x="340" y="1310" type="line"/>
    </contour>
  </outline>
</glyph>
<glyph name="X" format="1">
  <advance width="1130"/>
  <unicode hex="0058"/>
  <outline>
    <contour>
      <point x="599" y="809" type="line"/>
      <point x="982" y="1310" type="line"/>
      <point x="1191" y="1310" type="line"/>
      <point x="680" y="653" type="line"/>
      <point x="986" y="0" type="line"/>
      <point x="796" y="0" type="line"/>
      <point x="563" y="510" type="line"/>
      <point x="169" y="0" type="line"/>
      <point x="-40" y="0" type="line"/>
      <point x="482" y="669" type="line"/>
      <point x="185" y="1310" type="line"/>
      <point x="372" y="1310" type="line"/>
    </contour>
  </outline>
</glyph>
<glyph name="Y" format="1">
  <advance width="1083"/>
  <unicode hex="0059"/>
  <outline>
    <contour>
      <point x="550" y="653" type="line"/>
      <point x="995" y="1310" type="line"/>
      <point x="1197" y="1310" type="line"/>
      <point x="609" y="480" type="line"/>
      <point x="526" y="0" type="line"/>
      <point x="357" y="0" type="line"/>
      <point x="444" y="499" type="line"/>
      <point x="151" y="1310" type="line"/>
      <point x="335" y="1310" type="line"/>
    </contour>
  </outline>
</glyph>
<glyph name="Z" format="1">
  <advance width="1079"/>
  <unicode hex="005A"/>
  <outline>
    <contour>
      <point x="211" y="141" type="line"/>
      <point x="932" y="141" type="line"/>
      <point x="907" y="0" type="line"/>
      <point x="-19" y="0" type="line"/>
      <point x="5" y="139" type="line"/>
      <point x="875" y="1168" type="line"/>
      <point x="194" y="1168" type="line"/>
      <point x="220" y="1310" type="line"/>
      <point x="1107" y="1310" type="line"/>
      <point x="1084" y="1175" type="line"/>
    </contour>
  </outline>
</glyph>
<glyph name="a" format="1">
  <advance width="982"/>
  <unicode hex="0061"/>
  <outline>
    <contour>
      <point x="624" y="-2" type="line"/>
      <point x="621" y="11" name="inserted"/>
      <point x="617" y="37"/>
      <point x="617" y="49" type="qcurve"/>
      <point x="620" y="101" type="line"/>
      <point x="553" y="38" name="inserted"/>
      <point x="411" y="-22"/>
      <point x="336" y="-20" type="qcurve" smooth="yes"/>
      <point x="207" y="-18"/>
      <point x="46" y="141"/>
      <point x="53" y="261" type="qcurve" smooth="yes"/>
      <point x="62" y="416"/>
      <point x="315" y="589"/>
      <point x="521" y="589" type="qcurve" smooth="yes"/>
      <point x="691" y="588" type="line"/>
      <point x="702" y="666" type="line" smooth="yes"/>
      <point x="711" y="753"/>
      <point x="626" y="855"/>
      <point x="540" y="857" type="qcurve" smooth="yes"/>
      <point x="456" y="858"/>
      <point x="328" y="773"/>
      <point x="313" y="703" type="qcurve"/>
      <point x="149" y="702" type="line"/>
      <point x="158" y="787"/>
      <point x="275" y="920"/>
      <point x="366" y="956" type="qcurve" smooth="yes" name="inserted"/>
      <point x="412" y="974" name="inserted"/>
      <point x="507" y="992"/>
      <point x="556" y="991" type="qcurve" smooth="yes"/>
      <point x="708" y="987"/>
      <point x="878" y="810"/>
      <point x="864" y="663" type="qcurve"/>
      <point x="785" y="181" type="line"/>
      <point x="780" y="111" type="line" smooth="yes"/>
      <point x="779" y="87" name="inserted"/>
      <point x="785" y="38"/>
      <point x="791" y="13" type="qcurve"/>
      <point x="789" y="-2" type="line"/>
    </contour>
    <contour>
      <point x="368" y="124" type="qcurve" smooth="yes"/>
      <point x="446" y="122"/>
      <point x="586" y="200"/>
      <point x="636" y="270" type="qcurve"/>
      <point x="671" y="470" type="line"/>
      <point x="548" y="471" type="line" smooth="yes"/>
      <point x="394" y="471"/>
      <point x="230" y="374"/>
      <point x="220" y="285" type="qcurve" smooth="yes"/>
      <point x="212" y="217"/>
      <point x="292" y="126"/>
    </contour>
  </outline>
</glyph>
<glyph name="b" format="1">
  <advance width="1013"/>
  <unicode hex="0062"/>
  <outline>
    <contour>
      <point x="912" y="480" type="line" smooth="yes"/>
      <point x="894" y="331"/>
      <point x="766" y="91"/>
      <point x="675" y="34" type="qcurve" smooth="yes" name="inserted"/>
      <point x="630" y="5" name="inserted"/>
      <point x="529" y="-22"/>
      <point x="473" y="-21" type="qcurve" smooth="yes"/>
      <point x="385" y="-19" name="inserted"/>
      <point x="254" y="47"/>
      <point x="212" y="111" type="qcurve"/>
      <point x="178" y="-2" type="line"/>
      <point x="28" y="-2" type="line"/>
      <point x="268" y="1380" type="line"/>
      <point x="431" y="1380" type="line"/>
      <point x="333" y="864" type="line"/>
      <point x="392" y="928" name="inserted"/>
      <point x="534" y="991"/>
      <point x="617" y="990" type="qcurve" smooth="yes"/>
      <point x="758" y="986"/>
      <point x="914" y="786"/>
      <point x="919" y="611" type="qcurve" smooth="yes"/>
      <point x="919" y="582" name="inserted"/>
      <point x="917" y="526"/>
      <point x="914" y="499" type="qcurve" smooth="yes"/>
    </contour>
    <contour>
      <point x="757" y="575" type="qcurve" smooth="yes"/>
      <point x="760" y="706"/>
      <point x="666" y="846"/>
      <point x="570" y="849" type="qcurve" smooth="yes"/>
      <point x="494" y="851" name="inserted"/>
      <point x="365" y="775"/>
      <point x="312" y="696" type="qcurve"/>
      <point x="239" y="272" type="line"/>
      <point x="266" y="198" name="inserted"/>
      <point x="368" y="122"/>
      <point x="442" y="120" type="qcurve" smooth="yes"/>
      <point x="537" y="117"/>
      <point x="680" y="237"/>
      <point x="717" y="346" type="qcurve" smooth="yes" name="inserted"/>
      <point x="736" y="400" name="inserted"/>
      <point x="756" y="514"/>
    </contour>
  </outline>
</glyph>
<glyph name="c" format="1">
  <advance width="945.0"/>
  <unicode hex="0063"/>
  <outline>
    <contour>
      <point x="439" y="115" type="qcurve" smooth="yes"/>
      <point x="527" y="113"/>
      <point x="667" y="218"/>
      <point x="689" y="304" type="qcurve"/>
      <point x="842" y="305" type="line"/>
      <point x="829" y="213"/>
      <point x="709" y="62"/>
      <point x="618" y="20" type="qcurve" smooth="yes" name="inserted"/>
      <point x="573" y="-2" name="inserted"/>
      <point x="480" y="-21"/>
      <point x="432" y="-20" type="qcurve" smooth="yes"/>
      <point x="311" y="-18"/>
      <point x="142" y="105"/>
      <point x="103" y="215" type="qcurve" smooth="yes" name="inserted"/>
      <point x="83" y="270" name="inserted"/>
      <point x="69" y="394"/>
      <point x="76" y="463" type="qcurve" smooth="yes"/>
      <point x="80" y="508" type="line" smooth="yes"/>
      <point x="97" y="649"/>
      <point x="227" y="870"/>
      <point x="331" y="932" type="qcurve" smooth="yes" name="inserted"/>
      <point x="383" y="963" name="inserted"/>
      <point x="499" y="992"/>
      <point x="562" y="990" type="qcurve" smooth="yes"/>
      <point x="715" y="986"/>
      <point x="898" y="788"/>
      <point x="898" y="636" type="qcurve"/>
      <point x="746" y="637" type="line"/>
      <point x="744" y="732"/>
      <point x="642" y="850"/>
      <point x="554" y="854" type="qcurve" smooth="yes"/>
      <point x="428" y="857"/>
      <point x="259" y="662"/>
      <point x="239" y="488" type="qcurve" smooth="yes"/>
      <point x="236" y="464" type="line" smooth="yes"/>
      <point x="233" y="435" name="inserted"/>
      <point x="232" y="376"/>
      <point x="234" y="345" type="qcurve" smooth="yes"/>
      <point x="240" y="240"/>
      <point x="347" y="118"/>
    </contour>
  </outline>
</glyph>
<glyph name="d" format="1">
  <advance width="1017.0"/>
  <unicode hex="0064"/>
  <outline>
    <contour>
      <point x="75" y="487" type="qcurve" smooth="yes"/>
      <point x="93" y="635"/>
      <point x="221" y="875"/>
      <point x="314" y="934" type="qcurve" smooth="yes" name="inserted"/>
      <point x="361" y="964" name="inserted"/>
      <point x="464" y="992"/>
      <point x="520" y="991" type="qcurve" smooth="yes"/>
      <point x="602" y="989" name="inserted"/>
      <point x="727" y="929"/>
      <point x="770" y="872" type="qcurve"/>
      <point x="864" y="1380" type="line"/>
      <point x="1027" y="1380" type="line"/>
      <point x="788" y="-2" type="line"/>
      <point x="639" y="-2" type="line"/>
      <point x="656" y="102" type="line"/>
      <point x="599" y="39" name="inserted"/>
      <point x="456" y="-22"/>
      <point x="372" y="-20" type="qcurve" smooth="yes"/>
      <point x="237" y="-16"/>
      <point x="77" y="188"/>
      <point x="70" y="360" type="qcurve" smooth="yes"/>
      <point x="69" y="386" name="inserted"/>
      <point x="71" y="450"/>
    </contour>
    <contour>
      <point x="231" y="393" type="qcurve" smooth="yes"/>
      <point x="229" y="264"/>
      <point x="326" y="122"/>
      <point x="419" y="120" type="qcurve" smooth="yes"/>
      <point x="490" y="117" name="inserted"/>
      <point x="616" y="188"/>
      <point x="671" y="263" type="qcurve"/>
      <point x="748" y="713" type="line"/>
      <point x="721" y="779" name="inserted"/>
      <point x="623" y="848"/>
      <point x="552" y="849" type="qcurve" smooth="yes"/>
      <point x="455" y="852"/>
      <point x="309" y="731"/>
      <point x="270" y="621" type="qcurve" smooth="yes" name="inserted"/>
      <point x="251" y="567" name="inserted"/>
      <point x="232" y="452"/>
    </contour>
  </outline>
</glyph>
<glyph name="e" format="1">
  <advance width="956"/>
  <unicode hex="0065"/>
  <outline>
    <contour>
      <point x="449" y="-20" type="qcurve" smooth="yes"/>
      <point x="267" y="-16"/>
      <point x="62" y="245"/>
      <point x="78" y="448" type="qcurve" smooth="yes"/>
      <point x="83" y="487" type="line" smooth="yes"/>
      <point x="98" y="632"/>
      <point x="239" y="871"/>
      <point x="341" y="932" type="qcurve" smooth="yes" name="inserted"/>
      <point x="392" y="962" name="inserted"/>
      <point x="502" y="991"/>
      <point x="561" y="990" type="qcurve" smooth="yes"/>
      <point x="711" y="986"/>
      <point x="882" y="794"/>
      <point x="890" y="629" type="qcurve" smooth="yes"/>
      <point x="891" y="600" name="inserted"/>
      <point x="890" y="541"/>
      <point x="887" y="512" type="qcurve" smooth="yes"/>
      <point x="877" y="437" type="line"/>
      <point x="240" y="437" type="line"/>
      <point x="224" y="305"/>
      <point x="344" y="119"/>
      <point x="463" y="116" type="qcurve" smooth="yes"/>
      <point x="535" y="114" name="inserted"/>
      <point x="668" y="179"/>
      <point x="729" y="245" type="qcurve"/>
      <point x="823" y="166" type="line"/>
      <point x="761" y="78"/>
      <point x="568" y="-22"/>
    </contour>
    <contour>
      <point x="553" y="854" type="qcurve" smooth="yes"/>
      <point x="452" y="857"/>
      <point x="302" y="714"/>
      <point x="257" y="574" type="qcurve"/>
      <point x="731" y="573" type="line"/>
      <point x="734" y="587" type="line"/>
      <point x="749" y="701"/>
      <point x="647" y="851"/>
    </contour>
  </outline>
</glyph>
<glyph name="f" format="1">
  <advance width="630.0"/>
  <unicode hex="0066"/>
  <outline>
    <contour>
      <point x="107" y="0" type="line"/>
      <point x="255" y="845" type="line"/>
      <point x="104" y="845" type="line"/>
      <point x="127" y="974" type="line"/>
      <point x="276" y="974" type="line"/>
      <point x="293" y="1089" type="line" smooth="yes"/>
      <point x="304" y="1162" name="inserted"/>
      <point x="361" y="1277"/>
      <point x="406" y="1319" type="qcurve" smooth="yes"/>
      <point x="453" y="1362" name="inserted"/>
      <point x="574" y="1404"/>
      <point x="647" y="1403" type="qcurve" smooth="yes"/>
      <point x="670" y="1403" name="inserted"/>
      <point x="728" y="1395"/>
      <point x="763" y="1388" type="qcurve"/>
      <point x="743" y="1252" type="line"/>
      <point x="722" y="1256" name="inserted"/>
      <point x="678" y="1262"/>
      <point x="656" y="1263" type="qcurve" smooth="yes"/>
      <point x="572" y="1263"/>
      <point x="466" y="1157"/>
      <point x="454" y="1070" type="qcurve" smooth="yes"/>
      <point x="439" y="974" type="line"/>
      <point x="641" y="974" type="line"/>
      <point x="618" y="845" type="line"/>
      <point x="417" y="845" type="line"/>
      <point x="270" y="0" type="line"/>
    </contour>
  </outline>
</glyph>
<glyph name="g" format="1">
  <advance width="1013"/>
  <unicode hex="0067"/>
  <outline>
    <contour>
      <point x="76" y="446" type="qcurve" smooth="yes"/>
      <point x="97" y="605"/>
      <point x="226" y="840"/>
      <point x="318" y="896" type="qcurve" smooth="yes" name="inserted"/>
      <point x="364" y="925" name="inserted"/>
      <point x="465" y="951"/>
      <point x="520" y="950" type="qcurve" smooth="yes"/>
      <point x="605" y="948" name="inserted"/>
      <point x="733" y="884"/>
      <point x="776" y="822" type="qcurve"/>
      <point x="808" y="931" type="line"/>
      <point x="958" y="931" type="line"/>
      <point x="796" y="-22" type="line" smooth="yes"/>
      <point x="770" y="-208"/>
      <point x="519" y="-432"/>
      <point x="336" y="-427" type="qcurve" smooth="yes"/>
      <point x="237" y="-425"/>
      <point x="56" y="-335"/>
      <point x="4" y="-257" type="qcurve"/>
      <point x="96" y="-157" type="line"/>
      <point x="140" y="-222" name="inserted"/>
      <point x="257" y="-289"/>
      <point x="329" y="-291" type="qcurve" smooth="yes"/>
      <point x="446" y="-295"/>
      <point x="607" y="-158"/>
      <point x="633" y="-32" type="qcurve" smooth="yes"/>
      <point x="651" y="54" type="line"/>
      <point x="591" y="-5" name="inserted"/>
      <point x="452" y="-63"/>
      <point x="373" y="-61" type="qcurve" smooth="yes"/>
      <point x="282" y="-58"/>
      <point x="148" y="35"/>
      <point x="111" y="122" type="qcurve" smooth="yes" name="inserted"/>
      <point x="92" y="166" name="inserted"/>
      <point x="72" y="264"/>
      <point x="70" y="318" type="qcurve" smooth="yes"/>
      <point x="69" y="345" name="inserted"/>
      <point x="72" y="409"/>
    </contour>
    <contour>
      <point x="233" y="353" type="line" smooth="yes"/>
      <point x="230" y="225"/>
      <point x="325" y="83"/>
      <point x="420" y="80" type="qcurve" smooth="yes"/>
      <point x="493" y="78" name="inserted"/>
      <point x="619" y="149"/>
      <point x="671" y="223" type="qcurve"/>
      <point x="748" y="670" type="line"/>
      <point x="721" y="737" name="inserted"/>
      <point x="623" y="806"/>
      <point x="553" y="809" type="qcurve" smooth="yes"/>
      <point x="420" y="812"/>
      <point x="250" y="589"/>
      <point x="235" y="399" type="qcurve" smooth="yes"/>
    </contour>
  </outline>
</glyph>
<glyph name="h" format="1">
  <advance width="994"/>
  <unicode hex="0068"/>
  <outline>
    <contour>
      <point x="332" y="855" type="line"/>
      <point x="396" y="925" name="inserted"/>
      <point x="543" y="993"/>
      <point x="626" y="991" type="qcurve" smooth="yes"/>
      <point x="763" y="989"/>
      <point x="896" y="805"/>
      <point x="878" y="638" type="qcurve"/>
      <point x="772" y="0" type="line"/>
      <point x="609" y="0" type="line"/>
      <point x="716" y="641" type="line" smooth="yes"/>
      <point x="719" y="663" name="inserted"/>
      <point x="720" y="704"/>
      <point x="717" y="723" type="qcurve" smooth="yes"/>
      <point x="710" y="786" name="inserted"/>
      <point x="635" y="850"/>
      <point x="569" y="851" type="qcurve" smooth="yes"/>
      <point x="494" y="853" name="inserted"/>
      <point x="365" y="775"/>
      <point x="311" y="695" type="qcurve"/>
      <point x="191" y="0" type="line"/>
      <point x="28" y="0" type="line"/>
      <point x="268" y="1382" type="line"/>
      <point x="431" y="1382" type="line"/>
    </contour>
  </outline>
</glyph>
<glyph name="i" format="1">
  <advance width="443"/>
  <unicode hex="0069"/>
  <outline>
    <contour>
      <point x="204" y="0" type="line"/>
      <point x="42" y="0" type="line"/>
      <point x="212" y="974" type="line"/>
      <point x="374" y="974" type="line"/>
    </contour>
    <contour>
      <point x="338" y="1329" type="qcurve" smooth="yes"/>
      <point x="380" y="1331"/>
      <point x="435" y="1278"/>
      <point x="435" y="1235" type="qcurve"/>
      <point x="434" y="1193"/>
      <point x="381" y="1139"/>
      <point x="338" y="1137" type="qcurve" smooth="yes" name="inserted"/>
      <point x="296" y="1135"/>
      <point x="242" y="1187"/>
      <point x="243" y="1229" type="qcurve" smooth="yes" name="inserted"/>
      <point x="244" y="1272"/>
      <point x="296" y="1328"/>
    </contour>
  </outline>
</glyph>
<glyph name="j" format="1">
  <advance width="436"/>
  <unicode hex="006A"/>
  <outline>
    <contour>
      <point x="365" y="930" type="line"/>
      <point x="181" y="-160" type="line" smooth="yes"/>
      <point x="163" y="-298"/>
      <point x="14" y="-442"/>
      <point x="-105" y="-440" type="qcurve" smooth="yes"/>
      <point x="-129" y="-439" name="inserted"/>
      <point x="-183" y="-430"/>
      <point x="-212" y="-422" type="qcurve"/>
      <point x="-198" y="-289" type="line"/>
      <point x="-181" y="-293" name="inserted"/>
      <point x="-144" y="-298"/>
      <point x="-123" y="-299" type="qcurve" smooth="yes"/>
      <point x="-65" y="-299" name="inserted"/>
      <point x="5" y="-229"/>
      <point x="16" y="-160" type="qcurve" smooth="yes"/>
      <point x="203" y="930" type="line"/>
    </contour>
    <contour>
      <point x="230" y="1185" type="qcurve" smooth="yes"/>
      <point x="231" y="1228"/>
      <point x="283" y="1283"/>
      <point x="326" y="1285" type="qcurve" smooth="yes"/>
      <point x="367" y="1287"/>
      <point x="422" y="1232"/>
      <point x="422" y="1191" type="qcurve"/>
      <point x="421" y="1148"/>
      <point x="367" y="1094"/>
      <point x="325" y="1093" type="qcurve" smooth="yes"/>
      <point x="284" y="1091"/>
      <point x="230" y="1145"/>
    </contour>
  </outline>
</glyph>
<glyph name="k" format="1">
  <advance width="915"/>
  <unicode hex="006B"/>
  <outline>
    <contour>
      <point x="377" y="449" type="line"/>
      <point x="249" y="335" type="line"/>
      <point x="192" y="0" type="line"/>
      <point x="29" y="0" type="line"/>
      <point x="269" y="1382" type="line"/>
      <point x="432" y="1382" type="line"/>
      <point x="288" y="556" type="line"/>
      <point x="388" y="657" type="line"/>
      <point x="734" y="974" type="line"/>
      <point x="945" y="974" type="line"/>
      <point x="498" y="559" type="line"/>
      <point x="806" y="0" type="line"/>
      <point x="627" y="0" type="line"/>
    </contour>
  </outline>
</glyph>
<glyph name="l" format="1">
  <advance width="443"/>
  <unicode hex="006C"/>
  <outline>
    <contour>
      <point x="204" y="0" type="line"/>
      <point x="42" y="0" type="line"/>
      <point x="282" y="1382" type="line"/>
      <point x="445" y="1382" type="line"/>
    </contour>
  </outline>
</glyph>
<glyph name="m" format="1">
  <advance width="1576"/>
  <unicode hex="006D"/>
  <outline>
    <contour>
      <point x="349" y="975" type="line"/>
      <point x="329" y="866" type="line"/>
      <point x="390" y="931" name="inserted"/>
      <point x="538" y="994"/>
      <point x="625" y="992" type="qcurve" smooth="yes"/>
      <point x="717" y="990"/>
      <point x="846" y="909"/>
      <point x="870" y="835" type="qcurve"/>
      <point x="939" y="915" name="inserted"/>
      <point x="1100" y="994"/>
      <point x="1193" y="992" type="qcurve" smooth="yes"/>
      <point x="1339" y="988"/>
      <point x="1478" y="799"/>
      <point x="1460" y="640" type="qcurve"/>
      <point x="1353" y="0" type="line"/>
      <point x="1191" y="0" type="line"/>
      <point x="1297" y="642" type="line" smooth="yes"/>
      <point x="1300" y="665" name="inserted"/>
      <point x="1300" y="708"/>
      <point x="1297" y="727" type="qcurve" smooth="yes"/>
      <point x="1288" y="788" name="inserted"/>
      <point x="1208" y="851"/>
      <point x="1137" y="852" type="qcurve" smooth="yes"/>
      <point x="1048" y="854"/>
      <point x="903" y="740"/>
      <point x="882" y="647" type="qcurve"/>
      <point x="771" y="0" type="line"/>
      <point x="608" y="0" type="line"/>
      <point x="716" y="641" type="line"/>
      <point x="727" y="741"/>
      <point x="644" y="849"/>
      <point x="555" y="851" type="qcurve" smooth="yes"/>
      <point x="479" y="852" name="inserted"/>
      <point x="358" y="783"/>
      <point x="313" y="712" type="qcurve"/>
      <point x="190" y="0" type="line"/>
      <point x="27" y="0" type="line"/>
      <point x="196" y="974" type="line"/>
    </contour>
  </outline>
</glyph>
<glyph name="n" format="1">
  <advance width="995"/>
  <unicode hex="006E"/>
  <outline>
    <contour>
      <point x="351" y="975" type="line"/>
      <point x="328" y="851" type="line"/>
      <point x="393" y="923" name="inserted"/>
      <point x="543" y="994"/>
      <point x="626" y="992" type="qcurve" smooth="yes"/>
      <point x="764" y="988"/>
      <point x="896" y="805"/>
      <point x="878" y="638" type="qcurve"/>
      <point x="772" y="0" type="line"/>
      <point x="609" y="0" type="line"/>
      <point x="716" y="641" type="line" smooth="yes"/>
      <point x="719" y="663" name="inserted"/>
      <point x="720" y="704"/>
      <point x="717" y="723" type="qcurve" smooth="yes"/>
      <point x="710" y="786" name="inserted"/>
      <point x="635" y="850"/>
      <point x="569" y="851" type="qcurve" smooth="yes"/>
      <point x="495" y="853" name="inserted"/>
      <point x="367" y="774"/>
      <point x="311" y="695" type="qcurve"/>
      <point x="191" y="0" type="line"/>
      <point x="28" y="0" type="line"/>
      <point x="197" y="974" type="line"/>
    </contour>
  </outline>
</glyph>
<glyph name="o" format="1">
  <advance width="1029"/>
  <unicode hex="006F"/>
  <outline>
    <contour>
      <point x="569" y="990" type="qcurve" smooth="yes"/>
      <point x="691" y="988"/>
      <point x="866" y="858"/>
      <point x="908" y="745" type="qcurve" smooth="yes" name="inserted"/>
      <point x="929" y="688" name="inserted"/>
      <point x="943" y="563"/>
      <point x="936" y="496" type="qcurve" smooth="yes"/>
      <point x="934" y="476" type="line" smooth="yes"/>
      <point x="917" y="334"/>
      <point x="782" y="104"/>
      <point x="675" y="40" type="qcurve" smooth="yes" name="inserted"/>
      <point x="621" y="8" name="inserted"/>
      <point x="504" y="-22"/>
      <point x="440" y="-20" type="qcurve" smooth="yes"/>
      <point x="319" y="-18"/>
      <point x="143" y="111"/>
      <point x="103" y="223" type="qcurve" smooth="yes" name="inserted"/>
      <point x="82" y="279" name="inserted"/>
      <point x="68" y="402"/>
      <point x="74" y="469" type="qcurve" smooth="yes"/>
      <point x="87" y="620"/>
      <point x="224" y="861"/>
      <point x="332" y="927" type="qcurve" smooth="yes" name="inserted"/>
      <point x="385" y="960" name="inserted"/>
      <point x="504" y="992"/>
    </contour>
    <contour>
      <point x="238" y="468" type="line" smooth="yes"/>
      <point x="234" y="439" name="inserted"/>
      <point x="234" y="380"/>
      <point x="238" y="350" type="qcurve" smooth="yes"/>
      <point x="247" y="244"/>
      <point x="356" y="118"/>
      <point x="446" y="115" type="qcurve" smooth="yes"/>
      <point x="527" y="112"/>
      <point x="664" y="198"/>
      <point x="711" y="284" type="qcurve" smooth="yes" name="inserted"/>
      <point x="734" y="327" name="inserted"/>
      <point x="765" y="423"/>
      <point x="771" y="476" type="qcurve" smooth="yes"/>
      <point x="775" y="517" name="inserted"/>
      <point x="776" y="587"/>
      <point x="774" y="615" type="qcurve" smooth="yes"/>
      <point x="763" y="724"/>
      <point x="653" y="850"/>
      <point x="563" y="854" type="qcurve" smooth="yes"/>
      <point x="437" y="857"/>
      <point x="260" y="653"/>
      <point x="239" y="488" type="qcurve" smooth="yes"/>
    </contour>
  </outline>
</glyph>
<glyph name="p" format="1">
  <advance width="1013"/>
  <unicode hex="0070"/>
  <outline>
    <contour>
      <point x="910" y="441" type="line" smooth="yes"/>
      <point x="892" y="292"/>
      <point x="768" y="55"/>
      <point x="676" y="-4" type="qcurve" smooth="yes" name="inserted"/>
      <point x="630" y="-34" name="inserted"/>
      <point x="528" y="-62"/>
      <point x="473" y="-60" type="qcurve" smooth="yes"/>
      <point x="388" y="-59" name="inserted"/>
      <point x="258" y="-2"/>
      <point x="213" y="54" type="qcurve"/>
      <point x="126" y="-416" type="line"/>
      <point x="-37" y="-416" type="line"/>
      <point x="197" y="932" type="line"/>
      <point x="345" y="933" type="line"/>
      <point x="327" y="824" type="line"/>
      <point x="387" y="889" name="inserted"/>
      <point x="531" y="952"/>
      <point x="616" y="950" type="qcurve" smooth="yes"/>
      <point x="756" y="947"/>
      <point x="913" y="747"/>
      <point x="917" y="571" type="qcurve" smooth="yes"/>
      <point x="918" y="543" name="inserted"/>
      <point x="915" y="487"/>
      <point x="913" y="460" type="qcurve" smooth="yes"/>
    </contour>
    <contour>
      <point x="750" y="460" type="qcurve"/>
      <point x="754" y="535" type="line"/>
      <point x="754" y="667"/>
      <point x="654" y="806"/>
      <point x="560" y="810" type="qcurve" smooth="yes"/>
      <point x="489" y="812" name="inserted"/>
      <point x="367" y="745"/>
      <point x="316" y="676" type="qcurve"/>
      <point x="234" y="209" type="line"/>
      <point x="261" y="144" name="inserted"/>
      <point x="360" y="77"/>
      <point x="431" y="75" type="qcurve" smooth="yes"/>
      <point x="553" y="73"/>
      <point x="723" y="268"/>
    </contour>
  </outline>
</glyph>
<glyph name="q" format="1">
  <advance width="1025"/>
  <unicode hex="0071"/>
  <outline>
    <contour>
      <point x="527" y="951" type="qcurve" smooth="yes"/>
      <point x="609" y="949" name="inserted"/>
      <point x="734" y="890"/>
      <point x="778" y="833" type="qcurve"/>
      <point x="807" y="932" type="line"/>
      <point x="958" y="932" type="line"/>
      <point x="724" y="-416" type="line"/>
      <point x="562" y="-416" type="line"/>
      <point x="650" y="48" type="line"/>
      <point x="591" y="-7" name="inserted"/>
      <point x="455" y="-61"/>
      <point x="378" y="-60" type="qcurve" smooth="yes"/>
      <point x="241" y="-58"/>
      <point x="77" y="146"/>
      <point x="71" y="318" type="qcurve" smooth="yes"/>
      <point x="66" y="430"/>
      <point x="129" y="678"/>
      <point x="191" y="770" type="qcurve" smooth="yes" name="inserted"/>
      <point x="254" y="862"/>
      <point x="425" y="954"/>
    </contour>
    <contour>
      <point x="239" y="428" type="qcurve"/>
      <point x="234" y="353" type="line" smooth="yes"/>
      <point x="231" y="222"/>
      <point x="331" y="77"/>
      <point x="425" y="75" type="qcurve" smooth="yes"/>
      <point x="494" y="74" name="inserted"/>
      <point x="616" y="139"/>
      <point x="669" y="207" type="qcurve"/>
      <point x="753" y="686" type="line"/>
      <point x="724" y="748" name="inserted"/>
      <point x="626" y="813"/>
      <point x="559" y="814" type="qcurve" smooth="yes"/>
      <point x="436" y="817"/>
      <point x="266" y="623"/>
    </contour>
  </outline>
</glyph>
<glyph name="r" format="1">
  <advance width="614"/>
  <unicode hex="0072"/>
  <outline>
    <contour>
      <point x="634" y="825" type="line"/>
      <point x="557" y="833" type="line"/>
      <point x="479" y="833" name="inserted"/>
      <point x="356" y="763"/>
      <point x="311" y="692" type="qcurve"/>
      <point x="191" y="0" type="line"/>
      <point x="28" y="0" type="line"/>
      <point x="197" y="974" type="line"/>
      <point x="355" y="975" type="line"/>
      <point x="330" y="861" type="line"/>
      <point x="382" y="929" name="inserted"/>
      <point x="504" y="995"/>
      <point x="574" y="994" type="qcurve" smooth="yes"/>
      <point x="589" y="994" name="inserted"/>
      <point x="628" y="987"/>
      <point x="652" y="980" type="qcurve"/>
    </contour>
  </outline>
</glyph>
<glyph name="s" format="1">
  <advance width="931"/>
  <unicode hex="0073"/>
  <outline>
    <contour>
      <point x="631" y="262" type="qcurve" smooth="yes"/>
      <point x="638" y="312" name="inserted"/>
      <point x="582" y="383"/>
      <point x="520" y="404" type="qcurve" smooth="yes"/>
      <point x="351" y="453" type="line" smooth="yes"/>
      <point x="244" y="490" name="inserted"/>
      <point x="140" y="613"/>
      <point x="144" y="698" type="qcurve" smooth="yes"/>
      <point x="150" y="827"/>
      <point x="373" y="992"/>
      <point x="523" y="990" type="qcurve" smooth="yes"/>
      <point x="671" y="988"/>
      <point x="855" y="820"/>
      <point x="851" y="685" type="qcurve"/>
      <point x="689" y="686" type="line"/>
      <point x="691" y="758"/>
      <point x="596" y="850"/>
      <point x="517" y="852" type="qcurve" smooth="yes"/>
      <point x="474" y="853" name="inserted"/>
      <point x="401" y="832"/>
      <point x="371" y="811" type="qcurve" smooth="yes"/>
      <point x="342" y="790" name="inserted"/>
      <point x="310" y="737"/>
      <point x="305" y="704" type="qcurve" smooth="yes"/>
      <point x="299" y="662" name="inserted"/>
      <point x="351" y="601"/>
      <point x="409" y="581" type="qcurve"/>
      <point x="491" y="559" type="line" smooth="yes"/>
      <point x="658" y="515"/>
      <point x="798" y="377"/>
      <point x="793" y="274" type="qcurve" smooth="yes"/>
      <point x="788" y="183"/>
      <point x="680" y="48"/>
      <point x="590" y="13" type="qcurve" smooth="yes" name="inserted"/>
      <point x="545" y="-5" name="inserted"/>
      <point x="449" y="-21"/>
      <point x="398" y="-20" type="qcurve" smooth="yes"/>
      <point x="243" y="-18"/>
      <point x="41" y="159"/>
      <point x="45" y="299" type="qcurve"/>
      <point x="208" y="298" type="line"/>
      <point x="208" y="216"/>
      <point x="312" y="117"/>
      <point x="403" y="117" type="qcurve" smooth="yes"/>
      <point x="492" y="115"/>
      <point x="622" y="193"/>
    </contour>
  </outline>
</glyph>
<glyph name="t" format="1">
  <advance width="593"/>
  <unicode hex="0074"/>
  <outline>
    <contour>
      <point x="458" y="1208" type="line"/>
      <point x="417" y="972" type="line"/>
      <point x="594" y="972" type="line"/>
      <point x="572" y="843" type="line"/>
      <point x="395" y="843" type="line"/>
      <point x="293" y="238" type="line"/>
      <point x="292" y="226" name="inserted"/>
      <point x="292" y="204"/>
      <point x="293" y="194" type="qcurve" smooth="yes"/>
      <point x="296" y="159" name="inserted"/>
      <point x="334" y="124"/>
      <point x="369" y="124" type="qcurve" smooth="yes"/>
      <point x="384" y="124" name="inserted"/>
      <point x="423" y="129"/>
      <point x="448" y="133" type="qcurve"/>
      <point x="436" y="-3" type="line"/>
      <point x="406" y="-11" name="inserted"/>
      <point x="347" y="-19"/>
      <point x="317" y="-19" type="qcurve" smooth="yes"/>
      <point x="220" y="-17"/>
      <point x="122" y="122"/>
      <point x="133" y="240" type="qcurve"/>
      <point x="232" y="843" type="line"/>
      <point x="60" y="843" type="line"/>
      <point x="83" y="972" type="line"/>
      <point x="255" y="972" type="line"/>
      <point x="296" y="1208" type="line"/>
    </contour>
  </outline>
</glyph>
<glyph name="u" format="1">
  <advance width="995"/>
  <unicode hex="0075"/>
  <outline>
    <contour>
      <point x="646" y="94" type="line"/>
      <point x="589" y="35" name="inserted"/>
      <point x="444" y="-22"/>
      <point x="356" y="-20" type="qcurve" smooth="yes"/>
      <point x="216" y="-16"/>
      <point x="82" y="176"/>
      <point x="99" y="343" type="qcurve"/>
      <point x="203" y="972" type="line"/>
      <point x="366" y="972" type="line"/>
      <point x="261" y="340" type="line"/>
      <point x="259" y="320" name="inserted"/>
      <point x="258" y="281"/>
      <point x="259" y="263" type="qcurve" smooth="yes"/>
      <point x="264" y="198"/>
      <point x="332" y="124"/>
      <point x="393" y="121" type="qcurve" smooth="yes"/>
      <point x="481" y="119" name="inserted"/>
      <point x="616" y="189"/>
      <point x="663" y="263" type="qcurve"/>
      <point x="786" y="972" type="line"/>
      <point x="949" y="972" type="line"/>
      <point x="779" y="-2" type="line"/>
      <point x="626" y="-2" type="line"/>
    </contour>
  </outline>
</glyph>
<glyph name="v" format="1">
  <advance width="875"/>
  <unicode hex="0076"/>
  <outline>
    <contour>
      <point x="382" y="228" type="line"/>
      <point x="733" y="974" type="line"/>
      <point x="905" y="974" type="line"/>
      <point x="414" y="0" type="line"/>
      <point x="290" y="0" type="line"/>
      <point x="99" y="974" type="line"/>
      <point x="259" y="974" type="line"/>
    </contour>
  </outline>
</glyph>
<glyph name="w" format="1">
  <advance width="1353"/>
  <unicode hex="0077"/>
  <outline>
    <contour>
      <point x="902" y="230" type="line"/>
      <point x="1212" y="974" type="line"/>
      <point x="1381" y="974" type="line"/>
      <point x="937" y="0" type="line"/>
      <point x="805" y="0" type="line"/>
      <point x="704" y="736" type="line"/>
      <point x="353" y="0" type="line"/>
      <point x="221" y="0" type="line"/>
      <point x="115" y="974" type="line"/>
      <point x="271" y="974" type="line"/>
      <point x="330" y="248" type="line"/>
      <point x="676" y="974" type="line"/>
      <point x="807" y="974" type="line"/>
    </contour>
  </outline>
</glyph>
<glyph name="x" format="1">
  <advance width="896"/>
  <unicode hex="0078"/>
  <outline>
    <contour>
      <point x="446" y="619" type="line"/>
      <point x="711" y="974" type="line"/>
      <point x="911" y="974" type="line"/>
      <point x="520" y="484" type="line"/>
      <point x="758" y="0" type="line"/>
      <point x="581" y="0" type="line"/>
      <point x="419" y="364" type="line"/>
      <point x="145" y="0" type="line"/>
      <point x="-54" y="0" type="line"/>
      <point x="348" y="500" type="line"/>
      <point x="118" y="974" type="line"/>
      <point x="296" y="974" type="line"/>
    </contour>
  </outline>
</glyph>
<glyph name="y" format="1">
  <advance width="855.0"/>
  <unicode hex="0079"/>
  <outline>
    <contour>
      <point x="377" y="202" type="line"/>
      <point x="724" y="930" type="line"/>
      <point x="904" y="930" type="line"/>
      <point x="326" y="-206" type="line" smooth="yes"/>
      <point x="266" y="-324" name="inserted"/>
      <point x="111" y="-441"/>
      <point x="16" y="-440" type="qcurve" smooth="yes"/>
      <point x="0" y="-440" name="inserted"/>
      <point x="-50" y="-431"/>
      <point x="-82" y="-424" type="qcurve"/>
      <point x="-68" y="-289" type="line"/>
      <point x="-25" y="-293" type="line"/>
      <point x="52" y="-297"/>
      <point x="165" y="-220"/>
      <point x="208" y="-135" type="qcurve" smooth="yes"/>
      <point x="266" y="-23" type="line"/>
      <point x="98" y="930" type="line"/>
      <point x="268" y="930" type="line"/>
    </contour>
  </outline>
</glyph>
<glyph name="z" format="1">
  <advance width="896"/>
  <unicode hex="007A"/>
  <outline>
    <contour>
      <point x="211" y="136" type="line"/>
      <point x="758" y="136" type="line"/>
      <point x="734" y="0" type="line"/>
      <point x="-17" y="0" type="line"/>
      <point x="5" y="131" type="line"/>
      <point x="644" y="836" type="line"/>
      <point x="135" y="836" type="line"/>
      <point x="160" y="974" type="line"/>
      <point x="877" y="974" type="line"/>
      <point x="855" y="848" type="line"/>
    </contour>
  </outline>
</glyph>
<glyph name="uni02BC" format="1">
  <advance width="624"/>
  <unicode hex="02BC"/>
  <outline>
    <contour>
      <point x="721" y="1466" type="line"/>
      <point x="489" y="1008" type="line"/>
      <point x="334" y="1008" type="line"/>
      <point x="506" y="1497" type="line"/>
      <point x="711" y="1497" type="line"/>
    </contour>
  </outline>
</glyph>
<glyph name="invertedcandrabindu" format="1">
  <advance width="0.0"/>
  <unicode hex="0900"/>
  <outline>
    <component base="candrabindudeva" xScale="-1" yScale="-1" xOffset="-837" yOffset="3224"/>
    <contour>
      <point x="-145" y="1279" type="move" name="_top"/>
    </contour>
  </outline>
</glyph>
<glyph name="candrabindudeva" format="1">
  <advance width="0.0"/>
  <unicode hex="0901"/>
  <outline>
    <contour>
      <point x="-183" y="1658" type="line"/>
      <point x="-353" y="1658" type="line"/>
      <point x="-323" y="1840" type="line"/>
      <point x="-154" y="1840" type="line"/>
    </contour>
    <component base="ecandravowelsigndeva" xOffset="296"/>
    <contour>
      <point x="-143" y="1291" type="move" name="_top"/>
    </contour>
  </outline>
</glyph>
<glyph name="anusvaradeva" format="1">
  <advance width="0.0"/>
  <unicode hex="0902"/>
  <outline>
    <contour>
      <point x="31" y="1460" type="line"/>
      <point x="-139" y="1460" type="line"/>
      <point x="-109" y="1642" type="line"/>
      <point x="61" y="1642" type="line"/>
    </contour>
    <contour>
      <point x="-143" y="1291" type="move" name="_top"/>
    </contour>
  </outline>
</glyph>
<glyph name="adeva" format="1">
  <advance width="1398"/>
  <unicode hex="0905"/>
  <outline>
    <contour>
      <point x="330" y="631" type="qcurve"/>
      <point x="355" y="772" type="line"/>
      <point x="532" y="772"/>
      <point x="692" y="899"/>
      <point x="707" y="982" type="qcurve" smooth="yes"/>
      <point x="719" y="1052"/>
      <point x="642" y="1142"/>
      <point x="552" y="1142" type="qcurve" smooth="yes"/>
      <point x="504" y="1142"/>
      <point x="424" y="1120"/>
      <point x="352" y="1087" type="qcurve"/>
      <point x="354" y="1227" type="line"/>
      <point x="411" y="1255"/>
      <point x="525" y="1284"/>
      <point x="576" y="1284" type="qcurve" smooth="yes"/>
      <point x="738" y="1284"/>
      <point x="905" y="1124"/>
      <point x="881" y="979" type="qcurve" smooth="yes"/>
      <point x="854" y="822"/>
      <point x="557" y="631"/>
    </contour>
    <contour>
      <point x="489" y="781" type="line"/>
      <point x="637" y="781"/>
      <point x="839" y="588"/>
      <point x="813" y="432" type="qcurve" smooth="yes"/>
      <point x="786" y="274"/>
      <point x="560" y="94"/>
      <point x="401" y="94" type="qcurve" smooth="yes"/>
      <point x="331" y="94"/>
      <point x="205" y="121"/>
      <point x="113" y="158" type="qcurve"/>
      <point x="161" y="302" type="line"/>
      <point x="237" y="267"/>
      <point x="338" y="236"/>
      <point x="400" y="236" type="qcurve" smooth="yes"/>
      <point x="497" y="236"/>
      <point x="624" y="349"/>
      <point x="640" y="440" type="qcurve" smooth="yes"/>
      <point x="654" y="525"/>
      <point x="558" y="651"/>
      <point x="451" y="651" type="qcurve"/>
    </contour>
    <contour>
      <point x="1209" y="1198" type="line"/>
      <point x="1383" y="1198" type="line"/>
      <point x="1180" y="0" type="line"/>
      <point x="1006" y="0" type="line"/>
    </contour>
    <contour>
      <point x="1620" y="1138" type="line"/>
      <point x="996" y="1138" type="line"/>
      <point x="1019" y="1279" type="line"/>
      <point x="1644" y="1279" type="line"/>
    </contour>
    <contour>
      <point x="717" y="666" type="line"/>
      <point x="1175" y="666" type="line"/>
      <point x="1151" y="525" type="line"/>
      <point x="709" y="525" type="line"/>
    </contour>
  </outline>
</glyph>
<glyph name="ideva" format="1">
  <advance width="1011"/>
  <unicode hex="0907"/>
  <outline>
    <contour>
      <point x="1229" y="1138" type="line"/>
      <point x="160" y="1138" type="line"/>
      <point x="182" y="1279" type="line"/>
      <point x="1251" y="1279" type="line"/>
    </contour>
    <contour>
      <point x="541" y="-238" type="line"/>
      <point x="353" y="65" type="line"/>
      <point x="475" y="21" type="line"/>
      <point x="375" y="21" type="line" smooth="yes"/>
      <point x="268" y="21"/>
      <point x="148" y="101"/>
      <point x="159" y="162" type="qcurve" smooth="yes"/>
      <point x="168" y="222"/>
      <point x="263" y="309"/>
      <point x="325" y="309" type="qcurve" smooth="yes"/>
      <point x="383" y="309"/>
      <point x="461" y="249"/>
      <point x="511" y="167" type="qcurve" smooth="yes"/>
      <point x="504" y="128" type="line"/>
      <point x="686" y="-168" type="line"/>
    </contour>
    <contour>
      <point x="562" y="949" type="qcurve" smooth="yes"/>
      <point x="856" y="949" type="line"/>
      <point x="773" y="875" type="line"/>
      <point x="828" y="1202" type="line"/>
      <point x="999" y="1202" type="line"/>
      <point x="933" y="808" type="line"/>
      <point x="546" y="808" type="line" smooth="yes"/>
      <point x="480" y="808"/>
      <point x="396" y="741"/>
      <point x="387" y="684" type="qcurve" smooth="yes"/>
      <point x="378" y="632"/>
      <point x="442" y="559"/>
      <point x="531" y="547" type="qcurve"/>
      <point x="391" y="547" type="line"/>
      <point x="463" y="584"/>
      <point x="586" y="622"/>
      <point x="665" y="622" type="qcurve" smooth="yes"/>
      <point x="822" y="622"/>
      <point x="971" y="462"/>
      <point x="950" y="332" type="qcurve" smooth="yes"/>
      <point x="928" y="203"/>
      <point x="683" y="31"/>
      <point x="497" y="31" type="qcurve" smooth="yes"/>
      <point x="382" y="31"/>
      <point x="282" y="66"/>
      <point x="206" y="111" type="qcurve"/>
      <point x="270" y="239" type="line"/>
      <point x="335" y="203"/>
      <point x="464" y="164"/>
      <point x="505" y="164" type="qcurve" smooth="yes"/>
      <point x="625" y="164"/>
      <point x="770" y="269"/>
      <point x="782" y="340" type="qcurve" smooth="yes"/>
      <point x="794" y="406"/>
      <point x="725" y="481"/>
      <point x="647" y="481" type="qcurve" smooth="yes"/>
      <point x="577" y="481"/>
      <point x="482" y="449"/>
      <point x="433" y="420" type="qcurve"/>
      <point x="414" y="420" type="line"/>
      <point x="317" y="452"/>
      <point x="209" y="607"/>
      <point x="224" y="707" type="qcurve" smooth="yes"/>
      <point x="242" y="810"/>
      <point x="418" y="949"/>
    </contour>
  </outline>
</glyph>
<glyph name="udeva" format="1">
  <advance width="915"/>
  <unicode hex="0909"/>
  <outline>
    <contour>
      <point x="160" y="1138" type="line"/>
      <point x="182" y="1279" type="line"/>
      <point x="1155" y="1279" type="line"/>
      <point x="1132" y="1138" type="line"/>
    </contour>
    <contour>
      <point x="319" y="617" type="line"/>
      <point x="344" y="764" type="line"/>
      <point x="363" y="764" type="line" smooth="yes"/>
      <point x="530" y="764"/>
      <point x="679" y="880"/>
      <point x="695" y="972" type="qcurve" smooth="yes"/>
      <point x="706" y="1042"/>
      <point x="626" y="1139"/>
      <point x="538" y="1139" type="qcurve" smooth="yes"/>
      <point x="352" y="1139" type="line"/>
      <point x="353" y="1260" type="line"/>
      <point x="558" y="1260" type="line" smooth="yes"/>
      <point x="706" y="1260"/>
      <point x="871" y="1104"/>
      <point x="850" y="969" type="qcurve" smooth="yes"/>
      <point x="821" y="806"/>
      <point x="570" y="617"/>
      <point x="359" y="617" type="qcurve" smooth="yes"/>
    </contour>
    <contour>
      <point x="503" y="769" type="line"/>
      <point x="673" y="779"/>
      <point x="872" y="568"/>
      <point x="848" y="419" type="qcurve" smooth="yes"/>
      <point x="818" y="247"/>
      <point x="580" y="63"/>
      <point x="406" y="63" type="qcurve" smooth="yes"/>
      <point x="336" y="63"/>
      <point x="187" y="96"/>
      <point x="99" y="135" type="qcurve"/>
      <point x="147" y="279" type="line"/>
      <point x="222" y="242"/>
      <point x="334" y="209"/>
      <point x="409" y="209" type="qcurve" smooth="yes"/>
      <point x="522" y="209"/>
      <point x="671" y="320"/>
      <point x="688" y="427" type="qcurve" smooth="yes"/>
      <point x="702" y="511"/>
      <point x="580" y="639"/>
      <point x="458" y="639" type="qcurve"/>
    </contour>
    <contour>
      <point x="647" y="1291" type="move" name="top"/>
    </contour>
  </outline>
</glyph>
<glyph name="uudeva" format="1">
  <advance width="1324"/>
  <unicode hex="090A"/>
  <outline>
    <contour>
      <point x="952" y="1138" type="line"/>
      <point x="976" y="1279" type="line"/>
      <point x="1565" y="1279" type="line"/>
      <point x="1541" y="1138" type="line"/>
    </contour>
    <contour>
      <point x="647" y="690" type="line"/>
      <point x="708" y="745"/>
      <point x="902" y="821"/>
      <point x="1011" y="821" type="qcurve" smooth="yes"/>
      <point x="1169" y="821"/>
      <point x="1329" y="625"/>
      <point x="1304" y="474" type="qcurve" smooth="yes"/>
      <point x="1290" y="381"/>
      <point x="1190" y="202"/>
      <point x="1124" y="131" type="qcurve"/>
      <point x="970" y="161" type="line"/>
      <point x="1046" y="249"/>
      <point x="1120" y="395"/>
      <point x="1132" y="474" type="qcurve" smooth="yes"/>
      <point x="1147" y="564"/>
      <point x="1064" y="682"/>
      <point x="977" y="682" type="qcurve" smooth="yes"/>
      <point x="899" y="682"/>
      <point x="759" y="606"/>
      <point x="698" y="540" type="qcurve"/>
    </contour>
    <component base="udeva" xOffset="6"/>
    <contour>
      <point x="752" y="1291" type="move" name="top"/>
    </contour>
  </outline>
</glyph>
<glyph name="rvocalicdeva" format="1">
  <advance width="1528"/>
  <unicode hex="090B"/>
  <outline>
    <contour>
      <point x="1127" y="1138" type="line"/>
      <point x="1150" y="1279" type="line"/>
      <point x="1774" y="1279" type="line"/>
      <point x="1750" y="1138" type="line"/>
    </contour>
    <contour>
      <point x="1342" y="779" type="line"/>
      <point x="1438" y="681"/>
      <point x="1507" y="494"/>
      <point x="1491" y="400" type="qcurve" smooth="yes"/>
      <point x="1472" y="284"/>
      <point x="1291" y="126"/>
      <point x="1174" y="126" type="qcurve" smooth="yes"/>
      <point x="1129" y="126"/>
      <point x="1087" y="132"/>
      <point x="1063" y="138" type="qcurve"/>
      <point x="1072" y="265" type="line"/>
      <point x="1090" y="262"/>
      <point x="1119" y="259"/>
      <point x="1144" y="259" type="qcurve" smooth="yes"/>
      <point x="1219" y="259"/>
      <point x="1318" y="340"/>
      <point x="1330" y="408" type="qcurve" smooth="yes"/>
      <point x="1341" y="470"/>
      <point x="1282" y="602"/>
      <point x="1204" y="673" type="qcurve"/>
    </contour>
    <contour>
      <point x="1404" y="727" type="qcurve" smooth="yes"/>
      <point x="1314" y="649"/>
      <point x="1019" y="551"/>
      <point x="878" y="551" type="qcurve"/>
      <point x="907" y="709" type="line"/>
      <point x="1014" y="709"/>
      <point x="1156" y="747"/>
      <point x="1220" y="790" type="qcurve"/>
      <point x="1185" y="744" type="line"/>
      <point x="1161" y="784"/>
      <point x="1149" y="828"/>
      <point x="1153" y="855" type="qcurve" smooth="yes"/>
      <point x="1160" y="894"/>
      <point x="1245" y="958"/>
      <point x="1312" y="958" type="qcurve" smooth="yes"/>
      <point x="1393" y="958"/>
      <point x="1478" y="881"/>
      <point x="1471" y="832" type="qcurve" smooth="yes"/>
      <point x="1466" y="801"/>
      <point x="1431" y="751"/>
    </contour>
    <contour>
      <point x="887" y="531" type="line"/>
      <point x="272" y="187" type="line"/>
      <point x="204" y="326" type="line"/>
      <point x="842" y="675" type="line"/>
    </contour>
    <contour>
      <point x="164" y="1138" type="line"/>
      <point x="187" y="1279" type="line"/>
      <point x="1312" y="1279" type="line"/>
      <point x="1288" y="1138" type="line"/>
    </contour>
    <contour>
      <point x="175" y="871" type="line"/>
      <point x="228" y="897"/>
      <point x="365" y="936"/>
      <point x="452" y="936" type="qcurve" smooth="yes"/>
      <point x="528" y="936"/>
      <point x="676" y="875"/>
      <point x="741" y="825" type="qcurve" smooth="yes"/>
      <point x="878" y="719" type="line"/>
      <point x="846" y="536" type="line"/>
      <point x="673" y="669" type="line" smooth="yes"/>
      <point x="605" y="721"/>
      <point x="486" y="782"/>
      <point x="425" y="782" type="qcurve" smooth="yes"/>
      <point x="364" y="782"/>
      <point x="240" y="742"/>
      <point x="180" y="713" type="qcurve"/>
    </contour>
    <contour>
      <point x="877" y="1198" type="line"/>
      <point x="1051" y="1198" type="line"/>
      <point x="848" y="0" type="line"/>
      <point x="674" y="0" type="line"/>
    </contour>
    <contour>
      <point x="933" y="1265" type="move" name="mark0"/>
    </contour>
  </outline>
</glyph>
<glyph name="lvocalicdeva" format="1">
  <advance width="1384"/>
  <unicode hex="090C"/>
  <outline>
    <contour>
      <point x="1197" y="1198" type="line"/>
      <point x="1370" y="1198" type="line"/>
      <point x="1293" y="736" type="line"/>
      <point x="1120" y="736" type="line"/>
    </contour>
    <contour>
      <point x="160" y="1138" type="line"/>
      <point x="182" y="1279" type="line"/>
      <point x="1625" y="1279" type="line"/>
      <point x="1601" y="1138" type="line"/>
    </contour>
    <contour>
      <point x="830" y="485" type="qcurve"/>
      <point x="672" y="421" type="line"/>
      <point x="697" y="571"/>
      <point x="599" y="719"/>
      <point x="518" y="719" type="qcurve" smooth="yes"/>
      <point x="458" y="719"/>
      <point x="350" y="613"/>
      <point x="333" y="514" type="qcurve" smooth="yes"/>
      <point x="316" y="408"/>
      <point x="364" y="213"/>
      <point x="437" y="94" type="qcurve"/>
      <point x="289" y="34" type="line"/>
      <point x="213" y="149"/>
      <point x="145" y="396"/>
      <point x="167" y="532" type="qcurve" smooth="yes"/>
      <point x="192" y="681"/>
      <point x="398" y="877"/>
      <point x="530" y="877" type="qcurve" smooth="yes"/>
      <point x="693" y="877"/>
      <point x="859" y="658"/>
    </contour>
    <contour>
      <point x="1250" y="433" type="line"/>
      <point x="1156" y="379" type="line"/>
      <point x="1166" y="412"/>
      <point x="1195" y="481"/>
      <point x="1202" y="523" type="qcurve" smooth="yes"/>
      <point x="1218" y="614"/>
      <point x="1160" y="732"/>
      <point x="1082" y="732" type="qcurve" smooth="yes"/>
      <point x="1006" y="732"/>
      <point x="869" y="587"/>
      <point x="843" y="425" type="qcurve" smooth="yes"/>
      <point x="821" y="295" type="line"/>
      <point x="652" y="295" type="line"/>
      <point x="677" y="454" type="line" smooth="yes"/>
      <point x="707" y="633"/>
      <point x="949" y="878"/>
      <point x="1098" y="878" type="qcurve" smooth="yes"/>
      <point x="1249" y="878"/>
      <point x="1396" y="690"/>
      <point x="1372" y="541" type="qcurve" smooth="yes"/>
      <point x="1361" y="476"/>
      <point x="1313" y="356"/>
      <point x="1292" y="304" type="qcurve"/>
      <point x="1246" y="304" type="line" smooth="yes"/>
      <point x="1166" y="304"/>
      <point x="1087" y="241"/>
      <point x="1078" y="188" type="qcurve" smooth="yes"/>
      <point x="1070" y="137"/>
      <point x="1141" y="80"/>
      <point x="1200" y="80" type="qcurve" smooth="yes"/>
      <point x="1243" y="80"/>
      <point x="1307" y="95"/>
      <point x="1330" y="105" type="qcurve"/>
      <point x="1328" y="-16" type="line"/>
      <point x="1295" y="-30"/>
      <point x="1219" y="-43"/>
      <point x="1179" y="-43" type="qcurve" smooth="yes"/>
      <point x="1033" y="-43"/>
      <point x="903" y="93"/>
      <point x="922" y="202" type="qcurve" smooth="yes"/>
      <point x="939" y="311"/>
      <point x="1113" y="433"/>
      <point x="1230" y="433" type="qcurve" smooth="yes"/>
    </contour>
    <contour>
      <point x="1083" y="1265" type="move" name="mark0"/>
    </contour>
  </outline>
</glyph>
<glyph name="edeva" format="1">
  <advance width="1120.0"/>
  <unicode hex="090F"/>
  <outline>
    <contour>
      <point x="1182" y="1216" type="line"/>
      <point x="1097" y="816" type="line" smooth="yes"/>
      <point x="1070" y="689"/>
      <point x="936" y="505"/>
      <point x="817" y="442" type="qcurve"/>
      <point x="725" y="542" type="line"/>
      <point x="802" y="592"/>
      <point x="902" y="727"/>
      <point x="924" y="833" type="qcurve" smooth="yes"/>
      <point x="1005" y="1216" type="line"/>
    </contour>
    <contour>
      <point x="212" y="1138" type="line"/>
      <point x="242" y="1279" type="line"/>
      <point x="1422" y="1279" type="line"/>
      <point x="1392" y="1138" type="line"/>
    </contour>
    <contour>
      <point x="424" y="1216" type="line"/>
      <point x="601" y="1216" type="line"/>
      <point x="498" y="730" type="line" smooth="yes"/>
      <point x="436" y="437"/>
      <point x="644" y="148"/>
      <point x="929" y="148" type="qcurve"/>
      <point x="869" y="5" type="line"/>
      <point x="524" y="5"/>
      <point x="251" y="398"/>
      <point x="322" y="734" type="qcurve" smooth="yes"/>
    </contour>
    <contour>
      <point x="-29" y="20" type="move" name="x44"/>
    </contour>
  </outline>
</glyph>
<glyph name="kadeva" format="1">
  <advance width="1532"/>
  <unicode hex="0915"/>
  <outline>
    <contour>
      <point x="212" y="1138" type="line"/>
      <point x="242" y="1279" type="line"/>
      <point x="1834" y="1279" type="line"/>
      <point x="1804" y="1138" type="line"/>
    </contour>
    <contour>
      <point x="927" y="1192" type="line"/>
      <point x="1104" y="1192" type="line"/>
      <point x="851" y="0" type="line"/>
      <point x="674" y="0" type="line"/>
    </contour>
    <contour>
      <point x="764" y="294" type="line"/>
      <point x="730" y="258"/>
      <point x="568" y="192"/>
      <point x="467" y="192" type="qcurve" smooth="yes"/>
      <point x="311" y="192"/>
      <point x="132" y="384"/>
      <point x="169" y="559" type="qcurve" smooth="yes"/>
      <point x="202" y="715"/>
      <point x="442" y="900"/>
      <point x="609" y="900" type="qcurve" smooth="yes"/>
      <point x="702" y="900"/>
      <point x="819" y="867"/>
      <point x="880" y="838" type="qcurve"/>
      <point x="845" y="674" type="line"/>
      <point x="795" y="713"/>
      <point x="675" y="759"/>
      <point x="594" y="759" type="qcurve" smooth="yes"/>
      <point x="498" y="759"/>
      <point x="364" y="648"/>
      <point x="344" y="556" type="qcurve" smooth="yes"/>
      <point x="320" y="443"/>
      <point x="414" y="333"/>
      <point x="493" y="333" type="qcurve" smooth="yes"/>
      <point x="580" y="333"/>
      <point x="745" y="414"/>
      <point x="804" y="481" type="qcurve"/>
    </contour>
    <contour>
      <point x="965" y="790" type="line"/>
      <point x="1006" y="815"/>
      <point x="1147" y="861"/>
      <point x="1240" y="861" type="qcurve" smooth="yes"/>
      <point x="1404" y="861"/>
      <point x="1571" y="665"/>
      <point x="1539" y="514" type="qcurve" smooth="yes"/>
      <point x="1519" y="421"/>
      <point x="1408" y="242"/>
      <point x="1337" y="171" type="qcurve"/>
      <point x="1178" y="201" type="line"/>
      <point x="1259" y="289"/>
      <point x="1343" y="435"/>
      <point x="1360" y="514" type="qcurve" smooth="yes"/>
      <point x="1379" y="604"/>
      <point x="1297" y="722"/>
      <point x="1206" y="722" type="qcurve" smooth="yes"/>
      <point x="1134" y="722"/>
      <point x="989" y="656"/>
      <point x="925" y="600" type="qcurve"/>
    </contour>
    <contour>
      <point x="675" y="0" type="move" name="btm"/>
    </contour>
    <contour>
      <point x="974" y="1291" type="move" name="top"/>
    </contour>
  </outline>
</glyph>
<glyph name="khadeva" format="1">
  <advance width="1632"/>
  <unicode hex="0916"/>
  <outline>
    <contour>
      <point x="1325" y="347" type="line"/>
      <point x="1271" y="320"/>
      <point x="1181" y="297"/>
      <point x="1109" y="297" type="qcurve" smooth="yes"/>
      <point x="982" y="297"/>
      <point x="800" y="484"/>
      <point x="825" y="641" type="qcurve" smooth="yes"/>
      <point x="850" y="783"/>
      <point x="1068" y="953"/>
      <point x="1196" y="953" type="qcurve" smooth="yes"/>
      <point x="1281" y="953"/>
      <point x="1381" y="925"/>
      <point x="1430" y="893" type="qcurve"/>
      <point x="1403" y="733" type="line"/>
      <point x="1350" y="783"/>
      <point x="1257" y="812"/>
      <point x="1195" y="812" type="qcurve" smooth="yes"/>
      <point x="1121" y="812"/>
      <point x="1007" y="713"/>
      <point x="993" y="629" type="qcurve" smooth="yes"/>
      <point x="978" y="536"/>
      <point x="1073" y="440"/>
      <point x="1143" y="440" type="qcurve" smooth="yes"/>
      <point x="1196" y="440"/>
      <point x="1293" y="468"/>
      <point x="1352" y="511" type="qcurve"/>
    </contour>
    <contour>
      <point x="950" y="1138" type="line"/>
      <point x="973" y="1279" type="line"/>
      <point x="1872" y="1279" type="line"/>
      <point x="1848" y="1138" type="line"/>
    </contour>
    <contour>
      <point x="1446" y="1198" type="line"/>
      <point x="1617" y="1198" type="line"/>
      <point x="1419" y="0" type="line"/>
      <point x="1249" y="0" type="line"/>
    </contour>
    <component base="radeva" xOffset="-9"/>
    <contour>
      <point x="1495" y="1291" type="move" name="top"/>
    </contour>
  </outline>
</glyph>
<glyph name="gadeva" format="1">
  <advance width="1208"/>
  <unicode hex="0917"/>
  <outline>
    <contour>
      <point x="1065" y="1198" type="line"/>
      <point x="1242" y="1198" type="line"/>
      <point x="987" y="0" type="line"/>
      <point x="810" y="0" type="line"/>
    </contour>
    <contour>
      <point x="1480" y="1138" type="line"/>
      <point x="212" y="1138" type="line"/>
      <point x="242" y="1279" type="line"/>
      <point x="1510" y="1279" type="line"/>
    </contour>
    <contour>
      <point x="689" y="1205" type="line"/>
      <point x="543" y="519" type="line" smooth="yes"/>
      <point x="531" y="460"/>
      <point x="471" y="399"/>
      <point x="421" y="399" type="qcurve" smooth="yes"/>
      <point x="335" y="399"/>
      <point x="208" y="548"/>
      <point x="227" y="633" type="qcurve" smooth="yes"/>
      <point x="235" y="672"/>
      <point x="307" y="719"/>
      <point x="364" y="719" type="qcurve" smooth="yes"/>
      <point x="429" y="719" type="line"/>
      <point x="391" y="633" type="line"/>
      <point x="512" y="1205" type="line"/>
    </contour>
    <contour>
      <point x="1113" y="1291" type="move" name="top"/>
    </contour>
  </outline>
</glyph>
<glyph name="ghadeva" format="1">
  <advance width="1247"/>
  <unicode hex="0918"/>
  <outline>
    <contour>
      <point x="164" y="1138" type="line"/>
      <point x="187" y="1279" type="line"/>
      <point x="1493" y="1279" type="line"/>
      <point x="1470" y="1138" type="line"/>
    </contour>
    <contour>
      <point x="1057" y="1191" type="line"/>
      <point x="1231" y="1191" type="line"/>
      <point x="1029" y="0" type="line"/>
      <point x="855" y="0" type="line"/>
    </contour>
    <contour>
      <point x="702" y="714" type="line"/>
      <point x="610" y="714" type="line" smooth="yes"/>
      <point x="489" y="714"/>
      <point x="299" y="868"/>
      <point x="324" y="1013" type="qcurve" smooth="yes"/>
      <point x="343" y="1123"/>
      <point x="535" y="1274"/>
      <point x="691" y="1274" type="qcurve" smooth="yes"/>
      <point x="797" y="1274" type="line"/>
      <point x="774" y="1138" type="line"/>
      <point x="692" y="1138" type="line" smooth="yes"/>
      <point x="602" y="1138"/>
      <point x="507" y="1061"/>
      <point x="497" y="999" type="qcurve" smooth="yes"/>
      <point x="486" y="930"/>
      <point x="561" y="848"/>
      <point x="640" y="848" type="qcurve" smooth="yes"/>
      <point x="725" y="848" type="line"/>
    </contour>
    <contour>
      <point x="936" y="275" type="line"/>
      <point x="872" y="238"/>
      <point x="679" y="192"/>
      <point x="574" y="192" type="qcurve" smooth="yes"/>
      <point x="382" y="192"/>
      <point x="198" y="382"/>
      <point x="224" y="533" type="qcurve" smooth="yes"/>
      <point x="246" y="671"/>
      <point x="504" y="849"/>
      <point x="716" y="849" type="qcurve" smooth="yes"/>
      <point x="782" y="849" type="line"/>
      <point x="769" y="708" type="line"/>
      <point x="688" y="708" type="line" smooth="yes"/>
      <point x="553" y="708"/>
      <point x="410" y="608"/>
      <point x="396" y="521" type="qcurve" smooth="yes"/>
      <point x="381" y="437"/>
      <point x="493" y="333"/>
      <point x="601" y="333" type="qcurve" smooth="yes"/>
      <point x="707" y="333"/>
      <point x="897" y="402"/>
      <point x="973" y="462" type="qcurve"/>
    </contour>
    <contour>
      <point x="1103" y="1291" type="move" name="top"/>
    </contour>
  </outline>
</glyph>
<glyph name="ngadeva" format="1">
  <advance width="1201"/>
  <unicode hex="0919"/>
  <outline>
    <contour>
      <point x="1170" y="1138" type="line"/>
      <point x="1194" y="1279" type="line"/>
      <point x="1447" y="1279" type="line"/>
      <point x="1423" y="1138" type="line"/>
    </contour>
    <contour>
      <point x="1233" y="605" type="line"/>
      <point x="1059" y="605" type="line"/>
      <point x="1087" y="772" type="line"/>
      <point x="1262" y="772" type="line"/>
    </contour>
    <component base="ddadeva" xOffset="5"/>
    <contour>
      <point x="500" y="65" type="move" name="btm"/>
    </contour>
    <contour>
      <point x="918" y="1291" type="move" name="top"/>
    </contour>
  </outline>
</glyph>
<glyph name="cadeva" format="1">
  <advance width="1263"/>
  <unicode hex="091A"/>
  <outline>
    <contour>
      <point x="163" y="718" type="line"/>
      <point x="187" y="859" type="line"/>
      <point x="854" y="859" type="line"/>
      <point x="829" y="718" type="line"/>
    </contour>
    <contour>
      <point x="160" y="1138" type="line"/>
      <point x="182" y="1279" type="line"/>
      <point x="1503" y="1279" type="line"/>
      <point x="1481" y="1138" type="line"/>
    </contour>
    <contour>
      <point x="1078" y="1191" type="line"/>
      <point x="1248" y="1191" type="line"/>
      <point x="1051" y="0" type="line"/>
      <point x="881" y="0" type="line"/>
    </contour>
    <contour>
      <point x="1000" y="322" type="line"/>
      <point x="958" y="275"/>
      <point x="771" y="195"/>
      <point x="656" y="195" type="qcurve" smooth="yes"/>
      <point x="491" y="195"/>
      <point x="308" y="385"/>
      <point x="334" y="541" type="qcurve" smooth="yes"/>
      <point x="356" y="675"/>
      <point x="575" y="859"/>
      <point x="788" y="859" type="qcurve"/>
      <point x="764" y="719" type="line"/>
      <point x="647" y="719"/>
      <point x="514" y="608"/>
      <point x="501" y="525" type="qcurve" smooth="yes"/>
      <point x="488" y="443"/>
      <point x="583" y="346"/>
      <point x="680" y="346" type="qcurve" smooth="yes"/>
      <point x="777" y="346"/>
      <point x="972" y="444"/>
      <point x="1036" y="527" type="qcurve"/>
    </contour>
    <contour>
      <point x="1123" y="1291" type="move" name="top"/>
    </contour>
  </outline>
</glyph>
<glyph name="chadeva" format="1">
  <advance width="1386"/>
  <unicode hex="091B"/>
  <outline>
    <contour>
      <point x="1603" y="1138" type="line"/>
      <point x="160" y="1138" type="line"/>
      <point x="182" y="1279" type="line"/>
      <point x="1627" y="1279" type="line"/>
    </contour>
    <contour>
      <point x="686" y="662" type="line"/>
      <point x="596" y="662" type="line" smooth="yes"/>
      <point x="468" y="662"/>
      <point x="289" y="842"/>
      <point x="313" y="987" type="qcurve" smooth="yes"/>
      <point x="333" y="1110"/>
      <point x="531" y="1274"/>
      <point x="684" y="1274" type="qcurve" smooth="yes"/>
      <point x="787" y="1274" type="line"/>
      <point x="764" y="1138" type="line"/>
      <point x="685" y="1138" type="line" smooth="yes"/>
      <point x="597" y="1138"/>
      <point x="493" y="1048"/>
      <point x="481" y="973" type="qcurve" smooth="yes"/>
      <point x="468" y="894"/>
      <point x="548" y="796"/>
      <point x="625" y="796" type="qcurve" smooth="yes"/>
      <point x="707" y="796" type="line"/>
    </contour>
    <contour>
      <point x="1345" y="599" type="qcurve" smooth="yes"/>
      <point x="1307" y="366"/>
      <point x="934" y="51"/>
      <point x="673" y="50" type="qcurve" smooth="yes"/>
      <point x="458" y="49"/>
      <point x="212" y="273"/>
      <point x="242" y="462" type="qcurve" smooth="yes"/>
      <point x="268" y="610"/>
      <point x="512" y="797"/>
      <point x="699" y="797" type="qcurve" smooth="yes"/>
      <point x="763" y="797" type="line"/>
      <point x="751" y="656" type="line"/>
      <point x="672" y="656" type="line" smooth="yes"/>
      <point x="559" y="656"/>
      <point x="426" y="547"/>
      <point x="411" y="450" type="qcurve" smooth="yes"/>
      <point x="392" y="336"/>
      <point x="542" y="191"/>
      <point x="693" y="191" type="qcurve" smooth="yes"/>
      <point x="867" y="191"/>
      <point x="1151" y="413"/>
      <point x="1185" y="611" type="qcurve" smooth="yes"/>
      <point x="1199" y="704"/>
      <point x="1143" y="805"/>
      <point x="1094" y="805" type="qcurve" smooth="yes"/>
      <point x="1054" y="805"/>
      <point x="978" y="780"/>
      <point x="934" y="753" type="qcurve"/>
      <point x="924" y="892" type="line"/>
      <point x="969" y="914"/>
      <point x="1061" y="947"/>
      <point x="1120" y="947" type="qcurve" smooth="yes"/>
      <point x="1249" y="947"/>
      <point x="1373" y="760"/>
    </contour>
    <contour>
      <point x="1205" y="1225" type="line"/>
      <point x="1376" y="1225" type="line"/>
      <point x="1311" y="833" type="line"/>
      <point x="1141" y="833" type="line"/>
    </contour>
    <contour>
      <point x="620" y="69" type="move" name="btm"/>
    </contour>
    <contour>
      <point x="1168" y="1291" type="move" name="top"/>
    </contour>
  </outline>
</glyph>
<glyph name="jadeva" format="1">
  <advance width="1300"/>
  <unicode hex="091C"/>
  <outline>
    <contour>
      <point x="160" y="1138" type="line"/>
      <point x="182" y="1279" type="line"/>
      <point x="1540" y="1279" type="line"/>
      <point x="1517" y="1138" type="line"/>
    </contour>
    <contour>
      <point x="553" y="789" type="line"/>
      <point x="663" y="776"/>
      <point x="795" y="594"/>
      <point x="774" y="469" type="qcurve" smooth="yes"/>
      <point x="747" y="311"/>
      <point x="527" y="110"/>
      <point x="349" y="110" type="qcurve" smooth="yes"/>
      <point x="277" y="110"/>
      <point x="158" y="145"/>
      <point x="89" y="181" type="qcurve"/>
      <point x="143" y="322" type="line"/>
      <point x="208" y="283"/>
      <point x="298" y="258"/>
      <point x="352" y="259" type="qcurve" smooth="yes"/>
      <point x="454" y="261"/>
      <point x="586" y="368"/>
      <point x="605" y="475" type="qcurve" smooth="yes"/>
      <point x="620" y="576"/>
      <point x="497" y="717"/>
      <point x="366" y="717" type="qcurve" smooth="yes"/>
      <point x="296" y="717" type="line"/>
      <point x="318" y="858" type="line"/>
      <point x="1120" y="858" type="line"/>
      <point x="1097" y="717" type="line"/>
      <point x="540" y="717" type="line"/>
    </contour>
    <contour>
      <point x="1116" y="1198" type="line"/>
      <point x="1287" y="1198" type="line"/>
      <point x="1089" y="0" type="line"/>
      <point x="918" y="0" type="line"/>
    </contour>
    <contour>
      <point x="1164" y="1291" type="move" name="top"/>
    </contour>
  </outline>
</glyph>
<glyph name="jhadeva" format="1">
  <advance width="1529"/>
  <unicode hex="091D"/>
  <outline>
    <contour>
      <point x="874" y="482" type="line"/>
      <point x="1318" y="482" type="line"/>
      <point x="1295" y="341" type="line"/>
      <point x="893" y="341" type="line"/>
    </contour>
    <component base="ideva" xOffset="-46"/>
    <component base="aavowelsigndeva" xOffset="982"/>
    <contour>
      <point x="1392" y="1291" type="move" name="top"/>
    </contour>
  </outline>
</glyph>
<glyph name="nyadeva" format="1">
  <advance width="1460"/>
  <unicode hex="091E"/>
  <outline>
    <contour>
      <point x="872" y="668" type="line"/>
      <point x="1256" y="668" type="line"/>
      <point x="1225" y="522" type="line"/>
      <point x="841" y="522" type="line"/>
    </contour>
    <contour>
      <point x="212" y="1138" type="line"/>
      <point x="242" y="1279" type="line"/>
      <point x="1762" y="1279" type="line"/>
      <point x="1732" y="1138" type="line"/>
    </contour>
    <contour>
      <point x="1317" y="1198" type="line"/>
      <point x="1494" y="1198" type="line"/>
      <point x="1239" y="0" type="line"/>
      <point x="1062" y="0" type="line"/>
    </contour>
    <contour>
      <point x="915" y="563" type="qcurve" smooth="yes"/>
      <point x="881" y="404"/>
      <point x="633" y="188"/>
      <point x="458" y="188" type="qcurve" smooth="yes"/>
      <point x="370" y="188"/>
      <point x="203" y="238"/>
      <point x="118" y="302" type="qcurve"/>
      <point x="185" y="443" type="line"/>
      <point x="286" y="376"/>
      <point x="403" y="344"/>
      <point x="466" y="344" type="qcurve" smooth="yes"/>
      <point x="566" y="344"/>
      <point x="717" y="465"/>
      <point x="740" y="572" type="qcurve" smooth="yes"/>
      <point x="759" y="662"/>
      <point x="668" y="787"/>
      <point x="548" y="787" type="qcurve" smooth="yes"/>
      <point x="487" y="787"/>
      <point x="366" y="754"/>
      <point x="310" y="728" type="qcurve"/>
      <point x="309" y="872" type="line"/>
      <point x="371" y="900"/>
      <point x="512" y="935"/>
      <point x="579" y="935" type="qcurve" smooth="yes"/>
      <point x="766" y="935"/>
      <point x="948" y="721"/>
    </contour>
    <contour>
      <point x="1371" y="1291" type="move" name="top"/>
    </contour>
  </outline>
</glyph>
<glyph name="ttadeva" format="1">
  <advance width="1023"/>
  <unicode hex="091F"/>
  <outline>
    <contour>
      <point x="1246" y="1138" type="line"/>
      <point x="164" y="1138" type="line"/>
      <point x="187" y="1279" type="line"/>
      <point x="1270" y="1279" type="line"/>
    </contour>
    <contour>
      <point x="164" y="503" type="qcurve" smooth="yes"/>
      <point x="193" y="675"/>
      <point x="469" y="898"/>
      <point x="685" y="898" type="qcurve" smooth="yes"/>
      <point x="813" y="898" type="line"/>
      <point x="774" y="841" type="line"/>
      <point x="835" y="1206" type="line"/>
      <point x="1010" y="1206" type="line"/>
      <point x="934" y="757" type="line"/>
      <point x="698" y="757" type="line" smooth="yes"/>
      <point x="543" y="757"/>
      <point x="357" y="614"/>
      <point x="336" y="496" type="qcurve" smooth="yes"/>
      <point x="316" y="380"/>
      <point x="479" y="247"/>
      <point x="628" y="247" type="qcurve" smooth="yes"/>
      <point x="716" y="247"/>
      <point x="821" y="267"/>
      <point x="897" y="292" type="qcurve"/>
      <point x="887" y="140" type="line"/>
      <point x="813" y="116"/>
      <point x="699" y="95"/>
      <point x="615" y="95" type="qcurve" smooth="yes"/>
      <point x="374" y="95"/>
      <point x="134" y="323"/>
    </contour>
    <contour>
      <point x="500" y="12" type="move" name="btm"/>
    </contour>
    <contour>
      <point x="878" y="1291" type="move" name="top"/>
    </contour>
  </outline>
</glyph>
<glyph name="tthadeva" format="1">
  <advance width="1173"/>
  <unicode hex="0920"/>
  <outline>
    <contour>
      <point x="1396" y="1138" type="line"/>
      <point x="164" y="1138" type="line"/>
      <point x="187" y="1279" type="line"/>
      <point x="1419" y="1279" type="line"/>
    </contour>
    <contour>
      <point x="1006" y="748" type="line"/>
      <point x="708" y="748" type="line" smooth="yes"/>
      <point x="541" y="748"/>
      <point x="348" y="608"/>
      <point x="328" y="491" type="qcurve" smooth="yes"/>
      <point x="306" y="363"/>
      <point x="467" y="221"/>
      <point x="601" y="221" type="qcurve" smooth="yes"/>
      <point x="749" y="221"/>
      <point x="943" y="368"/>
      <point x="963" y="489" type="qcurve" smooth="yes"/>
      <point x="978" y="578"/>
      <point x="945" y="707"/>
      <point x="881" y="761" type="qcurve"/>
      <point x="1029" y="856" type="line"/>
      <point x="1092" y="799"/>
      <point x="1151" y="618"/>
      <point x="1130" y="485" type="qcurve" smooth="yes"/>
      <point x="1102" y="313"/>
      <point x="814" y="73"/>
      <point x="591" y="73" type="qcurve" smooth="yes"/>
      <point x="360" y="73"/>
      <point x="128" y="315"/>
      <point x="160" y="501" type="qcurve" smooth="yes"/>
      <point x="189" y="676"/>
      <point x="487" y="889"/>
      <point x="681" y="889" type="qcurve" smooth="yes"/>
      <point x="979" y="889" type="line"/>
      <point x="923" y="837" type="line"/>
      <point x="985" y="1203" type="line"/>
      <point x="1159" y="1203" type="line"/>
      <point x="1083" y="748" type="line"/>
    </contour>
    <contour>
      <point x="520" y="12" type="move" name="btm"/>
    </contour>
    <contour>
      <point x="990" y="1291" type="move" name="top"/>
    </contour>
  </outline>
</glyph>
<glyph name="ddadeva" format="1">
  <advance width="1082.0"/>
  <unicode hex="0921"/>
  <outline>
    <contour>
      <point x="938" y="1202" type="line"/>
      <point x="1116" y="1202" type="line"/>
      <point x="1033" y="808" type="line"/>
      <point x="615" y="808" type="line" smooth="yes"/>
      <point x="536" y="808"/>
      <point x="454" y="742"/>
      <point x="442" y="685" type="qcurve" smooth="yes"/>
      <point x="429" y="625"/>
      <point x="508" y="554"/>
      <point x="596" y="542" type="qcurve"/>
      <point x="441" y="542" type="line"/>
      <point x="517" y="579"/>
      <point x="663" y="622"/>
      <point x="745" y="622" type="qcurve" smooth="yes"/>
      <point x="909" y="622"/>
      <point x="1058" y="462"/>
      <point x="1031" y="332" type="qcurve" smooth="yes"/>
      <point x="1003" y="203"/>
      <point x="743" y="40"/>
      <point x="549" y="40" type="qcurve" smooth="yes"/>
      <point x="430" y="40"/>
      <point x="205" y="110"/>
      <point x="129" y="159" type="qcurve"/>
      <point x="204" y="306" type="line"/>
      <point x="268" y="259"/>
      <point x="473" y="181"/>
      <point x="564" y="181" type="qcurve" smooth="yes"/>
      <point x="689" y="181"/>
      <point x="842" y="271"/>
      <point x="856" y="340" type="qcurve" smooth="yes"/>
      <point x="870" y="406"/>
      <point x="802" y="481"/>
      <point x="720" y="481" type="qcurve" smooth="yes"/>
      <point x="648" y="481"/>
      <point x="532" y="444"/>
      <point x="480" y="415" type="qcurve"/>
      <point x="459" y="415" type="line"/>
      <point x="360" y="447"/>
      <point x="255" y="607"/>
      <point x="276" y="707" type="qcurve" smooth="yes"/>
      <point x="298" y="810"/>
      <point x="488" y="949"/>
      <point x="638" y="949" type="qcurve" smooth="yes"/>
      <point x="958" y="949" type="line"/>
      <point x="869" y="875" type="line"/>
    </contour>
    <contour>
      <point x="1354" y="1138" type="line"/>
      <point x="212" y="1138" type="line"/>
      <point x="242" y="1279" type="line"/>
      <point x="1384" y="1279" type="line"/>
    </contour>
    <contour>
      <point x="491" y="12" type="move" name="btm"/>
    </contour>
    <contour>
      <point x="978" y="1291" type="move" name="top"/>
    </contour>
  </outline>
</glyph>
<glyph name="ddhadeva" format="1">
  <advance width="1068"/>
  <unicode hex="0922"/>
  <outline>
    <contour>
      <point x="1290" y="1138" type="line"/>
      <point x="164" y="1138" type="line"/>
      <point x="187" y="1279" type="line"/>
      <point x="1314" y="1279" type="line"/>
    </contour>
    <contour>
      <point x="878" y="1197" type="line"/>
      <point x="1053" y="1197" type="line"/>
      <point x="977" y="751" type="line"/>
      <point x="673" y="751" type="line" smooth="yes"/>
      <point x="543" y="751"/>
      <point x="356" y="612"/>
      <point x="335" y="491" type="qcurve" smooth="yes"/>
      <point x="309" y="337"/>
      <point x="493" y="186"/>
      <point x="644" y="186" type="qcurve" smooth="yes"/>
      <point x="743" y="186"/>
      <point x="866" y="270"/>
      <point x="877" y="332" type="qcurve" smooth="yes"/>
      <point x="885" y="380"/>
      <point x="829" y="437"/>
      <point x="757" y="437" type="qcurve" smooth="yes"/>
      <point x="704" y="437"/>
      <point x="605" y="390"/>
      <point x="538" y="343" type="qcurve"/>
      <point x="495" y="471" type="line"/>
      <point x="559" y="523"/>
      <point x="705" y="581"/>
      <point x="785" y="581" type="qcurve" smooth="yes"/>
      <point x="926" y="581"/>
      <point x="1059" y="438"/>
      <point x="1041" y="334" type="qcurve" smooth="yes"/>
      <point x="1022" y="220"/>
      <point x="815" y="45"/>
      <point x="630" y="45" type="qcurve" smooth="yes"/>
      <point x="384" y="45"/>
      <point x="130" y="296"/>
      <point x="165" y="508" type="qcurve" smooth="yes"/>
      <point x="195" y="679"/>
      <point x="468" y="892"/>
      <point x="681" y="892" type="qcurve" smooth="yes"/>
      <point x="889" y="892" type="line"/>
      <point x="817" y="840" type="line"/>
    </contour>
    <contour>
      <point x="543" y="13" type="move" name="btm"/>
    </contour>
    <contour>
      <point x="920" y="1291" type="move" name="top"/>
    </contour>
  </outline>
</glyph>
<glyph name="nnadeva" format="1">
  <advance width="1445"/>
  <unicode hex="0923"/>
  <outline>
    <contour>
      <point x="821" y="1202" type="line"/>
      <point x="996" y="1202" type="line"/>
      <point x="919" y="748" type="line" smooth="yes"/>
      <point x="890" y="582"/>
      <point x="697" y="388"/>
      <point x="535" y="388" type="qcurve" smooth="yes"/>
      <point x="379" y="388"/>
      <point x="231" y="580"/>
      <point x="260" y="749" type="qcurve" smooth="yes"/>
      <point x="337" y="1202" type="line"/>
      <point x="511" y="1202" type="line"/>
      <point x="433" y="745" type="line" smooth="yes"/>
      <point x="416" y="642"/>
      <point x="477" y="529"/>
      <point x="549" y="529" type="qcurve" smooth="yes"/>
      <point x="625" y="529"/>
      <point x="726" y="640"/>
      <point x="744" y="745" type="qcurve" smooth="yes"/>
    </contour>
    <contour>
      <point x="187" y="1279" type="line"/>
      <point x="1691" y="1279" type="line"/>
      <point x="1668" y="1138" type="line"/>
      <point x="164" y="1138" type="line"/>
    </contour>
    <contour>
      <point x="1256" y="1198" type="line"/>
      <point x="1430" y="1198" type="line"/>
      <point x="1227" y="0" type="line"/>
      <point x="1053" y="0" type="line"/>
    </contour>
    <contour>
      <point x="983" y="1291" type="move" name="top"/>
    </contour>
  </outline>
</glyph>
<glyph name="tadeva" format="1">
  <advance width="1141.0"/>
  <unicode hex="0924"/>
  <outline>
    <contour>
      <point x="1014" y="868" type="line"/>
      <point x="985" y="727" type="line"/>
      <point x="708" y="727" type="line" smooth="yes"/>
      <point x="573" y="727"/>
      <point x="404" y="587"/>
      <point x="381" y="479" type="qcurve" smooth="yes"/>
      <point x="359" y="378"/>
      <point x="397" y="176"/>
      <point x="472" y="58" type="qcurve"/>
      <point x="315" y="-3" type="line"/>
      <point x="238" y="111"/>
      <point x="180" y="374"/>
      <point x="209" y="505" type="qcurve" smooth="yes"/>
      <point x="245" y="670"/>
      <point x="503" y="868"/>
      <point x="698" y="868" type="qcurve" smooth="yes"/>
    </contour>
    <contour>
      <point x="242" y="1279" type="line"/>
      <point x="1443" y="1279" type="line"/>
      <point x="1413" y="1138" type="line"/>
      <point x="212" y="1138" type="line"/>
    </contour>
    <contour>
      <point x="998" y="1199" type="line"/>
      <point x="1175" y="1199" type="line"/>
      <point x="920" y="0" type="line"/>
      <point x="743" y="0" type="line"/>
    </contour>
    <contour>
      <point x="1046" y="1291" type="move" name="top"/>
    </contour>
  </outline>
</glyph>
<glyph name="thadeva" format="1">
  <advance width="1251"/>
  <unicode hex="0925"/>
  <outline>
    <contour>
      <point x="442" y="916" type="qcurve"/>
      <point x="304" y="897" type="line"/>
      <point x="297" y="937"/>
      <point x="304" y="1006"/>
      <point x="311" y="1037" type="qcurve" smooth="yes"/>
      <point x="335" y="1135"/>
      <point x="507" y="1264"/>
      <point x="619" y="1264" type="qcurve" smooth="yes"/>
      <point x="758" y="1264"/>
      <point x="883" y="1099"/>
      <point x="857" y="979" type="qcurve" smooth="yes"/>
      <point x="821" y="811"/>
      <point x="525" y="598"/>
      <point x="325" y="595" type="qcurve"/>
      <point x="348" y="677" type="line"/>
      <point x="339" y="526"/>
      <point x="529" y="374"/>
      <point x="644" y="374" type="qcurve" smooth="yes"/>
      <point x="753" y="374"/>
      <point x="941" y="450"/>
      <point x="995" y="500" type="qcurve"/>
      <point x="956" y="315" type="line"/>
      <point x="906" y="284"/>
      <point x="738" y="232"/>
      <point x="632" y="232" type="qcurve" smooth="yes"/>
      <point x="461" y="232"/>
      <point x="195" y="446"/>
      <point x="171" y="679" type="qcurve"/>
      <point x="184" y="716" type="line"/>
      <point x="456" y="725"/>
      <point x="688" y="873"/>
      <point x="709" y="975" type="qcurve" smooth="yes"/>
      <point x="725" y="1048"/>
      <point x="662" y="1127"/>
      <point x="600" y="1127" type="qcurve" smooth="yes"/>
      <point x="542" y="1127"/>
      <point x="459" y="1053"/>
      <point x="446" y="995" type="qcurve" smooth="yes"/>
      <point x="443" y="978"/>
      <point x="442" y="939"/>
    </contour>
    <contour>
      <point x="1108" y="1198" type="line"/>
      <point x="1285" y="1198" type="line"/>
      <point x="1030" y="0" type="line"/>
      <point x="853" y="0" type="line"/>
    </contour>
    <contour>
      <point x="1523" y="1138" type="line"/>
      <point x="993" y="1138" type="line"/>
      <point x="1023" y="1279" type="line"/>
      <point x="1553" y="1279" type="line"/>
    </contour>
    <contour>
      <point x="1156" y="1291" type="move" name="top"/>
    </contour>
  </outline>
</glyph>
<glyph name="dadeva" format="1">
  <advance width="1035"/>
  <unicode hex="0926"/>
  <outline>
    <contour>
      <point x="1258" y="1138" type="line"/>
      <point x="164" y="1138" type="line"/>
      <point x="187" y="1279" type="line"/>
      <point x="1281" y="1279" type="line"/>
    </contour>
    <contour>
      <point x="649" y="202" type="line"/>
      <point x="799" y="259" type="line"/>
      <point x="883" y="-132" type="line"/>
      <point x="717" y="-163" type="line"/>
    </contour>
    <contour>
      <point x="185" y="547" type="qcurve" smooth="yes"/>
      <point x="212" y="705"/>
      <point x="481" y="898"/>
      <point x="669" y="898" type="qcurve" smooth="yes"/>
      <point x="862" y="898" type="line"/>
      <point x="782" y="822" type="line"/>
      <point x="848" y="1211" type="line"/>
      <point x="1022" y="1211" type="line"/>
      <point x="946" y="757" type="line"/>
      <point x="675" y="757" type="line" smooth="yes"/>
      <point x="535" y="757"/>
      <point x="370" y="629"/>
      <point x="354" y="529" type="qcurve" smooth="yes"/>
      <point x="336" y="422"/>
      <point x="481" y="288"/>
      <point x="602" y="288" type="qcurve" smooth="yes"/>
      <point x="611" y="288"/>
      <point x="683" y="295"/>
      <point x="732" y="304" type="qcurve"/>
      <point x="637" y="222" type="line"/>
      <point x="630" y="246"/>
      <point x="616" y="300"/>
      <point x="623" y="339" type="qcurve" smooth="yes"/>
      <point x="631" y="383"/>
      <point x="714" y="454"/>
      <point x="796" y="454" type="qcurve" smooth="yes"/>
      <point x="882" y="454"/>
      <point x="964" y="361"/>
      <point x="955" y="308" type="qcurve" smooth="yes"/>
      <point x="943" y="231"/>
      <point x="763" y="144"/>
      <point x="612" y="144" type="qcurve" smooth="yes"/>
      <point x="399" y="144"/>
      <point x="154" y="363"/>
    </contour>
    <contour>
      <point x="704" y="-88" type="move" name="btm"/>
    </contour>
    <contour>
      <point x="874" y="1291" type="move" name="top"/>
    </contour>
  </outline>
</glyph>
<glyph name="dhadeva" format="1">
  <advance width="1227"/>
  <unicode hex="0927"/>
  <outline>
    <contour>
      <point x="1043" y="1198" type="line"/>
      <point x="1212" y="1198" type="line"/>
      <point x="1014" y="0" type="line"/>
      <point x="845" y="0" type="line"/>
    </contour>
    <contour>
      <point x="569" y="189" type="qcurve" smooth="yes"/>
      <point x="382" y="189"/>
      <point x="203" y="382"/>
      <point x="227" y="533" type="qcurve" smooth="yes"/>
      <point x="250" y="671"/>
      <point x="502" y="849"/>
      <point x="708" y="849" type="qcurve" smooth="yes"/>
      <point x="773" y="849" type="line"/>
      <point x="760" y="708" type="line"/>
      <point x="681" y="708" type="line" smooth="yes"/>
      <point x="549" y="708"/>
      <point x="410" y="608"/>
      <point x="396" y="521" type="qcurve" smooth="yes"/>
      <point x="381" y="437"/>
      <point x="491" y="332"/>
      <point x="597" y="332" type="qcurve" smooth="yes"/>
      <point x="691" y="332"/>
      <point x="886" y="402"/>
      <point x="959" y="462" type="qcurve"/>
      <point x="924" y="282" type="line"/>
      <point x="862" y="244"/>
      <point x="681" y="189"/>
    </contour>
    <contour>
      <point x="1443" y="1138" type="line"/>
      <point x="934" y="1138" type="line"/>
      <point x="957" y="1279" type="line"/>
      <point x="1467" y="1279" type="line"/>
    </contour>
    <contour>
      <point x="449" y="1020" type="qcurve" smooth="yes"/>
      <point x="437" y="951"/>
      <point x="550" y="848"/>
      <point x="635" y="848" type="qcurve" smooth="yes"/>
      <point x="717" y="848" type="line"/>
      <point x="696" y="714" type="line"/>
      <point x="606" y="714" type="line" smooth="yes"/>
      <point x="480" y="714"/>
      <point x="260" y="896"/>
      <point x="284" y="1041" type="qcurve" smooth="yes"/>
      <point x="300" y="1146"/>
      <point x="478" y="1292"/>
      <point x="609" y="1292" type="qcurve" smooth="yes"/>
      <point x="658" y="1292"/>
      <point x="742" y="1273"/>
      <point x="775" y="1255" type="qcurve"/>
      <point x="736" y="1132" type="line"/>
      <point x="700" y="1147"/>
      <point x="652" y="1155"/>
      <point x="609" y="1155" type="qcurve" smooth="yes"/>
      <point x="544" y="1155"/>
      <point x="460" y="1082"/>
    </contour>
    <contour>
      <point x="1093" y="1291" type="move" name="top"/>
    </contour>
  </outline>
</glyph>
<glyph name="nadeva" format="1">
  <advance width="1074"/>
  <unicode hex="0928"/>
  <outline>
    <contour>
      <point x="908" y="805" type="line"/>
      <point x="885" y="659" type="line"/>
      <point x="378" y="659" type="line"/>
      <point x="458" y="714" type="line"/>
      <point x="423" y="513" type="line" smooth="yes"/>
      <point x="415" y="453"/>
      <point x="356" y="394"/>
      <point x="308" y="394" type="qcurve" smooth="yes"/>
      <point x="245" y="394"/>
      <point x="162" y="557"/>
      <point x="180" y="667" type="qcurve" smooth="yes"/>
      <point x="190" y="730"/>
      <point x="279" y="805"/>
      <point x="365" y="805" type="qcurve" smooth="yes"/>
    </contour>
    <contour>
      <point x="182" y="1279" type="line"/>
      <point x="1313" y="1279" type="line"/>
      <point x="1292" y="1138" type="line"/>
      <point x="160" y="1138" type="line"/>
    </contour>
    <contour>
      <point x="890" y="1198" type="line"/>
      <point x="1059" y="1198" type="line"/>
      <point x="862" y="0" type="line"/>
      <point x="692" y="0" type="line"/>
    </contour>
    <contour>
      <point x="932" y="1291" type="move" name="top"/>
    </contour>
  </outline>
</glyph>
<glyph name="nnnadeva" format="1">
  <advance width="1074"/>
  <unicode hex="0929"/>
  <outline>
    <component base="nadeva" xOffset="-20"/>
    <component base="nuktadeva" xOffset="1055"/>
    <contour>
      <point x="951" y="1279" type="move" name="top"/>
    </contour>
  </outline>
</glyph>
<glyph name="padeva" format="1">
  <advance width="1094"/>
  <unicode hex="092A"/>
  <outline>
    <contour>
      <point x="1366" y="1138" type="line"/>
      <point x="212" y="1138" type="line"/>
      <point x="242" y="1279" type="line"/>
      <point x="1396" y="1279" type="line"/>
    </contour>
    <contour>
      <point x="563" y="1208" type="line"/>
      <point x="473" y="787" type="line" smooth="yes"/>
      <point x="447" y="662"/>
      <point x="524" y="554"/>
      <point x="604" y="554" type="qcurve" smooth="yes"/>
      <point x="688" y="554"/>
      <point x="842" y="625"/>
      <point x="917" y="716" type="qcurve"/>
      <point x="874" y="513" type="line"/>
      <point x="813" y="461"/>
      <point x="666" y="413"/>
      <point x="578" y="413" type="qcurve" smooth="yes"/>
      <point x="419" y="413"/>
      <point x="260" y="615"/>
      <point x="305" y="826" type="qcurve" smooth="yes"/>
      <point x="386" y="1208" type="line"/>
    </contour>
    <contour>
      <point x="951" y="1198" type="line"/>
      <point x="1128" y="1198" type="line"/>
      <point x="873" y="0" type="line"/>
      <point x="696" y="0" type="line"/>
    </contour>
    <contour>
      <point x="999" y="1291" type="move" name="top"/>
    </contour>
  </outline>
</glyph>
<glyph name="phadeva" format="1">
  <advance width="1493"/>
  <unicode hex="092B"/>
  <outline>
    <contour>
      <point x="1163" y="1279" type="line"/>
      <point x="1732" y="1279" type="line"/>
      <point x="1709" y="1138" type="line"/>
      <point x="1140" y="1138" type="line"/>
    </contour>
    <contour>
      <point x="917" y="790" type="line"/>
      <point x="955" y="815"/>
      <point x="1097" y="861"/>
      <point x="1186" y="861" type="qcurve" smooth="yes"/>
      <point x="1343" y="861"/>
      <point x="1504" y="665"/>
      <point x="1480" y="514" type="qcurve" smooth="yes"/>
      <point x="1464" y="421"/>
      <point x="1365" y="242"/>
      <point x="1298" y="171" type="qcurve"/>
      <point x="1145" y="201" type="line"/>
      <point x="1220" y="289"/>
      <point x="1294" y="435"/>
      <point x="1307" y="514" type="qcurve" smooth="yes"/>
      <point x="1322" y="604"/>
      <point x="1240" y="722"/>
      <point x="1151" y="722" type="qcurve" smooth="yes"/>
      <point x="1083" y="722"/>
      <point x="946" y="656"/>
      <point x="886" y="600" type="qcurve"/>
    </contour>
    <component base="padeva" xOffset="-6"/>
    <contour>
      <point x="703" y="12" type="move" name="btm"/>
    </contour>
    <contour>
      <point x="905" y="1291" type="move" name="top"/>
    </contour>
  </outline>
</glyph>
<glyph name="badeva" format="1">
  <advance width="1071"/>
  <unicode hex="092C"/>
  <outline>
    <contour>
      <point x="709" y="371" type="line"/>
      <point x="610" y="292" type="line"/>
      <point x="420" y="819" type="line"/>
      <point x="517" y="894" type="line"/>
    </contour>
    <component base="vadeva" xOffset="-7"/>
    <contour>
      <point x="938" y="1291" type="move" name="top"/>
    </contour>
  </outline>
</glyph>
<glyph name="bhadeva" format="1">
  <advance width="1130"/>
  <unicode hex="092D"/>
  <outline>
    <contour>
      <point x="941" y="1198" type="line"/>
      <point x="1115" y="1198" type="line"/>
      <point x="912" y="0" type="line"/>
      <point x="738" y="0" type="line"/>
    </contour>
    <contour>
      <point x="400" y="689" type="line"/>
      <point x="943" y="689" type="line"/>
      <point x="918" y="543" type="line"/>
      <point x="375" y="543" type="line"/>
    </contour>
    <contour>
      <point x="1352" y="1138" type="line"/>
      <point x="831" y="1138" type="line"/>
      <point x="855" y="1279" type="line"/>
      <point x="1376" y="1279" type="line"/>
    </contour>
    <contour>
      <point x="578" y="959" type="qcurve" smooth="yes"/>
      <point x="498" y="489" type="line" smooth="yes"/>
      <point x="489" y="430"/>
      <point x="431" y="369"/>
      <point x="382" y="369" type="qcurve" smooth="yes"/>
      <point x="297" y="369"/>
      <point x="167" y="518"/>
      <point x="182" y="603" type="qcurve" smooth="yes"/>
      <point x="188" y="642"/>
      <point x="257" y="689"/>
      <point x="313" y="689" type="qcurve" smooth="yes"/>
      <point x="377" y="689" type="line"/>
      <point x="344" y="603" type="line"/>
      <point x="405" y="966" type="line" smooth="yes"/>
      <point x="421" y="1058"/>
      <point x="370" y="1141"/>
      <point x="325" y="1140" type="qcurve" smooth="yes"/>
      <point x="288" y="1139"/>
      <point x="240" y="1123"/>
      <point x="199" y="1101" type="qcurve"/>
      <point x="196" y="1239" type="line"/>
      <point x="228" y="1258"/>
      <point x="312" y="1286"/>
      <point x="370" y="1286" type="qcurve" smooth="yes"/>
      <point x="486" y="1286"/>
      <point x="606" y="1125"/>
    </contour>
    <contour>
      <point x="987" y="1291" type="move" name="top"/>
    </contour>
  </outline>
</glyph>
<glyph name="madeva" format="1">
  <advance width="1161"/>
  <unicode hex="092E"/>
  <outline>
    <contour>
      <point x="972" y="1198" type="line"/>
      <point x="1147" y="1198" type="line"/>
      <point x="944" y="0" type="line"/>
      <point x="769" y="0" type="line"/>
    </contour>
    <contour>
      <point x="1384" y="1138" type="line"/>
      <point x="164" y="1138" type="line"/>
      <point x="187" y="1279" type="line"/>
      <point x="1408" y="1279" type="line"/>
    </contour>
    <contour>
      <point x="400" y="689" type="line"/>
      <point x="976" y="689" type="line"/>
      <point x="952" y="543" type="line"/>
      <point x="375" y="543" type="line"/>
    </contour>
    <contour>
      <point x="614" y="1169" type="line"/>
      <point x="498" y="489" type="line" smooth="yes"/>
      <point x="489" y="430"/>
      <point x="431" y="369"/>
      <point x="382" y="369" type="qcurve" smooth="yes"/>
      <point x="297" y="369"/>
      <point x="167" y="518"/>
      <point x="182" y="603" type="qcurve" smooth="yes"/>
      <point x="188" y="642"/>
      <point x="257" y="689"/>
      <point x="313" y="689" type="qcurve" smooth="yes"/>
      <point x="377" y="689" type="line"/>
      <point x="344" y="603" type="line"/>
      <point x="439" y="1169" type="line"/>
    </contour>
    <contour>
      <point x="1017" y="1291" type="move" name="top"/>
    </contour>
  </outline>
</glyph>
<glyph name="yadeva" format="1">
  <advance width="1187"/>
  <unicode hex="092F"/>
  <outline>
    <contour>
      <point x="242" y="1279" type="line"/>
      <point x="1489" y="1279" type="line"/>
      <point x="1459" y="1138" type="line"/>
      <point x="212" y="1138" type="line"/>
    </contour>
    <contour>
      <point x="419" y="1182" type="qcurve"/>
      <point x="625" y="1182" type="line"/>
      <point x="675" y="1139"/>
      <point x="729" y="991"/>
      <point x="713" y="916" type="qcurve" smooth="yes"/>
      <point x="688" y="800"/>
      <point x="499" y="632"/>
      <point x="378" y="627" type="qcurve"/>
      <point x="394" y="677" type="line"/>
      <point x="408" y="568"/>
      <point x="543" y="433"/>
      <point x="645" y="433" type="qcurve" smooth="yes"/>
      <point x="727" y="433"/>
      <point x="849" y="474"/>
      <point x="917" y="527" type="qcurve"/>
      <point x="878" y="342" type="line"/>
      <point x="834" y="320"/>
      <point x="712" y="286"/>
      <point x="620" y="286" type="qcurve" smooth="yes"/>
      <point x="467" y="286"/>
      <point x="229" y="514"/>
      <point x="211" y="687" type="qcurve"/>
      <point x="223" y="718" type="line"/>
      <point x="371" y="737"/>
      <point x="519" y="845"/>
      <point x="536" y="929" type="qcurve" smooth="yes"/>
      <point x="551" y="998"/>
      <point x="503" y="1119"/>
    </contour>
    <contour>
      <point x="1044" y="1198" type="line"/>
      <point x="1221" y="1198" type="line"/>
      <point x="966" y="0" type="line"/>
      <point x="789" y="0" type="line"/>
    </contour>
    <contour>
      <point x="1092" y="1291" type="move" name="top"/>
    </contour>
  </outline>
</glyph>
<glyph name="radeva" format="1">
  <advance width="836"/>
  <unicode hex="0930"/>
  <outline>
    <contour>
      <point x="764" y="81" type="line"/>
      <point x="621" y="-13" type="line"/>
      <point x="139" y="728" type="line"/>
      <point x="277" y="824" type="line"/>
      <point x="431" y="637" type="line"/>
      <point x="424" y="590" type="line"/>
    </contour>
    <contour>
      <point x="378" y="657" type="line"/>
      <point x="479" y="657"/>
      <point x="588" y="766"/>
      <point x="609" y="889" type="qcurve" smooth="yes"/>
      <point x="662" y="1205" type="line"/>
      <point x="836" y="1205" type="line"/>
      <point x="779" y="866" type="line" smooth="yes"/>
      <point x="748" y="682"/>
      <point x="539" y="480"/>
      <point x="348" y="480" type="qcurve"/>
    </contour>
    <contour>
      <point x="164" y="1138" type="line"/>
      <point x="187" y="1279" type="line"/>
      <point x="1083" y="1279" type="line"/>
      <point x="1059" y="1138" type="line"/>
    </contour>
    <contour>
      <point x="264" y="12" type="move" name="btm"/>
    </contour>
    <contour>
      <point x="703" y="1292" type="move" name="top"/>
    </contour>
  </outline>
</glyph>
<glyph name="rradeva" format="1">
  <advance width="827"/>
  <unicode hex="0931"/>
  <outline>
    <component base="radeva" xOffset="-16"/>
    <component base="nuktadeva" xOffset="909"/>
    <contour>
      <point x="359" y="-5" type="move" name="btm"/>
    </contour>
    <contour>
      <point x="685" y="1279" type="move" name="top"/>
    </contour>
  </outline>
</glyph>
<glyph name="ladeva" format="1">
  <advance width="1526"/>
  <unicode hex="0932"/>
  <outline>
    <contour>
      <point x="1381" y="1198" type="line"/>
      <point x="1560" y="1198" type="line"/>
      <point x="1305" y="0" type="line"/>
      <point x="1126" y="0" type="line"/>
    </contour>
    <contour>
      <point x="212" y="1138" type="line"/>
      <point x="242" y="1279" type="line"/>
      <point x="1828" y="1279" type="line"/>
      <point x="1798" y="1138" type="line"/>
    </contour>
    <contour>
      <point x="886" y="488" type="qcurve"/>
      <point x="718" y="424" type="line"/>
      <point x="750" y="574"/>
      <point x="653" y="722"/>
      <point x="570" y="722" type="qcurve" smooth="yes"/>
      <point x="506" y="722"/>
      <point x="391" y="616"/>
      <point x="370" y="517" type="qcurve" smooth="yes"/>
      <point x="347" y="411"/>
      <point x="389" y="216"/>
      <point x="461" y="97" type="qcurve"/>
      <point x="304" y="37" type="line"/>
      <point x="228" y="152"/>
      <point x="169" y="399"/>
      <point x="198" y="535" type="qcurve" smooth="yes"/>
      <point x="229" y="684"/>
      <point x="451" y="880"/>
      <point x="589" y="880" type="qcurve" smooth="yes"/>
      <point x="758" y="880"/>
      <point x="922" y="661"/>
    </contour>
    <contour>
      <point x="1351" y="831" type="qcurve"/>
      <point x="1310" y="640" type="line"/>
      <point x="1282" y="682"/>
      <point x="1206" y="737"/>
      <point x="1148" y="737" type="qcurve" smooth="yes"/>
      <point x="1070" y="737"/>
      <point x="930" y="590"/>
      <point x="896" y="428" type="qcurve" smooth="yes"/>
      <point x="868" y="298" type="line"/>
      <point x="691" y="298" type="line"/>
      <point x="725" y="457" type="line" smooth="yes"/>
      <point x="763" y="636"/>
      <point x="1016" y="883"/>
      <point x="1172" y="883" type="qcurve" smooth="yes"/>
      <point x="1224" y="883"/>
      <point x="1318" y="852"/>
    </contour>
    <contour>
      <point x="1433" y="1291" type="move" name="top"/>
    </contour>
  </outline>
</glyph>
<glyph name="lladeva" format="1">
  <advance width="1544"/>
  <unicode hex="0933"/>
  <outline>
    <contour>
      <point x="1767" y="1138" type="line"/>
      <point x="164" y="1138" type="line"/>
      <point x="187" y="1279" type="line"/>
      <point x="1791" y="1279" type="line"/>
    </contour>
    <contour>
      <point x="1462" y="797" type="line"/>
      <point x="1285" y="797" type="line"/>
      <point x="1353" y="1198" type="line"/>
      <point x="1530" y="1198" type="line"/>
    </contour>
    <contour>
      <point x="745" y="491" type="qcurve" smooth="yes"/>
      <point x="769" y="635"/>
      <point x="677" y="763"/>
      <point x="573" y="763" type="qcurve" smooth="yes"/>
      <point x="487" y="763"/>
      <point x="349" y="628"/>
      <point x="325" y="488" type="qcurve" smooth="yes"/>
      <point x="301" y="352"/>
      <point x="400" y="217"/>
      <point x="488" y="217" type="qcurve" smooth="yes"/>
      <point x="582" y="217"/>
      <point x="721" y="352"/>
    </contour>
    <contour>
      <point x="921" y="600" type="qcurve"/>
      <point x="810" y="590" type="line"/>
      <point x="856" y="734"/>
      <point x="1095" y="899"/>
      <point x="1217" y="899" type="qcurve" smooth="yes"/>
      <point x="1412" y="899"/>
      <point x="1552" y="660"/>
      <point x="1525" y="495" type="qcurve" smooth="yes"/>
      <point x="1493" y="311"/>
      <point x="1258" y="82"/>
      <point x="1099" y="82" type="qcurve" smooth="yes"/>
      <point x="978" y="82"/>
      <point x="797" y="216"/>
      <point x="781" y="338" type="qcurve"/>
      <point x="865" y="349" type="line"/>
      <point x="831" y="235"/>
      <point x="627" y="88"/>
      <point x="471" y="84" type="qcurve" smooth="yes"/>
      <point x="303" y="80"/>
      <point x="134" y="311"/>
      <point x="165" y="496" type="qcurve" smooth="yes"/>
      <point x="197" y="681"/>
      <point x="427" y="899"/>
      <point x="598" y="899" type="qcurve" smooth="yes"/>
      <point x="750" y="899"/>
      <point x="922" y="720"/>
    </contour>
    <contour>
      <point x="960" y="502" type="qcurve" smooth="yes"/>
      <point x="936" y="356"/>
      <point x="1029" y="223"/>
      <point x="1118" y="223" type="qcurve" smooth="yes"/>
      <point x="1205" y="223"/>
      <point x="1339" y="365"/>
      <point x="1361" y="500" type="qcurve" smooth="yes"/>
      <point x="1383" y="630"/>
      <point x="1292" y="764"/>
      <point x="1204" y="764" type="qcurve" smooth="yes"/>
      <point x="1120" y="764"/>
      <point x="983" y="634"/>
    </contour>
    <contour>
      <point x="1053" y="13" type="move" name="btm"/>
    </contour>
    <contour>
      <point x="1485" y="1291" type="move" name="top"/>
    </contour>
  </outline>
</glyph>
<glyph name="llladeva" format="1">
  <advance width="1505"/>
  <unicode hex="0934"/>
  <outline>
    <component base="lladeva" xOffset="-37"/>
    <component base="nuktadeva" xOffset="1053" yOffset="-100"/>
    <contour>
      <point x="951" y="25" type="move" name="btm"/>
    </contour>
    <contour>
      <point x="1243" y="1279" type="move" name="top"/>
    </contour>
  </outline>
</glyph>
<glyph name="vadeva" format="1">
  <advance width="1098"/>
  <unicode hex="0935"/>
  <outline>
    <contour>
      <point x="1321" y="1138" type="line"/>
      <point x="164" y="1138" type="line"/>
      <point x="187" y="1279" type="line"/>
      <point x="1345" y="1279" type="line"/>
    </contour>
    <contour>
      <point x="784" y="298" type="line"/>
      <point x="740" y="262"/>
      <point x="582" y="214"/>
      <point x="504" y="214" type="qcurve" smooth="yes"/>
      <point x="328" y="214"/>
      <point x="139" y="434"/>
      <point x="165" y="596" type="qcurve" smooth="yes"/>
      <point x="191" y="743"/>
      <point x="429" y="945"/>
      <point x="619" y="945" type="qcurve" smooth="yes"/>
      <point x="708" y="945"/>
      <point x="855" y="901"/>
      <point x="893" y="873" type="qcurve"/>
      <point x="866" y="708" type="line"/>
      <point x="818" y="756"/>
      <point x="693" y="804"/>
      <point x="616" y="804" type="qcurve" smooth="yes"/>
      <point x="511" y="804"/>
      <point x="356" y="686"/>
      <point x="338" y="584" type="qcurve" smooth="yes"/>
      <point x="319" y="473"/>
      <point x="428" y="358"/>
      <point x="530" y="358" type="qcurve" smooth="yes"/>
      <point x="601" y="358"/>
      <point x="756" y="415"/>
      <point x="815" y="479" type="qcurve"/>
    </contour>
    <contour>
      <point x="909" y="1198" type="line"/>
      <point x="1084" y="1198" type="line"/>
      <point x="881" y="0" type="line"/>
      <point x="706" y="0" type="line"/>
    </contour>
    <contour>
      <point x="953" y="1291" type="move" name="top"/>
    </contour>
  </outline>
</glyph>
<glyph name="shadeva" format="1">
  <advance width="1445"/>
  <unicode hex="0936"/>
  <outline>
    <contour>
      <point x="571" y="539" type="line"/>
      <point x="808" y="83" type="line"/>
      <point x="649" y="8" type="line"/>
      <point x="439" y="450" type="line"/>
    </contour>
    <contour>
      <point x="1301" y="1198" type="line"/>
      <point x="1479" y="1198" type="line"/>
      <point x="1224" y="0" type="line"/>
      <point x="1046" y="0" type="line"/>
    </contour>
    <contour>
      <point x="836" y="910" type="qcurve" smooth="yes"/>
      <point x="860" y="1021"/>
      <point x="776" y="1144"/>
      <point x="699" y="1144" type="qcurve" smooth="yes"/>
      <point x="621" y="1144"/>
      <point x="513" y="1047"/>
      <point x="498" y="973" type="qcurve" smooth="yes"/>
      <point x="490" y="937"/>
      <point x="490" y="902"/>
      <point x="492" y="871" type="qcurve"/>
      <point x="350" y="844" type="line"/>
      <point x="342" y="877"/>
      <point x="338" y="949"/>
      <point x="350" y="1005" type="qcurve" smooth="yes"/>
      <point x="376" y="1128"/>
      <point x="585" y="1290"/>
      <point x="728" y="1290" type="qcurve" smooth="yes"/>
      <point x="880" y="1290"/>
      <point x="1038" y="1080"/>
      <point x="999" y="900" type="qcurve" smooth="yes"/>
      <point x="952" y="676"/>
      <point x="525" y="364"/>
      <point x="348" y="364" type="qcurve" smooth="yes"/>
      <point x="299" y="364"/>
      <point x="226" y="423"/>
      <point x="243" y="502" type="qcurve" smooth="yes"/>
      <point x="258" y="573"/>
      <point x="373" y="675"/>
      <point x="435" y="675" type="qcurve" smooth="yes"/>
      <point x="480" y="675"/>
      <point x="543" y="629"/>
      <point x="569" y="573" type="qcurve"/>
      <point x="509" y="579" type="line"/>
      <point x="643" y="616"/>
      <point x="810" y="787"/>
    </contour>
    <contour>
      <point x="1187" y="1138" type="line"/>
      <point x="1217" y="1279" type="line"/>
      <point x="1747" y="1279" type="line"/>
      <point x="1717" y="1138" type="line"/>
    </contour>
    <contour>
      <point x="1352" y="1291" type="move" name="top"/>
    </contour>
  </outline>
</glyph>
<glyph name="ssadeva" format="1">
  <advance width="1078"/>
  <unicode hex="0937"/>
  <outline>
    <contour>
      <point x="809" y="591" type="line"/>
      <point x="707" y="512" type="line"/>
      <point x="469" y="1150" type="line"/>
      <point x="567" y="1225" type="line"/>
    </contour>
    <component base="padeva" xOffset="-2"/>
    <contour>
      <point x="933" y="1291" type="move" name="top"/>
    </contour>
  </outline>
</glyph>
<glyph name="sadeva" format="1">
  <advance width="1349.0"/>
  <unicode hex="0938"/>
  <outline>
    <contour>
      <point x="212" y="1138" type="line"/>
      <point x="242" y="1279" type="line"/>
      <point x="1651" y="1279" type="line"/>
      <point x="1621" y="1138" type="line"/>
    </contour>
    <contour>
      <point x="619" y="672" type="line"/>
      <point x="1155" y="672" type="line"/>
      <point x="1125" y="531" type="line"/>
      <point x="534" y="531" type="line"/>
    </contour>
    <contour>
      <point x="1206" y="1198" type="line"/>
      <point x="1383" y="1198" type="line"/>
      <point x="1128" y="0" type="line"/>
      <point x="951" y="0" type="line"/>
    </contour>
    <contour>
      <point x="702" y="73" type="line"/>
      <point x="547" y="-5" type="line"/>
      <point x="172" y="749" type="line"/>
      <point x="310" y="835" type="line"/>
      <point x="442" y="654" type="line"/>
      <point x="434" y="616" type="line"/>
    </contour>
    <contour>
      <point x="373" y="651" type="line"/>
      <point x="475" y="651"/>
      <point x="592" y="766"/>
      <point x="618" y="889" type="qcurve" smooth="yes"/>
      <point x="685" y="1205" type="line"/>
      <point x="862" y="1205" type="line"/>
      <point x="790" y="866" type="line" smooth="yes"/>
      <point x="751" y="682"/>
      <point x="531" y="480"/>
      <point x="337" y="480" type="qcurve"/>
    </contour>
    <contour>
      <point x="1257" y="1291" type="move" name="top"/>
    </contour>
  </outline>
</glyph>
<glyph name="hadeva" format="1">
  <advance width="1038"/>
  <unicode hex="0939"/>
  <outline>
    <contour>
      <point x="556" y="941" type="qcurve" smooth="yes"/>
      <point x="839" y="941" type="line"/>
      <point x="803" y="902" type="line"/>
      <point x="853" y="1200" type="line"/>
      <point x="1023" y="1200" type="line"/>
      <point x="956" y="800" type="line"/>
      <point x="549" y="800" type="line" smooth="yes"/>
      <point x="477" y="800"/>
      <point x="390" y="732"/>
      <point x="381" y="678" type="qcurve" smooth="yes"/>
      <point x="370" y="617"/>
      <point x="434" y="540"/>
      <point x="507" y="508" type="qcurve"/>
      <point x="387" y="394" type="line"/>
      <point x="302" y="441"/>
      <point x="198" y="595"/>
      <point x="216" y="696" type="qcurve" smooth="yes"/>
      <point x="232" y="805"/>
      <point x="419" y="941"/>
    </contour>
    <contour>
      <point x="945" y="261" type="qcurve" smooth="yes"/>
      <point x="937" y="218"/>
      <point x="915" y="153"/>
      <point x="894" y="104" type="qcurve"/>
      <point x="736" y="119" type="line"/>
      <point x="755" y="161"/>
      <point x="769" y="207"/>
      <point x="776" y="250" type="qcurve" smooth="yes"/>
      <point x="788" y="320"/>
      <point x="704" y="423"/>
      <point x="610" y="423" type="qcurve" smooth="yes"/>
      <point x="506" y="423"/>
      <point x="362" y="294"/>
      <point x="346" y="200" type="qcurve" smooth="yes"/>
      <point x="322" y="61"/>
      <point x="514" y="-103"/>
      <point x="786" y="-104" type="qcurve"/>
      <point x="744" y="-245" type="line"/>
      <point x="418" y="-245"/>
      <point x="146" y="15"/>
      <point x="178" y="218" type="qcurve" smooth="yes"/>
      <point x="201" y="349"/>
      <point x="441" y="570"/>
      <point x="626" y="570" type="qcurve" smooth="yes"/>
      <point x="791" y="570"/>
      <point x="964" y="379"/>
    </contour>
    <contour>
      <point x="1254" y="1138" type="line"/>
      <point x="160" y="1138" type="line"/>
      <point x="182" y="1279" type="line"/>
      <point x="1278" y="1279" type="line"/>
    </contour>
    <contour>
      <point x="894" y="1291" type="move" name="top"/>
    </contour>
  </outline>
</glyph>
<glyph name="oevowelsigndevaKSH" format="1">
  <advance width="0.0"/>
  <unicode hex="093A"/>
  <outline>
    <contour>
      <point x="28" y="1462" type="line"/>
      <point x="-20" y="1175" type="line"/>
      <point x="-189" y="1175" type="line"/>
      <point x="-142" y="1462" type="line"/>
    </contour>
    <contour>
      <point x="-145" y="1278" type="move" name="_top"/>
    </contour>
  </outline>
</glyph>
<glyph name="avagrahadeva" format="1">
  <advance width="1010"/>
  <unicode hex="093D"/>
  <outline>
    <contour>
      <point x="903" y="262"/>
      <point x="669" y="84"/>
      <point x="508" y="84" type="qcurve" smooth="yes"/>
      <point x="403" y="84"/>
      <point x="247" y="128"/>
      <point x="147" y="191" type="qcurve"/>
      <point x="207" y="342" type="line"/>
      <point x="299" y="284"/>
      <point x="448" y="240"/>
      <point x="523" y="240" type="qcurve" smooth="yes"/>
      <point x="620" y="240"/>
      <point x="742" y="331"/>
      <point x="756" y="420" type="qcurve" smooth="yes"/>
      <point x="769" y="495"/>
      <point x="668" y="625"/>
      <point x="548" y="675" type="qcurve" smooth="yes"/>
      <point x="405" y="734"/>
      <point x="281" y="906"/>
      <point x="298" y="1013" type="qcurve" smooth="yes"/>
      <point x="318" y="1130"/>
      <point x="506" y="1279"/>
      <point x="661" y="1279" type="qcurve" smooth="yes"/>
      <point x="1033" y="1279" type="line"/>
      <point x="1010" y="1138" type="line"/>
      <point x="647" y="1138" type="line" smooth="yes"/>
      <point x="568" y="1138"/>
      <point x="482" y="1063"/>
      <point x="471" y="1003" type="qcurve" smooth="yes"/>
      <point x="462" y="947"/>
      <point x="543" y="860"/>
      <point x="668" y="806" type="qcurve" smooth="yes"/>
      <point x="813" y="744"/>
      <point x="952" y="547"/>
      <point x="929" y="411" type="qcurve" smooth="yes"/>
    </contour>
  </outline>
</glyph>
<glyph name="aavowelsigndeva" format="1">
  <advance width="542"/>
  <unicode hex="093E"/>
  <outline>
    <contour>
      <point x="357" y="1198" type="line"/>
      <point x="527" y="1198" type="line"/>
      <point x="329" y="0" type="line"/>
      <point x="160" y="0" type="line"/>
    </contour>
    <contour>
      <point x="758" y="1138" type="line"/>
      <point x="160" y="1138" type="line"/>
      <point x="182" y="1279" type="line"/>
      <point x="782" y="1279" type="line"/>
    </contour>
  </outline>
</glyph>
<glyph name="iivowelsigndeva" format="1">
  <advance width="564"/>
  <unicode hex="0940"/>
  <outline>
    <contour>
      <point x="430" y="1216" type="line"/>
      <point x="400" y="1378"/>
      <point x="257" y="1571"/>
      <point x="159" y="1571" type="qcurve" smooth="yes"/>
      <point x="101" y="1571"/>
      <point x="27" y="1509"/>
      <point x="14" y="1451" type="qcurve" smooth="yes"/>
      <point x="3" y="1397"/>
      <point x="24" y="1281"/>
      <point x="54" y="1235" type="qcurve"/>
      <point x="-127" y="1235" type="line"/>
      <point x="-144" y="1273"/>
      <point x="-161" y="1402"/>
      <point x="-145" y="1476" type="qcurve" smooth="yes"/>
      <point x="-123" y="1581"/>
      <point x="43" y="1712"/>
      <point x="169" y="1712" type="qcurve" smooth="yes"/>
      <point x="338" y="1712"/>
      <point x="558" y="1471"/>
      <point x="610" y="1216" type="qcurve"/>
    </contour>
    <component base="aavowelsigndeva"/>
  </outline>
</glyph>
<glyph name="uvowelsigndeva" format="1">
  <advance width="0.0"/>
  <unicode hex="0941"/>
  <outline>
    <contour>
      <point x="-561" y="-24" type="line"/>
      <point x="-504" y="9"/>
      <point x="-370" y="43"/>
      <point x="-318" y="43" type="qcurve" smooth="yes"/>
      <point x="-152" y="43"/>
      <point x="-17" y="-121"/>
      <point x="-36" y="-237" type="qcurve" smooth="yes"/>
      <point x="-56" y="-356"/>
      <point x="-253" y="-505"/>
      <point x="-423" y="-506" type="qcurve" smooth="yes"/>
      <point x="-532" y="-507"/>
      <point x="-761" y="-418"/>
      <point x="-868" y="-314" type="qcurve"/>
      <point x="-784" y="-178" type="line"/>
      <point x="-679" y="-284"/>
      <point x="-481" y="-363"/>
      <point x="-413" y="-363" type="qcurve" smooth="yes"/>
      <point x="-313" y="-363"/>
      <point x="-205" y="-290"/>
      <point x="-194" y="-229" type="qcurve" smooth="yes"/>
      <point x="-184" y="-171"/>
      <point x="-255" y="-102"/>
      <point x="-346" y="-102" type="qcurve" smooth="yes"/>
      <point x="-393" y="-102"/>
      <point x="-488" y="-126"/>
      <point x="-545" y="-157" type="qcurve"/>
    </contour>
    <contour>
      <point x="-362" y="12" type="move" name="_btm"/>
    </contour>
  </outline>
</glyph>
<glyph name="uuvowelsigndeva" format="1">
  <advance width="0.0"/>
  <unicode hex="0942"/>
  <outline>
    <contour>
      <point x="-211" y="-494" type="line"/>
      <point x="-242" y="-504"/>
      <point x="-324" y="-512"/>
      <point x="-367" y="-512" type="qcurve" smooth="yes"/>
      <point x="-512" y="-512"/>
      <point x="-681" y="-359"/>
      <point x="-659" y="-231" type="qcurve" smooth="yes"/>
      <point x="-639" y="-119"/>
      <point x="-451" y="30"/>
      <point x="-298" y="30" type="qcurve" smooth="yes"/>
      <point x="-159" y="30"/>
      <point x="85" y="-149"/>
      <point x="168" y="-344" type="qcurve"/>
      <point x="57" y="-443" type="line"/>
      <point x="-30" y="-255"/>
      <point x="-221" y="-114"/>
      <point x="-316" y="-114" type="qcurve" smooth="yes"/>
      <point x="-398" y="-114"/>
      <point x="-492" y="-191"/>
      <point x="-500" y="-243" type="qcurve" smooth="yes"/>
      <point x="-512" y="-313"/>
      <point x="-423" y="-380"/>
      <point x="-346" y="-380" type="qcurve" smooth="yes"/>
      <point x="-307" y="-380"/>
      <point x="-244" y="-374"/>
      <point x="-206" y="-363" type="qcurve"/>
    </contour>
    <contour>
      <point x="-362" y="12" type="move" name="_btm"/>
    </contour>
  </outline>
</glyph>
<glyph name="rvocalicvowelsigndeva" format="1">
  <advance width="0.0"/>
  <unicode hex="0943"/>
  <outline>
    <contour>
      <point x="-215" y="-462" type="line"/>
      <point x="-245" y="-478"/>
      <point x="-334" y="-496"/>
      <point x="-382" y="-496" type="qcurve" smooth="yes"/>
      <point x="-536" y="-496"/>
      <point x="-673" y="-339"/>
      <point x="-655" y="-222" type="qcurve" smooth="yes"/>
      <point x="-635" y="-103"/>
      <point x="-441" y="38"/>
      <point x="-313" y="38" type="qcurve" smooth="yes"/>
      <point x="-205" y="38" type="line"/>
      <point x="-226" y="-91" type="line"/>
      <point x="-298" y="-91" type="line" smooth="yes"/>
      <point x="-387" y="-91"/>
      <point x="-487" y="-171"/>
      <point x="-498" y="-234" type="qcurve" smooth="yes"/>
      <point x="-508" y="-295"/>
      <point x="-434" y="-371"/>
      <point x="-365" y="-371" type="qcurve" smooth="yes"/>
      <point x="-321" y="-371"/>
      <point x="-239" y="-352"/>
      <point x="-213" y="-342" type="qcurve"/>
    </contour>
    <contour>
      <point x="-353" y="12" type="move" name="_btm"/>
    </contour>
  </outline>
</glyph>
<glyph name="rrvocalicvowelsigndeva" format="1">
  <advance width="0.0"/>
  <unicode hex="0944"/>
  <outline>
    <contour>
      <point x="-230" y="-599" type="line"/>
      <point x="-258" y="-610"/>
      <point x="-343" y="-632"/>
      <point x="-387" y="-632" type="qcurve" smooth="yes"/>
      <point x="-499" y="-632"/>
      <point x="-605" y="-522"/>
      <point x="-590" y="-438" type="qcurve" smooth="yes"/>
      <point x="-579" y="-372"/>
      <point x="-452" y="-279"/>
      <point x="-364" y="-279" type="qcurve" smooth="yes"/>
      <point x="-288" y="-279" type="line"/>
      <point x="-302" y="-374" type="line"/>
      <point x="-308" y="-374" type="line" smooth="yes"/>
      <point x="-384" y="-374"/>
      <point x="-452" y="-415"/>
      <point x="-458" y="-449" type="qcurve" smooth="yes"/>
      <point x="-464" y="-481"/>
      <point x="-419" y="-519"/>
      <point x="-367" y="-519" type="qcurve" smooth="yes"/>
      <point x="-330" y="-519"/>
      <point x="-263" y="-503"/>
      <point x="-234" y="-494" type="qcurve"/>
    </contour>
    <contour>
      <point x="-215" y="-351" type="line"/>
      <point x="-244" y="-363"/>
      <point x="-327" y="-380"/>
      <point x="-367" y="-380" type="qcurve" smooth="yes"/>
      <point x="-496" y="-380"/>
      <point x="-624" y="-250"/>
      <point x="-610" y="-165" type="qcurve" smooth="yes"/>
      <point x="-596" y="-76"/>
      <point x="-426" y="38"/>
      <point x="-313" y="38" type="qcurve" smooth="yes"/>
      <point x="-205" y="38" type="line"/>
      <point x="-226" y="-91" type="line"/>
      <point x="-289" y="-91" type="line" smooth="yes"/>
      <point x="-382" y="-91"/>
      <point x="-453" y="-134"/>
      <point x="-460" y="-172" type="qcurve" smooth="yes"/>
      <point x="-466" y="-216"/>
      <point x="-402" y="-261"/>
      <point x="-344" y="-261" type="qcurve" smooth="yes"/>
      <point x="-310" y="-261"/>
      <point x="-249" y="-253"/>
      <point x="-220" y="-246" type="qcurve"/>
    </contour>
    <contour>
      <point x="-353" y="12" type="move" name="_btm"/>
    </contour>
  </outline>
</glyph>
<glyph name="ecandravowelsigndeva" format="1">
  <advance width="0.0"/>
  <unicode hex="0945"/>
  <outline>
    <contour>
      <point x="-268" y="1543" type="qcurve" smooth="yes"/>
      <point x="-181" y="1543"/>
      <point x="-3" y="1602"/>
      <point x="78" y="1670" type="qcurve"/>
      <point x="80" y="1537" type="line"/>
      <point x="16" y="1479"/>
      <point x="-172" y="1394"/>
      <point x="-297" y="1394" type="qcurve" smooth="yes"/>
      <point x="-406" y="1394"/>
      <point x="-584" y="1484"/>
      <point x="-636" y="1545" type="qcurve"/>
      <point x="-578" y="1681" type="line"/>
      <point x="-520" y="1613"/>
      <point x="-357" y="1543"/>
    </contour>
    <contour>
      <point x="-97" y="1291" type="move" name="_top"/>
    </contour>
  </outline>
</glyph>
<glyph name="eshortvowelsigndeva" format="1">
  <advance width="0.0"/>
  <unicode hex="0946"/>
  <outline>
    <contour>
      <point x="-180" y="1221" type="line"/>
      <point x="-162" y="1335" type="line" smooth="yes"/>
      <point x="-151" y="1400"/>
      <point x="-192" y="1460"/>
      <point x="-238" y="1460" type="qcurve" smooth="yes"/>
      <point x="-272" y="1460"/>
      <point x="-406" y="1428"/>
      <point x="-467" y="1428" type="qcurve" smooth="yes"/>
      <point x="-521" y="1428"/>
      <point x="-626" y="1474"/>
      <point x="-674" y="1525" type="qcurve"/>
      <point x="-611" y="1637" type="line"/>
      <point x="-578" y="1606"/>
      <point x="-489" y="1563"/>
      <point x="-439" y="1563" type="qcurve" smooth="yes"/>
      <point x="-388" y="1563"/>
      <point x="-226" y="1610"/>
      <point x="-168" y="1610" type="qcurve" smooth="yes"/>
      <point x="-66" y="1610"/>
      <point x="30" y="1467"/>
      <point x="10" y="1343" type="qcurve" smooth="yes"/>
      <point x="-11" y="1221" type="line"/>
    </contour>
    <contour>
      <point x="-143" y="1291" type="move" name="_top"/>
    </contour>
  </outline>
</glyph>
<glyph name="evowelsigndeva" format="1">
  <advance width="0.0"/>
  <unicode hex="0947"/>
  <outline>
    <contour>
      <point x="-178" y="1221" type="line"/>
      <point x="-497" y="1696" type="line"/>
      <point x="-352" y="1771" type="line"/>
      <point x="13" y="1221" type="line"/>
    </contour>
    <contour>
      <point x="-147" y="1291" type="move" name="_top"/>
    </contour>
  </outline>
</glyph>
<glyph name="aivowelsigndeva" format="1">
  <advance width="0.0"/>
  <unicode hex="0948"/>
  <outline>
    <contour>
      <point x="-202" y="1221" type="line"/>
      <point x="-646" y="1579" type="line"/>
      <point x="-531" y="1696" type="line"/>
      <point x="30" y="1221" type="line"/>
    </contour>
    <contour>
      <point x="-102" y="1221" type="line"/>
      <point x="-240" y="1777" type="line"/>
      <point x="-97" y="1825" type="line"/>
      <point x="44" y="1221" type="line"/>
    </contour>
    <contour>
      <point x="-97" y="1291" type="move" name="_top"/>
    </contour>
  </outline>
</glyph>
<glyph name="viramadeva" format="1">
  <advance width="0.0"/>
  <unicode hex="094D"/>
  <outline>
    <contour>
      <point x="-394" y="-91" type="line"/>
      <point x="19" y="-342" type="line"/>
      <point x="-78" y="-469" type="line"/>
      <point x="-487" y="-223" type="line"/>
    </contour>
    <contour>
      <point x="-353" y="12" type="move" name="_btm"/>
    </contour>
  </outline>
</glyph>
<glyph name="prishthaevowelsign" format="1">
  <advance width="542"/>
  <unicode hex="094E"/>
  <outline>
    <contour>
      <point x="357" y="1198" type="line"/>
      <point x="527" y="1198" type="line"/>
      <point x="329" y="0" type="line"/>
      <point x="160" y="0" type="line"/>
    </contour>
    <contour>
      <point x="757" y="1138" type="line"/>
      <point x="348" y="1138" type="line"/>
      <point x="370" y="1279" type="line"/>
      <point x="781" y="1279" type="line"/>
    </contour>
  </outline>
</glyph>
<glyph name="awvowelsigndevaKSH" format="1">
  <advance width="564"/>
  <unicode hex="094F"/>
  <outline>
    <contour>
      <point x="442" y="1213" type="line"/>
      <point x="503" y="1502" type="line" smooth="yes"/>
      <point x="513" y="1547"/>
      <point x="478" y="1600"/>
      <point x="440" y="1600" type="qcurve" smooth="yes"/>
      <point x="399" y="1600"/>
      <point x="292" y="1575"/>
      <point x="244" y="1575" type="qcurve" smooth="yes"/>
      <point x="184" y="1575"/>
      <point x="85" y="1617"/>
      <point x="42" y="1669" type="qcurve"/>
      <point x="111" y="1774" type="line"/>
      <point x="157" y="1727"/>
      <point x="229" y="1701"/>
      <point x="267" y="1701" type="qcurve" smooth="yes"/>
      <point x="322" y="1701"/>
      <point x="457" y="1738"/>
      <point x="513" y="1738" type="qcurve" smooth="yes"/>
      <point x="599" y="1738"/>
      <point x="688" y="1622"/>
      <point x="664" y="1508" type="qcurve" smooth="yes"/>
      <point x="601" y="1213" type="line"/>
    </contour>
    <contour>
      <point x="395" y="1186" type="line"/>
      <point x="351" y="1290" type="line" smooth="yes"/>
      <point x="332" y="1336"/>
      <point x="273" y="1374"/>
      <point x="229" y="1374" type="qcurve" smooth="yes"/>
      <point x="184" y="1374"/>
      <point x="66" y="1345"/>
      <point x="21" y="1345" type="qcurve" smooth="yes"/>
      <point x="-38" y="1345"/>
      <point x="-142" y="1389"/>
      <point x="-181" y="1423" type="qcurve"/>
      <point x="-120" y="1529" type="line"/>
      <point x="-86" y="1500"/>
      <point x="-12" y="1471"/>
      <point x="32" y="1471" type="qcurve" smooth="yes"/>
      <point x="75" y="1471"/>
      <point x="222" y="1512"/>
      <point x="274" y="1512" type="qcurve" smooth="yes"/>
      <point x="349" y="1512"/>
      <point x="461" y="1435"/>
      <point x="493" y="1340" type="qcurve" smooth="yes"/>
      <point x="545" y="1186" type="line"/>
    </contour>
    <component base="aavowelsigndeva"/>
  </outline>
</glyph>
<glyph name="omdeva" format="1">
  <advance width="1826"/>
  <unicode hex="0950"/>
  <outline>
    <contour>
      <point x="1260" y="274" type="qcurve"/>
      <point x="1302" y="403" type="line"/>
      <point x="1332" y="393"/>
      <point x="1391" y="381"/>
      <point x="1423" y="381" type="qcurve" smooth="yes"/>
      <point x="1492" y="381"/>
      <point x="1605" y="488"/>
      <point x="1625" y="610" type="qcurve" smooth="yes"/>
      <point x="1646" y="732"/>
      <point x="1582" y="839"/>
      <point x="1525" y="839" type="qcurve" smooth="yes"/>
      <point x="1461" y="839"/>
      <point x="1347" y="719"/>
      <point x="1310" y="615" type="qcurve" smooth="yes"/>
      <point x="1250" y="447"/>
      <point x="1068" y="298"/>
      <point x="940" y="298" type="qcurve" smooth="yes"/>
      <point x="882" y="298"/>
      <point x="818" y="314"/>
      <point x="787" y="322" type="qcurve"/>
      <point x="812" y="468" type="line"/>
      <point x="849" y="453"/>
      <point x="895" y="439"/>
      <point x="947" y="439" type="qcurve" smooth="yes"/>
      <point x="1005" y="439"/>
      <point x="1106" y="525"/>
      <point x="1147" y="626" type="qcurve" smooth="yes"/>
      <point x="1219" y="813"/>
      <point x="1415" y="977"/>
      <point x="1538" y="977" type="qcurve" smooth="yes"/>
      <point x="1678" y="977"/>
      <point x="1816" y="770"/>
      <point x="1789" y="604" type="qcurve" smooth="yes"/>
      <point x="1762" y="450"/>
      <point x="1561" y="245"/>
      <point x="1415" y="245" type="qcurve" smooth="yes"/>
      <point x="1366" y="245"/>
      <point x="1301" y="260"/>
    </contour>
    <contour>
      <point x="399" y="631" type="qcurve"/>
      <point x="424" y="772" type="line"/>
      <point x="601" y="772"/>
      <point x="761" y="899"/>
      <point x="776" y="982" type="qcurve" smooth="yes"/>
      <point x="788" y="1052"/>
      <point x="711" y="1142"/>
      <point x="621" y="1142" type="qcurve" smooth="yes"/>
      <point x="573" y="1142"/>
      <point x="493" y="1120"/>
      <point x="421" y="1087" type="qcurve"/>
      <point x="423" y="1227" type="line"/>
      <point x="480" y="1255"/>
      <point x="594" y="1284"/>
      <point x="645" y="1284" type="qcurve" smooth="yes"/>
      <point x="807" y="1284"/>
      <point x="974" y="1124"/>
      <point x="950" y="979" type="qcurve" smooth="yes"/>
      <point x="923" y="822"/>
      <point x="625" y="631"/>
    </contour>
    <contour>
      <point x="558" y="781" type="line"/>
      <point x="706" y="781"/>
      <point x="908" y="588"/>
      <point x="882" y="432" type="qcurve" smooth="yes"/>
      <point x="855" y="274"/>
      <point x="629" y="94"/>
      <point x="470" y="94" type="qcurve" smooth="yes"/>
      <point x="400" y="94"/>
      <point x="274" y="121"/>
      <point x="182" y="158" type="qcurve"/>
      <point x="230" y="302" type="line"/>
      <point x="306" y="267"/>
      <point x="407" y="236"/>
      <point x="469" y="236" type="qcurve" smooth="yes"/>
      <point x="566" y="236"/>
      <point x="693" y="349"/>
      <point x="709" y="440" type="qcurve" smooth="yes"/>
      <point x="723" y="525"/>
      <point x="626" y="651"/>
      <point x="520" y="651" type="qcurve"/>
    </contour>
    <component base="candrabindudeva" xOffset="1741" yOffset="-318"/>
  </outline>
</glyph>
<glyph name="udattadeva" format="1">
  <advance width="0.0"/>
  <unicode hex="0951"/>
  <outline>
    <contour>
      <point x="70" y="1703" type="line"/>
      <point x="21" y="1416" type="line"/>
      <point x="-154" y="1416" type="line"/>
      <point x="-104" y="1703" type="line"/>
    </contour>
    <contour>
      <point x="-147" y="1291" type="move" name="_top"/>
    </contour>
  </outline>
</glyph>
<glyph name="anudattadeva" format="1">
  <advance width="0.0"/>
  <unicode hex="0952"/>
  <outline>
    <contour>
      <point x="-924" y="-213" type="line"/>
      <point x="-901" y="-77" type="line"/>
      <point x="-223" y="-77" type="line"/>
      <point x="-246" y="-213" type="line"/>
    </contour>
    <contour>
      <point x="-353" y="12" type="move" name="_btm"/>
    </contour>
  </outline>
</glyph>
<glyph name="uni0953" format="1">
  <advance width="0.0"/>
  <unicode hex="0953"/>
  <outline>
    <contour>
      <point x="17" y="1420" type="line"/>
      <point x="-134" y="1420" type="line"/>
      <point x="-282" y="1801" type="line"/>
      <point x="-53" y="1801" type="line"/>
    </contour>
    <contour>
      <point x="8" y="-9" type="move" name="x4"/>
    </contour>
  </outline>
</glyph>
<glyph name="candralongevowelsigndeva" format="1">
  <advance width="0.0"/>
  <unicode hex="0955"/>
  <outline>
    <component base="ecandravowelsigndeva" yScale="0.888837277889" xOffset="274" yOffset="348"/>
    <component base="anudattadeva" xOffset="256" yOffset="1593"/>
    <contour>
      <point x="-145" y="1279" type="move" name="_top"/>
    </contour>
  </outline>
</glyph>
<glyph name="uevowelsigndevaKSH" format="1">
  <advance width="0.0"/>
  <unicode hex="0956"/>
  <outline>
    <contour>
      <point x="75" y="-190" type="line"/>
      <point x="-18" y="-258"/>
      <point x="-225" y="-326"/>
      <point x="-351" y="-326" type="qcurve" smooth="yes"/>
      <point x="-467" y="-326"/>
      <point x="-662" y="-262"/>
      <point x="-741" y="-196" type="qcurve"/>
      <point x="-666" y="-69" type="line"/>
      <point x="-593" y="-130"/>
      <point x="-410" y="-183"/>
      <point x="-323" y="-183" type="qcurve" smooth="yes"/>
      <point x="-223" y="-183"/>
      <point x="-32" y="-120"/>
      <point x="46" y="-65" type="qcurve"/>
    </contour>
    <contour>
      <point x="-367" y="12" type="move" name="_btm"/>
    </contour>
  </outline>
</glyph>
<glyph name="uuevowelsigndevaKSH" format="1">
  <advance width="0.0"/>
  <unicode hex="0957"/>
  <outline>
    <component base="uevowelsigndevaKSH" yScale="0.915369153023" xOffset="-61" yOffset="-9"/>
    <component base="uevowelsigndevaKSH" xScale="1.05154466629" yScale="0.889850735664" xOffset="-44" yOffset="-259"/>
    <contour>
      <point x="-355" y="0" type="move" name="_btm"/>
    </contour>
  </outline>
</glyph>
<glyph name="qadeva" format="1">
  <advance width="1472"/>
  <unicode hex="0958"/>
  <outline>
    <component base="kadeva" xOffset="-17"/>
    <component base="nuktadeva" xOffset="938"/>
    <contour>
      <point x="650" y="0" type="move" name="btm"/>
    </contour>
    <contour>
      <point x="860" y="1279" type="move" name="top"/>
    </contour>
  </outline>
</glyph>
<glyph name="khhadeva" format="1">
  <advance width="1632"/>
  <unicode hex="0959"/>
  <outline>
    <component base="khadeva" xOffset="-19"/>
    <component base="nuktadeva" xOffset="1016"/>
    <contour>
      <point x="1371" y="1279" type="move" name="top"/>
    </contour>
  </outline>
</glyph>
<glyph name="ghhadeva" format="1">
  <advance width="1160"/>
  <unicode hex="095A"/>
  <outline>
    <component base="gadeva" xOffset="-20"/>
    <component base="nuktadeva" xOffset="1065"/>
    <contour>
      <point x="1007" y="1279" type="move" name="top"/>
    </contour>
  </outline>
</glyph>
<glyph name="zadeva" format="1">
  <advance width="1300"/>
  <unicode hex="095B"/>
  <outline>
    <component base="jadeva" xOffset="-30"/>
    <component base="nuktadeva" xOffset="970" yOffset="-79"/>
    <contour>
      <point x="1276" y="1279" type="move" name="top"/>
    </contour>
  </outline>
</glyph>
<glyph name="fadeva" format="1">
  <advance width="1493"/>
  <unicode hex="095E"/>
  <outline>
    <component base="phadeva" xOffset="-20"/>
    <component base="nuktadeva" xOffset="1055"/>
    <contour>
      <point x="684" y="0" type="move" name="btm"/>
    </contour>
    <contour>
      <point x="896" y="1279" type="move" name="top"/>
    </contour>
  </outline>
</glyph>
<glyph name="yyadeva" format="1">
  <advance width="1140"/>
  <unicode hex="095F"/>
  <outline>
    <component base="yadeva" xOffset="-20"/>
    <component base="nuktadeva" xOffset="1095"/>
    <contour>
      <point x="1006" y="1279" type="move" name="top"/>
    </contour>
  </outline>
</glyph>
<glyph name="rrvocalicdeva" format="1">
  <advance width="1551"/>
  <unicode hex="0960"/>
  <outline>
    <contour>
      <point x="1190" y="1138" type="line"/>
      <point x="1220" y="1279" type="line"/>
      <point x="1853" y="1279" type="line"/>
      <point x="1823" y="1138" type="line"/>
    </contour>
    <contour>
      <point x="212" y="1138" type="line"/>
      <point x="242" y="1279" type="line"/>
      <point x="1384" y="1279" type="line"/>
      <point x="1354" y="1138" type="line"/>
    </contour>
    <contour>
      <point x="939" y="1198" type="line"/>
      <point x="1116" y="1198" type="line"/>
      <point x="861" y="0" type="line"/>
      <point x="684" y="0" type="line"/>
    </contour>
    <contour>
      <point x="1400" y="798" type="line"/>
      <point x="1517" y="461" type="line"/>
      <point x="1502" y="415" type="line"/>
      <point x="1367" y="375"/>
      <point x="1285" y="309"/>
      <point x="1277" y="272" type="qcurve" smooth="yes"/>
      <point x="1267" y="226"/>
      <point x="1315" y="180"/>
      <point x="1358" y="180" type="qcurve" smooth="yes"/>
      <point x="1387" y="180"/>
      <point x="1435" y="185"/>
      <point x="1475" y="198" type="qcurve"/>
      <point x="1463" y="70" type="line"/>
      <point x="1423" y="60"/>
      <point x="1367" y="51"/>
      <point x="1326" y="51" type="qcurve" smooth="yes"/>
      <point x="1210" y="51"/>
      <point x="1094" y="175"/>
      <point x="1116" y="278" type="qcurve" smooth="yes"/>
      <point x="1129" y="339"/>
      <point x="1242" y="456"/>
      <point x="1362" y="498" type="qcurve"/>
      <point x="1345" y="461" type="line"/>
      <point x="1249" y="715" type="line"/>
    </contour>
    <contour>
      <point x="1455" y="727" type="qcurve" smooth="yes"/>
      <point x="1360" y="649"/>
      <point x="1057" y="551"/>
      <point x="913" y="551" type="qcurve"/>
      <point x="950" y="709" type="line"/>
      <point x="1058" y="709"/>
      <point x="1205" y="747"/>
      <point x="1271" y="790" type="qcurve"/>
      <point x="1233" y="744" type="line"/>
      <point x="1211" y="784"/>
      <point x="1200" y="828"/>
      <point x="1206" y="855" type="qcurve" smooth="yes"/>
      <point x="1214" y="894"/>
      <point x="1303" y="958"/>
      <point x="1371" y="958" type="qcurve" smooth="yes"/>
      <point x="1453" y="958"/>
      <point x="1537" y="881"/>
      <point x="1527" y="832" type="qcurve" smooth="yes"/>
      <point x="1520" y="801"/>
      <point x="1484" y="751"/>
    </contour>
    <contour>
      <point x="922" y="531" type="line"/>
      <point x="284" y="187" type="line"/>
      <point x="220" y="326" type="line"/>
      <point x="882" y="675" type="line"/>
    </contour>
    <contour>
      <point x="213" y="871" type="line"/>
      <point x="268" y="897"/>
      <point x="409" y="936"/>
      <point x="497" y="936" type="qcurve" smooth="yes"/>
      <point x="574" y="936"/>
      <point x="722" y="875"/>
      <point x="785" y="825" type="qcurve" smooth="yes"/>
      <point x="920" y="719" type="line"/>
      <point x="881" y="536" type="line"/>
      <point x="710" y="669" type="line" smooth="yes"/>
      <point x="643" y="721"/>
      <point x="525" y="782"/>
      <point x="463" y="782" type="qcurve" smooth="yes"/>
      <point x="402" y="782"/>
      <point x="275" y="742"/>
      <point x="212" y="713" type="qcurve"/>
    </contour>
  </outline>
</glyph>
<glyph name="llvocalicdeva" format="1">
  <advance width="1441.0"/>
  <unicode hex="0961"/>
  <outline>
    <contour>
      <point x="1296" y="1198" type="line"/>
      <point x="1475" y="1198" type="line"/>
      <point x="1376" y="736" type="line"/>
      <point x="1197" y="736" type="line"/>
    </contour>
    <contour>
      <point x="212" y="1138" type="line"/>
      <point x="242" y="1279" type="line"/>
      <point x="1743" y="1279" type="line"/>
      <point x="1713" y="1138" type="line"/>
    </contour>
    <contour>
      <point x="884" y="485" type="qcurve"/>
      <point x="716" y="421" type="line"/>
      <point x="748" y="571"/>
      <point x="652" y="719"/>
      <point x="569" y="719" type="qcurve" smooth="yes"/>
      <point x="505" y="719"/>
      <point x="389" y="613"/>
      <point x="368" y="514" type="qcurve" smooth="yes"/>
      <point x="346" y="408"/>
      <point x="387" y="213"/>
      <point x="459" y="94" type="qcurve"/>
      <point x="302" y="34" type="line"/>
      <point x="227" y="149"/>
      <point x="167" y="396"/>
      <point x="196" y="532" type="qcurve" smooth="yes"/>
      <point x="228" y="681"/>
      <point x="449" y="877"/>
      <point x="587" y="877" type="qcurve" smooth="yes"/>
      <point x="756" y="877"/>
      <point x="921" y="658"/>
    </contour>
    <contour>
      <point x="1322" y="304" type="line" smooth="yes"/>
      <point x="1224" y="304"/>
      <point x="1148" y="261"/>
      <point x="1140" y="223" type="qcurve" smooth="yes"/>
      <point x="1131" y="179"/>
      <point x="1196" y="134"/>
      <point x="1256" y="134" type="qcurve" smooth="yes"/>
      <point x="1291" y="134"/>
      <point x="1355" y="142"/>
      <point x="1386" y="149" type="qcurve"/>
      <point x="1387" y="44" type="line"/>
      <point x="1356" y="32"/>
      <point x="1268" y="15"/>
      <point x="1226" y="15" type="qcurve" smooth="yes"/>
      <point x="1093" y="15"/>
      <point x="965" y="145"/>
      <point x="983" y="230" type="qcurve" smooth="yes"/>
      <point x="1002" y="319"/>
      <point x="1182" y="433"/>
      <point x="1300" y="433" type="qcurve" smooth="yes"/>
      <point x="1332" y="433" type="line"/>
      <point x="1235" y="379" type="line"/>
      <point x="1242" y="402"/>
      <point x="1264" y="482"/>
      <point x="1273" y="523" type="qcurve" smooth="yes"/>
      <point x="1293" y="614"/>
      <point x="1238" y="732"/>
      <point x="1156" y="732" type="qcurve" smooth="yes"/>
      <point x="1078" y="732"/>
      <point x="929" y="587"/>
      <point x="894" y="425" type="qcurve" smooth="yes"/>
      <point x="867" y="295" type="line"/>
      <point x="690" y="295" type="line"/>
      <point x="724" y="454" type="line" smooth="yes"/>
      <point x="762" y="633"/>
      <point x="1024" y="878"/>
      <point x="1180" y="878" type="qcurve" smooth="yes"/>
      <point x="1336" y="878"/>
      <point x="1482" y="690"/>
      <point x="1450" y="541" type="qcurve" smooth="yes"/>
      <point x="1438" y="486"/>
      <point x="1393" y="356"/>
      <point x="1369" y="304" type="qcurve"/>
    </contour>
    <contour>
      <point x="1361" y="-204" type="line"/>
      <point x="1332" y="-215"/>
      <point x="1243" y="-237"/>
      <point x="1197" y="-237" type="qcurve" smooth="yes"/>
      <point x="1080" y="-237"/>
      <point x="975" y="-127"/>
      <point x="993" y="-43" type="qcurve" smooth="yes"/>
      <point x="1007" y="23"/>
      <point x="1144" y="116"/>
      <point x="1235" y="116" type="qcurve" smooth="yes"/>
      <point x="1315" y="116" type="line"/>
      <point x="1294" y="21" type="line"/>
      <point x="1288" y="21" type="line" smooth="yes"/>
      <point x="1209" y="21"/>
      <point x="1138" y="-20"/>
      <point x="1131" y="-54" type="qcurve" smooth="yes"/>
      <point x="1124" y="-86"/>
      <point x="1167" y="-124"/>
      <point x="1221" y="-124" type="qcurve" smooth="yes"/>
      <point x="1260" y="-124"/>
      <point x="1331" y="-108"/>
      <point x="1361" y="-99" type="qcurve"/>
    </contour>
  </outline>
</glyph>
<glyph name="lvocalicvowelsigndeva" format="1">
  <advance width="0.0"/>
  <unicode hex="0962"/>
  <outline>
    <contour>
      <point x="31" y="-104" type="qcurve" smooth="yes"/>
      <point x="28" y="-124"/>
      <point x="11" y="-173"/>
      <point x="-2" y="-197" type="qcurve"/>
      <point x="-32" y="-197" type="line" smooth="yes"/>
      <point x="-75" y="-197"/>
      <point x="-115" y="-222"/>
      <point x="-119" y="-244" type="qcurve" smooth="yes"/>
      <point x="-123" y="-265"/>
      <point x="-85" y="-287"/>
      <point x="-55" y="-287" type="qcurve" smooth="yes"/>
      <point x="-33" y="-287"/>
      <point x="9" y="-279"/>
      <point x="27" y="-275" type="qcurve"/>
      <point x="28" y="-342" type="line"/>
      <point x="10" y="-348"/>
      <point x="-44" y="-356"/>
      <point x="-70" y="-356" type="qcurve" smooth="yes"/>
      <point x="-155" y="-356"/>
      <point x="-241" y="-291"/>
      <point x="-233" y="-244" type="qcurve" smooth="yes"/>
      <point x="-225" y="-191"/>
      <point x="-122" y="-132"/>
      <point x="-68" y="-132" type="qcurve" smooth="yes"/>
      <point x="-30" y="-132" type="line"/>
      <point x="-107" y="-158" type="line"/>
      <point x="-104" y="-147"/>
      <point x="-97" y="-119"/>
      <point x="-96" y="-109" type="qcurve" smooth="yes"/>
      <point x="-90" y="-76"/>
      <point x="-124" y="-36"/>
      <point x="-155" y="-36" type="qcurve" smooth="yes"/>
      <point x="-204" y="-36"/>
      <point x="-251" y="-99"/>
      <point x="-257" y="-134" type="qcurve" smooth="yes"/>
      <point x="-268" y="-200" type="line"/>
      <point x="-421" y="-200" type="line"/>
      <point x="-408" y="-122" type="line" smooth="yes"/>
      <point x="-394" y="-43"/>
      <point x="-235" y="70"/>
      <point x="-142" y="70" type="qcurve" smooth="yes"/>
      <point x="-43" y="70"/>
      <point x="43" y="-32"/>
    </contour>
    <contour>
      <point x="-410" y="-136" type="line"/>
      <point x="-403" y="-96"/>
      <point x="-442" y="-34"/>
      <point x="-486" y="-34" type="qcurve" smooth="yes"/>
      <point x="-519" y="-34"/>
      <point x="-567" y="-75"/>
      <point x="-573" y="-108" type="qcurve" smooth="yes"/>
      <point x="-580" y="-149"/>
      <point x="-541" y="-245"/>
      <point x="-499" y="-301" type="qcurve"/>
      <point x="-621" y="-333" type="line"/>
      <point x="-664" y="-280"/>
      <point x="-710" y="-158"/>
      <point x="-699" y="-95" type="qcurve" smooth="yes"/>
      <point x="-688" y="-25"/>
      <point x="-567" y="70"/>
      <point x="-478" y="70" type="qcurve" smooth="yes"/>
      <point x="-386" y="70"/>
      <point x="-253" y="-31"/>
      <point x="-266" y="-107" type="qcurve"/>
    </contour>
    <contour>
      <point x="-362" y="12" type="move" name="_btm"/>
    </contour>
  </outline>
</glyph>
<glyph name="llvocalicvowelsigndeva" format="1">
  <advance width="0.0"/>
  <unicode hex="0963"/>
  <outline>
    <contour>
      <point x="-412" y="-137" type="line"/>
      <point x="-403" y="-96"/>
      <point x="-440" y="-35"/>
      <point x="-484" y="-35" type="qcurve" smooth="yes"/>
      <point x="-518" y="-35"/>
      <point x="-569" y="-75"/>
      <point x="-576" y="-109" type="qcurve" smooth="yes"/>
      <point x="-585" y="-150"/>
      <point x="-549" y="-246"/>
      <point x="-509" y="-302" type="qcurve"/>
      <point x="-634" y="-334" type="line"/>
      <point x="-676" y="-280"/>
      <point x="-718" y="-158"/>
      <point x="-704" y="-95" type="qcurve" smooth="yes"/>
      <point x="-689" y="-25"/>
      <point x="-563" y="70"/>
      <point x="-472" y="70" type="qcurve" smooth="yes"/>
      <point x="-379" y="70"/>
      <point x="-249" y="-32"/>
      <point x="-265" y="-108" type="qcurve"/>
    </contour>
    <contour>
      <point x="-30" y="-197" type="line" smooth="yes"/>
      <point x="-75" y="-197"/>
      <point x="-114" y="-213"/>
      <point x="-118" y="-230" type="qcurve" smooth="yes"/>
      <point x="-122" y="-249"/>
      <point x="-89" y="-264"/>
      <point x="-60" y="-264" type="qcurve" smooth="yes"/>
      <point x="-40" y="-264"/>
      <point x="-8" y="-260"/>
      <point x="11" y="-257" type="qcurve"/>
      <point x="15" y="-314" type="line"/>
      <point x="-2" y="-320"/>
      <point x="-52" y="-327"/>
      <point x="-78" y="-327" type="qcurve" smooth="yes"/>
      <point x="-172" y="-327"/>
      <point x="-242" y="-267"/>
      <point x="-233" y="-228" type="qcurve" smooth="yes"/>
      <point x="-225" y="-186"/>
      <point x="-132" y="-133"/>
      <point x="-67" y="-133" type="qcurve" smooth="yes"/>
      <point x="-25" y="-133" type="line"/>
      <point x="-106" y="-158" type="line"/>
      <point x="-102" y="-148"/>
      <point x="-94" y="-120"/>
      <point x="-91" y="-109" type="qcurve" smooth="yes"/>
      <point x="-84" y="-76"/>
      <point x="-118" y="-36"/>
      <point x="-149" y="-36" type="qcurve" smooth="yes"/>
      <point x="-199" y="-36"/>
      <point x="-249" y="-99"/>
      <point x="-257" y="-135" type="qcurve" smooth="yes"/>
      <point x="-271" y="-201" type="line"/>
      <point x="-426" y="-201" type="line"/>
      <point x="-409" y="-123" type="line" smooth="yes"/>
      <point x="-392" y="-44"/>
      <point x="-226" y="70"/>
      <point x="-131" y="70" type="qcurve" smooth="yes"/>
      <point x="-31" y="70"/>
      <point x="52" y="-33"/>
      <point x="37" y="-104" type="qcurve" smooth="yes"/>
      <point x="32" y="-125"/>
      <point x="14" y="-173"/>
      <point x="0" y="-197" type="qcurve"/>
    </contour>
    <contour>
      <point x="8" y="-429" type="line"/>
      <point x="-10" y="-434"/>
      <point x="-58" y="-443"/>
      <point x="-86" y="-443" type="qcurve" smooth="yes"/>
      <point x="-159" y="-443"/>
      <point x="-227" y="-393"/>
      <point x="-218" y="-354" type="qcurve" smooth="yes"/>
      <point x="-211" y="-321"/>
      <point x="-130" y="-275"/>
      <point x="-74" y="-275" type="qcurve" smooth="yes"/>
      <point x="-25" y="-275" type="line"/>
      <point x="-46" y="-325" type="line"/>
      <point x="-49" y="-325" type="line" smooth="yes"/>
      <point x="-78" y="-325"/>
      <point x="-111" y="-339"/>
      <point x="-114" y="-353" type="qcurve" smooth="yes"/>
      <point x="-117" y="-368"/>
      <point x="-91" y="-383"/>
      <point x="-73" y="-383" type="qcurve" smooth="yes"/>
      <point x="-50" y="-383"/>
      <point x="-14" y="-376"/>
      <point x="4" y="-371" type="qcurve"/>
    </contour>
    <contour>
      <point x="-367" y="12" type="move" name="_btm"/>
    </contour>
  </outline>
</glyph>
<glyph name="dandadeva" format="1">
  <advance width="765"/>
  <unicode hex="0964"/>
  <outline>
    <contour>
      <point x="272" y="-157" type="line"/>
      <point x="525" y="1381" type="line"/>
      <point x="696" y="1381" type="line"/>
      <point x="442" y="-157" type="line"/>
    </contour>
  </outline>
</glyph>
<glyph name="zerodeva" format="1">
  <advance width="1071"/>
  <unicode hex="0966"/>
  <outline>
    <contour>
      <point x="910" y="1094"/>
      <point x="1107" y="846"/>
      <point x="1075" y="653" type="qcurve" smooth="yes"/>
      <point x="1044" y="470"/>
      <point x="766" y="224"/>
      <point x="577" y="224" type="qcurve" smooth="yes"/>
      <point x="387" y="224"/>
      <point x="185" y="467"/>
      <point x="218" y="655" type="qcurve" smooth="yes"/>
      <point x="249" y="845"/>
      <point x="528" y="1094"/>
      <point x="712" y="1094" type="qcurve" smooth="yes"/>
    </contour>
    <contour>
      <point x="710" y="365"/>
      <point x="879" y="525"/>
      <point x="901" y="660" type="qcurve" smooth="yes"/>
      <point x="924" y="789"/>
      <point x="807" y="953"/>
      <point x="696" y="953" type="qcurve" smooth="yes"/>
      <point x="581" y="953"/>
      <point x="414" y="788"/>
      <point x="392" y="655" type="qcurve" smooth="yes"/>
      <point x="369" y="525"/>
      <point x="493" y="365"/>
      <point x="595" y="365" type="qcurve" smooth="yes"/>
    </contour>
  </outline>
</glyph>
<glyph name="onedeva" format="1">
  <advance width="839"/>
  <unicode hex="0967"/>
  <outline>
    <contour>
      <point x="518" y="190" type="qcurve" smooth="yes"/>
      <point x="198" y="403" type="line"/>
      <point x="201" y="439" type="line"/>
      <point x="595" y="730" type="line" smooth="yes"/>
      <point x="681" y="793"/>
      <point x="753" y="890"/>
      <point x="764" y="958" type="qcurve" smooth="yes"/>
      <point x="775" y="1026"/>
      <point x="693" y="1133"/>
      <point x="614" y="1133" type="qcurve" smooth="yes"/>
      <point x="538" y="1133"/>
      <point x="423" y="1032"/>
      <point x="411" y="960" type="qcurve" smooth="yes"/>
      <point x="395" y="868"/>
      <point x="532" y="764"/>
      <point x="671" y="764" type="qcurve"/>
      <point x="585" y="641" type="line"/>
      <point x="411" y="641"/>
      <point x="223" y="828"/>
      <point x="247" y="970" type="qcurve" smooth="yes"/>
      <point x="268" y="1095"/>
      <point x="483" y="1274"/>
      <point x="630" y="1274" type="qcurve" smooth="yes"/>
      <point x="790" y="1274"/>
      <point x="944" y="1081"/>
      <point x="922" y="957" type="qcurve" smooth="yes"/>
      <point x="907" y="869"/>
      <point x="808" y="720"/>
      <point x="668" y="612" type="qcurve" smooth="yes"/>
      <point x="408" y="411" type="line"/>
      <point x="404" y="457" type="line"/>
      <point x="647" y="292" type="line" smooth="yes"/>
      <point x="702" y="255"/>
      <point x="740" y="163"/>
      <point x="727" y="87" type="qcurve" smooth="yes"/>
      <point x="716" y="22" type="line"/>
      <point x="550" y="22" type="line"/>
      <point x="558" y="70" type="line" smooth="yes"/>
      <point x="565" y="119"/>
      <point x="555" y="166"/>
    </contour>
  </outline>
</glyph>
<glyph name="twodeva" format="1">
  <advance width="865"/>
  <unicode hex="0968"/>
  <outline>
    <contour>
      <point x="521" y="544" type="line"/>
      <point x="766" y="75" type="line"/>
      <point x="615" y="-5" type="line"/>
      <point x="385" y="469" type="line"/>
    </contour>
    <contour>
      <point x="309" y="385" type="qcurve" smooth="yes"/>
      <point x="263" y="385"/>
      <point x="189" y="444"/>
      <point x="203" y="523" type="qcurve" smooth="yes"/>
      <point x="215" y="594"/>
      <point x="323" y="696"/>
      <point x="381" y="696" type="qcurve" smooth="yes"/>
      <point x="424" y="696"/>
      <point x="496" y="645"/>
      <point x="530" y="574" type="qcurve"/>
      <point x="396" y="582" type="line"/>
      <point x="522" y="590"/>
      <point x="726" y="757"/>
      <point x="746" y="876" type="qcurve" smooth="yes"/>
      <point x="762" y="975"/>
      <point x="639" y="1112"/>
      <point x="528" y="1112" type="qcurve" smooth="yes"/>
      <point x="461" y="1112"/>
      <point x="366" y="1089"/>
      <point x="299" y="1063" type="qcurve"/>
      <point x="299" y="1210" type="line"/>
      <point x="355" y="1235"/>
      <point x="480" y="1264"/>
      <point x="553" y="1264" type="qcurve" smooth="yes"/>
      <point x="744" y="1264"/>
      <point x="937" y="1043"/>
      <point x="909" y="872" type="qcurve" smooth="yes"/>
      <point x="874" y="659"/>
      <point x="470" y="385"/>
    </contour>
  </outline>
</glyph>
<glyph name="threedeva" format="1">
  <advance width="898"/>
  <unicode hex="0969"/>
  <outline>
    <contour>
      <point x="383" y="828" type="line"/>
      <point x="402" y="828" type="line" smooth="yes"/>
      <point x="558" y="828"/>
      <point x="716" y="922"/>
      <point x="728" y="988" type="qcurve" smooth="yes"/>
      <point x="739" y="1053"/>
      <point x="660" y="1129"/>
      <point x="569" y="1129" type="qcurve" smooth="yes"/>
      <point x="522" y="1129"/>
      <point x="431" y="1106"/>
      <point x="359" y="1073" type="qcurve"/>
      <point x="361" y="1213" type="line"/>
      <point x="418" y="1241"/>
      <point x="542" y="1270"/>
      <point x="593" y="1270" type="qcurve" smooth="yes"/>
      <point x="760" y="1270"/>
      <point x="923" y="1113"/>
      <point x="901" y="985" type="qcurve" smooth="yes"/>
      <point x="879" y="851"/>
      <point x="597" y="687"/>
      <point x="424" y="687" type="qcurve" smooth="yes"/>
      <point x="360" y="687" type="line"/>
    </contour>
    <contour>
      <point x="682" y="521" type="qcurve" smooth="yes"/>
      <point x="693" y="592"/>
      <point x="597" y="699"/>
      <point x="479" y="699" type="qcurve"/>
      <point x="505" y="823" type="line"/>
      <point x="686" y="833"/>
      <point x="878" y="640"/>
      <point x="856" y="510" type="qcurve" smooth="yes"/>
      <point x="832" y="371"/>
      <point x="600" y="198"/>
      <point x="458" y="198" type="qcurve" smooth="yes"/>
      <point x="342" y="198"/>
      <point x="260" y="242"/>
      <point x="180" y="287" type="qcurve"/>
      <point x="227" y="415" type="line"/>
      <point x="295" y="379"/>
      <point x="428" y="354"/>
      <point x="471" y="354" type="qcurve" smooth="yes"/>
      <point x="558" y="354"/>
      <point x="668" y="441"/>
    </contour>
    <contour>
      <point x="700" y="8" type="line"/>
      <point x="552" y="-62" type="line"/>
      <point x="360" y="241" type="line"/>
      <point x="484" y="197" type="line"/>
      <point x="382" y="197" type="line" smooth="yes"/>
      <point x="271" y="197"/>
      <point x="150" y="277"/>
      <point x="160" y="338" type="qcurve" smooth="yes"/>
      <point x="169" y="398"/>
      <point x="266" y="485"/>
      <point x="331" y="485" type="qcurve" smooth="yes"/>
      <point x="383" y="485"/>
      <point x="469" y="425"/>
      <point x="521" y="343" type="qcurve" smooth="yes"/>
      <point x="514" y="304" type="line"/>
    </contour>
  </outline>
</glyph>
<glyph name="fourdeva" format="1">
  <advance width="1009.0"/>
  <unicode hex="096A"/>
  <outline>
    <contour>
      <point x="702" y="704" type="qcurve" smooth="yes"/>
      <point x="831" y="619"/>
      <point x="923" y="444"/>
      <point x="906" y="360" type="qcurve" smooth="yes"/>
      <point x="880" y="240"/>
      <point x="683" y="93"/>
      <point x="542" y="93" type="qcurve" smooth="yes"/>
      <point x="404" y="93"/>
      <point x="262" y="257"/>
      <point x="286" y="370" type="qcurve" smooth="yes"/>
      <point x="306" y="465"/>
      <point x="478" y="626"/>
      <point x="621" y="697" type="qcurve" smooth="yes"/>
      <point x="836" y="804"/>
      <point x="982" y="965"/>
      <point x="1001" y="1053" type="qcurve" smooth="yes"/>
      <point x="1010" y="1097"/>
      <point x="1015" y="1160"/>
      <point x="1005" y="1220" type="qcurve"/>
      <point x="1164" y="1248" type="line"/>
      <point x="1175" y="1184"/>
      <point x="1173" y="1097"/>
      <point x="1166" y="1061" type="qcurve" smooth="yes"/>
      <point x="1131" y="898"/>
      <point x="870" y="662"/>
      <point x="679" y="574" type="qcurve" smooth="yes"/>
      <point x="587" y="532"/>
      <point x="472" y="436"/>
      <point x="458" y="374" type="qcurve" smooth="yes"/>
      <point x="445" y="309"/>
      <point x="518" y="238"/>
      <point x="576" y="238" type="qcurve" smooth="yes"/>
      <point x="642" y="238"/>
      <point x="733" y="310"/>
      <point x="745" y="366" type="qcurve" smooth="yes"/>
      <point x="755" y="413"/>
      <point x="708" y="510"/>
      <point x="584" y="586" type="qcurve" smooth="yes"/>
      <point x="484" y="647"/>
      <point x="292" y="905"/>
      <point x="327" y="1070" type="qcurve" smooth="yes"/>
      <point x="337" y="1113"/>
      <point x="372" y="1204"/>
      <point x="406" y="1256" type="qcurve"/>
      <point x="556" y="1211" type="line"/>
      <point x="528" y="1166"/>
      <point x="500" y="1088"/>
      <point x="492" y="1051" type="qcurve" smooth="yes"/>
      <point x="468" y="937"/>
      <point x="641" y="744"/>
    </contour>
  </outline>
</glyph>
<glyph name="fivedeva" format="1">
  <advance width="943"/>
  <unicode hex="096B"/>
  <outline>
    <contour>
      <point x="559" y="535" type="qcurve" smooth="yes"/>
      <point x="626" y="535"/>
      <point x="720" y="567"/>
      <point x="778" y="602" type="qcurve"/>
      <point x="659" y="511" type="line"/>
      <point x="639" y="556"/>
      <point x="632" y="593"/>
      <point x="638" y="629" type="qcurve" smooth="yes"/>
      <point x="647" y="683"/>
      <point x="734" y="759"/>
      <point x="801" y="759" type="qcurve" smooth="yes"/>
      <point x="883" y="759"/>
      <point x="972" y="669"/>
      <point x="962" y="613" type="qcurve" smooth="yes"/>
      <point x="947" y="519"/>
      <point x="710" y="380"/>
      <point x="543" y="380" type="qcurve" smooth="yes"/>
      <point x="383" y="380"/>
      <point x="185" y="597"/>
      <point x="215" y="774" type="qcurve" smooth="yes"/>
      <point x="237" y="915"/>
      <point x="451" y="1177"/>
      <point x="636" y="1274" type="qcurve"/>
      <point x="735" y="1167" type="line"/>
      <point x="561" y="1077"/>
      <point x="393" y="864"/>
      <point x="376" y="762" type="qcurve" smooth="yes"/>
      <point x="359" y="655"/>
      <point x="470" y="535"/>
    </contour>
    <contour>
      <point x="673" y="465" type="line"/>
      <point x="818" y="531" type="line"/>
      <point x="952" y="56" type="line"/>
      <point x="801" y="-9" type="line"/>
    </contour>
  </outline>
</glyph>
<glyph name="sixdeva" format="1">
  <advance width="891"/>
  <unicode hex="096C"/>
  <outline>
    <contour>
      <point x="705" y="828" type="qcurve"/>
      <point x="648" y="710" type="line"/>
      <point x="472" y="710"/>
      <point x="292" y="863"/>
      <point x="314" y="993" type="qcurve" smooth="yes"/>
      <point x="335" y="1121"/>
      <point x="540" y="1263"/>
      <point x="692" y="1263" type="qcurve" smooth="yes"/>
      <point x="756" y="1263"/>
      <point x="879" y="1241"/>
      <point x="937" y="1216" type="qcurve"/>
      <point x="894" y="1083" type="line"/>
      <point x="842" y="1104"/>
      <point x="752" y="1122"/>
      <point x="690" y="1122" type="qcurve" smooth="yes"/>
      <point x="604" y="1122"/>
      <point x="494" y="1043"/>
      <point x="483" y="978" type="qcurve" smooth="yes"/>
      <point x="471" y="900"/>
      <point x="596" y="818"/>
    </contour>
    <contour>
      <point x="536" y="180" type="qcurve" smooth="yes"/>
      <point x="379" y="180"/>
      <point x="190" y="348"/>
      <point x="216" y="500" type="qcurve" smooth="yes"/>
      <point x="238" y="641"/>
      <point x="488" y="831"/>
      <point x="738" y="831" type="qcurve" smooth="yes"/>
      <point x="801" y="831" type="line"/>
      <point x="777" y="690" type="line"/>
      <point x="724" y="690" type="line" smooth="yes"/>
      <point x="553" y="690"/>
      <point x="401" y="582"/>
      <point x="386" y="495" type="qcurve" smooth="yes"/>
      <point x="371" y="409"/>
      <point x="472" y="325"/>
      <point x="536" y="325" type="qcurve" smooth="yes"/>
      <point x="564" y="325"/>
      <point x="618" y="338"/>
      <point x="654" y="350" type="qcurve"/>
      <point x="587" y="289" type="line"/>
      <point x="578" y="324"/>
      <point x="564" y="368"/>
      <point x="570" y="404" type="qcurve" smooth="yes"/>
      <point x="578" y="448"/>
      <point x="649" y="502"/>
      <point x="705" y="502" type="qcurve" smooth="yes"/>
      <point x="782" y="502"/>
      <point x="900" y="422"/>
      <point x="889" y="357" type="qcurve" smooth="yes"/>
      <point x="880" y="300"/>
      <point x="711" y="180"/>
    </contour>
    <contour>
      <point x="610" y="251" type="line"/>
      <point x="756" y="317" type="line"/>
      <point x="859" y="20" type="line"/>
      <point x="707" y="-44" type="line"/>
    </contour>
  </outline>
</glyph>
<glyph name="sevendeva" format="1">
  <advance width="1086"/>
  <unicode hex="096D"/>
  <outline>
    <contour>
      <point x="895" y="375" type="line"/>
      <point x="707" y="392"/>
      <point x="524" y="594"/>
      <point x="547" y="733" type="qcurve" smooth="yes"/>
      <point x="568" y="861"/>
      <point x="745" y="1023"/>
      <point x="865" y="1023" type="qcurve" smooth="yes"/>
      <point x="1005" y="1023"/>
      <point x="1149" y="827"/>
      <point x="1121" y="660" type="qcurve" smooth="yes"/>
      <point x="1085" y="430"/>
      <point x="792" y="135"/>
      <point x="603" y="135" type="qcurve" smooth="yes"/>
      <point x="405" y="135"/>
      <point x="185" y="428"/>
      <point x="231" y="708" type="qcurve" smooth="yes"/>
      <point x="256" y="854"/>
      <point x="381" y="1136"/>
      <point x="465" y="1248" type="qcurve"/>
      <point x="610" y="1204" type="line"/>
      <point x="530" y="1095"/>
      <point x="409" y="809"/>
      <point x="391" y="702" type="qcurve" smooth="yes"/>
      <point x="353" y="479"/>
      <point x="500" y="276"/>
      <point x="618" y="276" type="qcurve" smooth="yes"/>
      <point x="741" y="276"/>
      <point x="936" y="475"/>
      <point x="967" y="666" type="qcurve" smooth="yes"/>
      <point x="988" y="783"/>
      <point x="916" y="883"/>
      <point x="860" y="883" type="qcurve" smooth="yes"/>
      <point x="805" y="883"/>
      <point x="716" y="802"/>
      <point x="704" y="728" type="qcurve" smooth="yes"/>
      <point x="692" y="650"/>
      <point x="801" y="521"/>
      <point x="962" y="501" type="qcurve"/>
    </contour>
  </outline>
</glyph>
<glyph name="eightdeva" format="1">
  <advance width="878"/>
  <unicode hex="096E"/>
  <outline>
    <contour>
      <point x="844" y="1271" type="line"/>
      <point x="944" y="1172" type="line"/>
      <point x="542" y="816" type="line" smooth="yes"/>
      <point x="461" y="744"/>
      <point x="359" y="595"/>
      <point x="349" y="529" type="qcurve" smooth="yes"/>
      <point x="331" y="426"/>
      <point x="451" y="311"/>
      <point x="561" y="312" type="qcurve" smooth="yes"/>
      <point x="648" y="313"/>
      <point x="755" y="337"/>
      <point x="833" y="366" type="qcurve"/>
      <point x="827" y="213" type="line"/>
      <point x="750" y="186"/>
      <point x="620" y="161"/>
      <point x="523" y="161" type="qcurve" smooth="yes"/>
      <point x="360" y="161"/>
      <point x="157" y="367"/>
      <point x="184" y="538" type="qcurve" smooth="yes"/>
      <point x="200" y="629"/>
      <point x="329" y="825"/>
      <point x="443" y="923" type="qcurve" smooth="yes"/>
    </contour>
  </outline>
</glyph>
